<svg xmlns="http://www.w3.org/2000/svg" viewBox="0 0 740 445" style="">

<path d="M2.715985292162415,181.17526898556787 a104.93757879143575,104.93757879143575 0 0 1 7.465244085405295,-31.006212650177666 a117.57759434513336,117.57759434513336 0 0 1 16.966463830466573,-28.546075394760017 a158.42435601698165,158.42435601698165 0 0 1 26.17077045849469,-25.83144118188536 A232.94954839230607,232.94954839230607 0 0 1 88.73595691262796,73.05647822591958 a366.73011569553495,366.73011569553495 0 0 1 58.15255477892419,-24.474124075448028 a585.8519960660109,585.8519960660109 0 0 1 70.75015417304562,-18.281364777327735 a808.1550884046992,808.1550884046992 0 0 1 80.59070319471623,-11.494779245141105 c28.249162277726846,-2.6298018937223215 57.64356086401018,-4.241615957616643 87.80145032266451,-4.241615957616643 s59.38262340663301,1.272484787284995 87.03795945029353,3.7750382022788167 a740.1195684445281,740.1195684445281 0 0 1 78.46989521590793,11.155449968531773 a501.52867082859194,501.52867082859194 0 0 1 67.18719676864764,18.026867819870734 a291.6535132457204,291.6535132457204 0 0 1 53.31711258724121,24.346875596719535 a173.43967650694455,173.43967650694455 0 0 1 30.87896417144917,22.692645373249043 a116.2626933982722,116.2626933982722 0 0 1 20.99599899020239,25.789025022309193 a92.29756323773817,92.29756323773817 0 0 1 11.070617649379441,28.58849155433618 a96.75125999323565,96.75125999323565 0 0 1 1.0604039894041604,31.09104496933 c-0.38174543618549905,3.1812119682124855 -0.8907393510994965,6.362423936424966 -1.6118140638943261,9.586052064213613 s-1.4845655851658264,6.489672415153464 -2.460137255417656,9.798132862094446 s-2.0783918192321575,6.616920893881964 -3.3508766065171485,9.967797500399113 s-2.672218053298489,6.744169372610463 -4.241615957616643,10.13746213870378 a234.3068654987434,234.3068654987434 0 0 1 -26.59493205425635,43.68864436345143 a348.40633475863115,348.40633475863115 0 0 1 -37.07172346956946,41.18609094845762 a470.31037738053345,470.31037738053345 0 0 1 -44.83388067200792,37.580717384483464 a560.8688780756488,560.8688780756488 0 0 1 -49.83898750199556,32.91493983110516 a553.8702117455814,553.8702117455814 0 0 1 -53.35952874681738,27.27359060747502 a481.50824350864127,481.50824350864127 0 0 1 -55.3530882468972,20.614253554016887 a418.9019919742197,418.9019919742197 0 0 1 -57.007318470367686,13.06417714945926 a379.3701312492326,379.3701312492326 0 0 1 -58.32221941722885,4.580945234225975 a360.8766856740241,360.8766856740241 0 0 1 -57.34664774697702,-4.5385290746498095 a365.79696018485936,365.79696018485936 0 0 1 -54.20785193834071,-13.021760989883097 a387.8533631644659,387.8533631644659 0 0 1 -50.899391491399726,-20.57183739444072 a425.17958359149236,425.17958359149236 0 0 1 -47.548514884882586,-27.14634212874652 A415.2966184102455,415.2966184102455 0 0 1 88.73595691262796,342.48392385372887 a343.57089256694815,343.57089256694815 0 0 1 -36.902058831264796,-37.4110527461788 a256.32085231877375,256.32085231877375 0 0 1 -28.418826916031513,-41.01642631015294 a183.32264168819134,183.32264168819134 0 0 1 -17.47545774538057,-43.518979725146764 q-1.230068627708828,-5.089939149139972 -2.1208079788083216,-10.095045979127612 c-0.5938262340663306,-3.3508766065171485 -0.975571670251829,-6.659337053458131 -1.272484787284995,-9.925381340822947 s-0.4241615957616651,-6.532088574729631 -0.4241615957616651,-9.75571670251828 S2.41907217512928,184.35648095378033 2.715985292162415,181.17526898556787 z" style="" id="svg_1" class="" fill="#e9f0fe" fill-opacity="1"/><path d="M165.45783251523972,256.5405406355858 H121.45783251523972 s6.95,79.81 39,87.42 a21.73,21.73 0 0 0 10,0 c32.05,-7.61 39,-87.42 39,-87.42 zm-0.12000000000000002,55.75 A15.75,15.75 0 1 1 181.0878325152397,296.5405406355858 A15.75,15.75 0 0 1 165.3378325152397,312.2905406355858 z" style="fill:#f66467" id="svg_2" class=""/><path d="M429.00783251523967,42.540540635585785 a20.82,20.82 0 0 1 39.65,-12.44 a14.68,14.68 0 0 1 20.28,13.58 a14.81,14.81 0 0 1 -0.19000000000000014,2.24 a9.3,9.3 0 0 1 1,0 a9.19,9.19 0 0 1 0.79,18.35 v0 H431.3378325152397 A11,11 0 0 1 429.00783251523967,42.540540635585785 z" style="fill:#aea8ef" id="svg_3" class=""/><path d="M672.5378325152398,118.54054063558578 l0,0 l0,0 l0.47000000000000025,0.5 h0 l-0.51,-0.53 l-0.4,-0.3800000000000003 z" style="fill:none" id="svg_4" class=""/><path d="M684.5978325152397,166.4505406355858 v0 z" style="fill:#64cdf2" id="svg_5" class=""/><path d="M685.2278325152397,164.17054063558578 v0 z" style="fill:#64cdf2" id="svg_6" class=""/><path d="M686.2378325152397,158.7805406355858 v-0.11000000000000007 h0 z" style="fill:#64cdf2" id="svg_7" class=""/><path d="M649.4578325152397,199.3905406355858 h0 z" style="fill:#64cdf2" id="svg_8" class=""/><path d="M645.5778325152397,200.12054063558577 l-0.8200000000000005,0.1 h0 l0.8,-0.1 h0 z" style="fill:#64cdf2" id="svg_9" class=""/><polygon points="654.7279081344604,197.85054433345795 654.7379179000854,197.840549826622 654.7379179000854,197.840549826622 654.7279081344604,197.85054433345795 " style="fill:#64cdf2" id="svg_10" class=""/><path d="M647.8778325152397,199.73054063558578 l-0.7100000000000005,0.13 h0 l0.3100000000000003,-0.06000000000000005 l0.45,-0.08000000000000007 h0 z" style="fill:#64cdf2" id="svg_11" class=""/><path d="M652.4578325152397,198.5905406355858 l-0.6700000000000008,0.19000000000000014 l-0.1,0 h0 L652.4578325152397,198.54054063558578 h0 z" style="fill:#64cdf2" id="svg_12" class=""/><path d="M640.9278325152397,200.54054063558578 c-0.6900000000000008,0 -1.37,0 -2.06,0.05000000000000005 h-0.23 q1.15,0 2.3,-0.06000000000000005 h0 z" style="fill:#64cdf2" id="svg_13" class=""/><path d="M642.1678325152398,200.49054063558577 h-0.09000000000000012 l0.3700000000000003,0 l0.8200000000000005,-0.06000000000000005 h0 z" style="fill:#64cdf2" id="svg_14" class=""/><path d="M679.3178325152397,127.0205406355858 l0,0.08000000000000007 c-0.27,-0.4400000000000003 -0.55,-0.8800000000000006 -0.8400000000000005,-1.31 v0 C678.8078325152397,126.20054063558581 679.0578325152397,126.61054063558578 679.3178325152397,127.0205406355858 z" style="fill:#d8d8d8" id="svg_15" class=""/><path d="M684.0678325152397,168.1005406355858 c-0.07,0.2 -0.13,0.4 -0.2,0.6000000000000005 v0 h0 z" style="fill:#d8d8d8" id="svg_16" class=""/><path d="M685.3778325152397,141.54054063558578 l0,0.09000000000000012 l-0.09000000000000012,-0.39000000000000035 z" style="fill:#d8d8d8" id="svg_17" class=""/><path d="M682.0378325152398,131.98054063558578 l0.19000000000000014,0.43000000000000027 l-0.21000000000000013,-0.46 h0 z" style="fill:#d8d8d8" id="svg_18" class=""/><path d="M597.7478325152397,127.0905406355858 v0 l0,0.07 l0,0 z" style="fill:#64cdf2" id="svg_19" class=""/><path d="M598.5878325152397,125.7805406355858 v0 h0 z" style="fill:#64cdf2" id="svg_20" class=""/><path d="M604.5478325152397,118.54054063558578 l-0.15000000000000013,0.16000000000000017 l0.15000000000000013,-0.16000000000000017 z" style="fill:#64cdf2" id="svg_21" class=""/><path d="M600.5078325152397,123.13054063558576 h0 l0,0 h0 l0.16000000000000017,-0.2 l-0.25,0.32000000000000034 l0,0 z" style="fill:#64cdf2" id="svg_22" class=""/><path d="M597.3278325152397,127.76054063558581 v0 h0 z" style="fill:#64cdf2" id="svg_23" class=""/><path d="M596.5878325152397,129.05054063558578 l0,0 l0,0 z" style="fill:#64cdf2" id="svg_24" class=""/><path d="M596.7578325152397,128.75054063558576 l-0.09000000000000012,0.17 l0.05000000000000005,-0.09000000000000012 z" style="fill:#64cdf2" id="svg_25" class=""/><path d="M599.0878325152397,125.06054063558577 c0.27,-0.39000000000000035 0.54,-0.79 0.8300000000000005,-1.17 h0 c-0.32000000000000034,0.42000000000000026 -0.6100000000000005,0.8500000000000005 -0.91,1.29 l0,-0.06000000000000005 z" style="fill:#64cdf2" id="svg_26" class=""/><path d="M590.4578325152397,152.0805406355858 c0,0.13 0,0.25 0,0.3800000000000003 c0,-0.1 0,-0.19000000000000014 0,-0.29000000000000026 S590.4578325152397,152.11054063558578 590.4578325152397,152.0805406355858 z" style="fill:#64cdf2" id="svg_27" class=""/><path d="M591.3678325152397,143.2005406355858 v0 h0 z" style="fill:#64cdf2" id="svg_28" class=""/><path d="M590.9778325152397,145.54054063558578 h0 z" style="fill:#64cdf2" id="svg_29" class=""/><path d="M591.7178325152397,141.61054063558578 l0,0.08000000000000007 v-0.08000000000000007 z" style="fill:#64cdf2" id="svg_30" class=""/><path d="M592.5078325152397,138.62054063558577 v0 h0 z" style="fill:#64cdf2" id="svg_31" class=""/><path d="M592.2978325152397,139.4005406355858 l0,0.06000000000000005 l0,-0.06000000000000005 z" style="fill:#64cdf2" id="svg_32" class=""/><path d="M602.9078325152398,120.26054063558578 l-0.3800000000000003,0.4400000000000003 l0.3700000000000003,-0.43000000000000027 z" style="fill:#64cdf2" id="svg_33" class=""/><path d="M594.5778325152397,133.06054063558577 l0.12000000000000002,-0.26 c0.12000000000000002,-0.28 0.25,-0.56 0.3800000000000003,-0.8300000000000005 h0 c-0.18000000000000013,0.3700000000000003 -0.3400000000000004,0.7400000000000005 -0.5,1.12 z" style="fill:#64cdf2" id="svg_34" class=""/><path d="M594.1078325152397,134.1505406355858 h0 v0 l-0.08000000000000007,0.2 l-0.32000000000000034,0.8200000000000005 v0 C593.8478325152397,134.80054063558578 593.9678325152397,134.48054063558578 594.1078325152397,134.1505406355858 z" style="fill:#64cdf2" id="svg_35" class=""/><path d="M595.5378325152398,131.0305406355858 c0.2,-0.4 0.4,-0.79 0.6100000000000005,-1.19 h0 c-0.21000000000000013,0.4 -0.42000000000000026,0.81 -0.6200000000000006,1.22 z" style="fill:#64cdf2" id="svg_36" class=""/><path d="M590.5178325152397,150.18054063558577 h0 a0.11000000000000007,0.11000000000000007 0 0 0 0,0 c0,0.15000000000000013 0,0.3100000000000003 0,0.46 C590.5078325152397,150.48054063558578 590.5078325152397,150.3305406355858 590.5178325152397,150.18054063558577 z" style="fill:#64cdf2" id="svg_37" class=""/><path d="M593.2478325152397,136.3905406355858 h0 v0 l-0.09000000000000012,0.27 l-0.21000000000000013,0.6200000000000006 v0 C593.0578325152397,136.9505406355858 593.1478325152398,136.67054063558578 593.2478325152397,136.3905406355858 z" style="fill:#64cdf2" id="svg_38" class=""/><path d="M591.8778325152397,140.93054063558577 h0 l0,0.11000000000000007 l-0.08000000000000007,0.33000000000000035 z" style="fill:#64cdf2" id="svg_39" class=""/><path d="M590.8778325152397,146.29054063558578 l0,-0.25 c0,0.13 0,0.25 0,0.3800000000000003 v-0.11000000000000007 z" style="fill:#64cdf2" id="svg_40" class=""/><path d="M590.6878325152397,147.8405406355858 h0 v0.11000000000000007 c0,0.30000000000000027 0,0.6000000000000005 -0.07,0.9 h0 C590.6378325152397,148.54054063558578 590.6578325152398,148.17054063558578 590.6878325152397,147.8405406355858 z" style="fill:#64cdf2" id="svg_41" class=""/><path d="M629.2278325152397,199.73054063558578 l0.47000000000000025,0.08000000000000007 l-0.47000000000000025,-0.08000000000000007 z" style="fill:#d8d8d8" id="svg_42" class=""/><path d="M625.4578325152397,198.81054063558577 l-0.7600000000000007,-0.22000000000000014 l0.2,0.07 l0.5800000000000005,0.16000000000000017 z" style="fill:#d8d8d8" id="svg_43" class=""/><path d="M623.2578325152397,198.1405406355858 l-0.8600000000000005,-0.29000000000000026 h0 l0.26,0.1 l0.43000000000000027,0.14 l0.2,0.07 h0 z" style="fill:#d8d8d8" id="svg_44" class=""/><path d="M633.8478325152397,200.4105406355858 h0.1 l1,0.07 z" style="fill:#d8d8d8" id="svg_45" class=""/><path d="M681.9978325152397,131.88054063558576 l-0.17,-0.3400000000000004 l0,0.08000000000000007 z" style="fill:#64cdf2" id="svg_46" class=""/><path d="M683.4578325152397,135.25054063558576 c0.14,0.36000000000000026 0.28,0.7200000000000005 0.41000000000000025,1.08 v0 h0 v0 h0 c-0.14,-0.39000000000000035 -0.29000000000000026,-0.78 -0.4400000000000003,-1.17 l0,0 z" style="fill:#64cdf2" id="svg_47" class=""/><path d="M677.1578325152398,123.85054063558579 v0 h0 l-0.32000000000000034,-0.41000000000000025 l0.07,0.08000000000000007 z" style="fill:#64cdf2" id="svg_48" class=""/><path d="M674.2078325152397,120.26054063558578 v0 l0.41000000000000025,0.47000000000000025 l-0.41000000000000025,-0.47000000000000025 v0 c-0.36000000000000026,-0.4 -0.7400000000000005,-0.78 -1.11,-1.17 l0.13,0.13 C673.5478325152397,119.54054063558578 673.8878325152397,119.9005406355858 674.2078325152397,120.26054063558578 z" style="fill:#64cdf2" id="svg_49" class=""/><path d="M679.7678325152397,127.74054063558577 v0 h0 v0 c0.24000000000000013,0.4 0.47000000000000025,0.81 0.7000000000000005,1.22 l0,0.07 h0 l0,-0.07 c-0.23,-0.41000000000000025 -0.46,-0.81 -0.7000000000000005,-1.21 v0 h0 l-0.29000000000000026,-0.47000000000000025 l0,0 z" style="fill:#64cdf2" id="svg_50" class=""/><path d="M684.1978325152397,137.37054063558577 q0.17,0.51 0.33000000000000035,1 l0.07,0.21000000000000013 v0.06000000000000005 c0.07,0.24000000000000013 0.14,0.48000000000000026 0.21000000000000013,0.7200000000000005 l0,0.08000000000000007 h0 l0,-0.08000000000000007 l-0.2,-0.7000000000000005 v0 h0 c-0.13,-0.43000000000000027 -0.27,-0.8600000000000005 -0.42000000000000026,-1.29 v0 z" style="fill:#64cdf2" id="svg_51" class=""/><polygon points="674.9478788375854,121.11053884029388 674.9478788375854,121.10053670406342 674.9478788375854,121.11053884029388 674.9478788375854,121.11053884029388 " style="fill:#64cdf2" id="svg_52" class=""/><polygon points="683.4079008102417,135.1705516576767 683.4079008102417,135.1705516576767 683.4079008102417,135.1705516576767 683.4079008102417,135.1705516576767 " style="fill:#64cdf2" id="svg_53" class=""/><circle cx="635.5700073242188" cy="786.449951171875" transform="rotate(-45 -183.92999267578156,521.169982910156) " style="fill:#64cdf2" r="0" id="svg_54"/><path d="M682.0278325152398,131.94054063558576 v0 c0.17,0.35000000000000026 0.33000000000000035,0.7100000000000005 0.48000000000000026,1.07 l0,0 l0,0 l-0.28,-0.6300000000000006 l-0.19000000000000014,-0.43000000000000027 v0 h0 v0 z" style="fill:#64cdf2" id="svg_55" class=""/><path d="M685.8578325152397,143.86054063558578 c0,-0.21000000000000013 -0.07,-0.42000000000000026 -0.11000000000000007,-0.6200000000000006 h0 c0,0.22000000000000014 0.08000000000000007,0.4400000000000003 0.12000000000000002,0.6600000000000008 l0,0.11000000000000007 h0 l0,0.11000000000000007 l0,0.28 c0.06000000000000005,0.36000000000000026 0.13,0.7200000000000005 0.18000000000000013,1.08 v0 h0 c-0.08000000000000007,-0.51 -0.17,-1 -0.26,-1.53 h0 z" style="fill:#64cdf2" id="svg_56" class=""/><path d="M685.2378325152397,140.93054063558577 c0.05000000000000005,0.22000000000000014 0.1,0.4400000000000003 0.15000000000000013,0.6600000000000008 l0,0.09000000000000012 h0 l0,0.09000000000000012 l0.06000000000000005,0.26 l0.07,0.32000000000000034 l0.08000000000000007,0.3400000000000004 c-0.07,-0.35000000000000026 -0.15000000000000013,-0.6900000000000008 -0.23,-1 h0 l0,-0.09000000000000012 l-0.07,-0.30000000000000027 c0,-0.11000000000000007 0,-0.22000000000000014 -0.08000000000000007,-0.33000000000000035 v0 h0 z" style="fill:#64cdf2" id="svg_57" class=""/><path d="M684.1378325152397,137.2005406355858 l-0.19000000000000014,-0.5700000000000005 l0.2,0.5800000000000005 l0,0.07 h0 z" style="fill:#64cdf2" id="svg_58" class=""/><path d="M686.5978325152397,150.18054063558577 c0,0.5700000000000005 0,1.15 0,1.7200000000000002 c0,0.21000000000000013 0,0.42000000000000026 0,0.6300000000000006 c0,0 0,-0.07 0,-0.1 c0,-0.26 0,-0.52 0,-0.78 c0,-0.49000000000000027 0,-1 0,-1.47 v0 h0 A0.12000000000000002,0.12000000000000002 0 0 1 686.5978325152397,150.18054063558577 z" style="fill:#64cdf2" id="svg_59" class=""/><path d="M686.4578325152397,148.75054063558576 c0,-0.13 0,-0.26 0,-0.39000000000000035 c0,0.15000000000000013 0,0.3100000000000003 0,0.46 s0,0.18000000000000013 0,0.27 v0.06000000000000005 c0,0.17 0,0.3400000000000004 0,0.51 c0,-0.21000000000000013 0,-0.42000000000000026 0,-0.6200000000000006 c0,0 0,0 0,0 S686.4578325152397,148.8305406355858 686.4578325152397,148.75054063558576 z" style="fill:#64cdf2" id="svg_60" class=""/><path d="M686.1378325152397,145.54054063558578 c0,0.18000000000000013 0,0.36000000000000026 0.07,0.55 c0,-0.18000000000000013 0,-0.36000000000000026 -0.07,-0.54 v0 z" style="fill:#64cdf2" id="svg_61" class=""/><path d="M686.2378325152397,146.2805406355858 l0,0.15000000000000013 h0 s0,0.1 0,0.15000000000000013 h0 s0,0.08000000000000007 0,0.12000000000000002 l0,0.39000000000000035 c0,0.23 0.06000000000000005,0.46 0.08000000000000007,0.6900000000000008 v0 h0 c0,0.3100000000000003 0,0.6200000000000006 0.07,0.92 c0,-0.3100000000000003 0,-0.6200000000000006 -0.07,-0.93 c0,-0.48000000000000026 -0.11000000000000007,-1 -0.17,-1.4300000000000002 h0 z" style="fill:#64cdf2" id="svg_62" class=""/><path d="M678.0678325152397,125.13054063558576 h0 l0,-0.07 z" style="fill:#64cdf2" id="svg_63" class=""/><path d="M677.1878325152397,123.88054063558576 h0 c0.2,0.27 0.39000000000000035,0.55 0.5900000000000005,0.8200000000000005 l-0.12000000000000002,-0.16000000000000017 l-0.25,-0.35000000000000026 l-0.22000000000000014,-0.3100000000000003 z" style="fill:#64cdf2" id="svg_64" class=""/><polygon points="675.7478666305542,122.04053914546967 675.7478666305542,122.04053914546967 675.7478666305542,122.04053914546967 675.7379179000854,122.0305370092392 675.7478666305542,122.04053914546967 675.7478666305542,122.04053914546967 " style="fill:#64cdf2" id="svg_65" class=""/><path d="M683.0078325152397,134.1605406355858 l0.2,0.51 l-0.2,-0.51 v0 h0 z" style="fill:#64cdf2" id="svg_66" class=""/><path d="M680.9578325152397,129.8305406355858 v0 c0.21000000000000013,0.3800000000000003 0.4,0.78 0.6000000000000005,1.17 l0,0.07 h0 l0,-0.07 l-0.4,-0.77 l-0.2,-0.39000000000000035 z" style="fill:#64cdf2" id="svg_67" class=""/><path d="M679.3178325152397,127.0205406355858 l0,0.08000000000000007 h0 l0,-0.08000000000000007 c-0.25,-0.41000000000000025 -0.51,-0.81 -0.78,-1.21 v0 h0 v0 C678.8078325152397,126.20054063558581 679.0678325152397,126.61054063558578 679.3178325152397,127.0205406355858 z" style="fill:#64cdf2" id="svg_68" class=""/><path d="M684.1678325152398,167.80054063558578 h0 v0 z" style="fill:#d8d8d8" id="svg_69" class=""/><path d="M685.8778325152397,161.1005406355858 h0 v0 z" style="fill:#d8d8d8" id="svg_70" class=""/><path d="M684.8178325152397,165.69054063558576 l-0.17,0.5900000000000005 l0,0.15000000000000013 v0 h0 v0 h0 l0.1,-0.35000000000000026 l0.12000000000000002,-0.43000000000000027 v0 z" style="fill:#d8d8d8" id="svg_71" class=""/><path d="M685.7378325152397,161.8905406355858 h0 z" style="fill:#d8d8d8" id="svg_72" class=""/><path d="M685.3878325152397,163.48054063558578 c-0.05000000000000005,0.22000000000000014 -0.1,0.45 -0.15000000000000013,0.6700000000000008 v0 h0 v0 c-0.12000000000000002,0.5 -0.26,1 -0.4,1.48 l0,-0.08000000000000007 c0.06000000000000005,-0.22000000000000014 0.12000000000000002,-0.45 0.18000000000000013,-0.6700000000000008 s0.13,-0.48000000000000026 0.19000000000000014,-0.7200000000000005 h0 v0 h0 l0.08000000000000007,-0.35000000000000026 l0.09000000000000012,-0.3800000000000003 v0 z" style="fill:#d8d8d8" id="svg_73" class=""/><path d="M686.4578325152397,156.25054063558576 c0,0.33000000000000035 0,0.6600000000000008 -0.07,1 h0 a0.16000000000000017,0.16000000000000017 0 0 1 0,0 c0,-0.21000000000000013 0,-0.41000000000000025 0,-0.6200000000000006 s0,-0.3700000000000003 0,-0.55 a0.6900000000000008,0.6900000000000008 0 0 1 0,-0.08000000000000007 z" style="fill:#d8d8d8" id="svg_74" class=""/><path d="M685.9978325152397,160.4005406355858 l0,0.09000000000000012 c0,0.17 -0.05000000000000005,0.33000000000000035 -0.08000000000000007,0.49000000000000027 h0 l0,0.12000000000000002 c0,0.26 -0.09000000000000012,0.51 -0.14,0.77 v0 c-0.06000000000000005,0.30000000000000027 -0.13,0.6000000000000005 -0.19000000000000014,0.8900000000000007 l-0.05000000000000005,0.23 c0.08000000000000007,-0.3800000000000003 0.17,-0.7600000000000007 0.25,-1.1400000000000001 h0 v0 h0 c0,-0.1 0,-0.21000000000000013 0.06000000000000005,-0.32000000000000034 l0.08000000000000007,-0.4400000000000003 h0 v0 h0 v-0.05000000000000005 C685.9278325152397,160.81054063558577 685.9578325152397,160.6005406355858 685.9978325152397,160.4005406355858 z" style="fill:#64cdf2" id="svg_75" class=""/><path d="M683.4578325152397,169.88054063558576 v0 h0 z" style="fill:#64cdf2" id="svg_76" class=""/><path d="M684.5978325152397,166.4605406355858 v0 h0 v0 h0 c-0.13,0.42000000000000026 -0.27,0.8400000000000005 -0.4,1.25 h0 l0,0.07 c-0.1,0.30000000000000027 -0.2,0.6000000000000005 -0.30000000000000027,0.9 v0 h0 c-0.13,0.3700000000000003 -0.27,0.7400000000000005 -0.41000000000000025,1.1 c0.14,-0.3700000000000003 0.29000000000000026,-0.7400000000000005 0.42000000000000026,-1.12 h0 v0 c0.07,-0.2 0.14,-0.4 0.2,-0.6000000000000005 l-0.21000000000000013,0.6200000000000006 h0 l0.28,-0.8300000000000005 v-0.09000000000000012 h0 v0 h0 c0.15000000000000013,-0.4400000000000003 0.29000000000000026,-0.8700000000000006 0.42000000000000026,-1.31 z" style="fill:#64cdf2" id="svg_77" class=""/><path d="M685.4578325152397,163.32054063558576 l0,0.09000000000000012 c-0.06000000000000005,0.25 -0.11000000000000007,0.5 -0.17,0.7500000000000006 v0 h0 v0 c0.05000000000000005,-0.22000000000000014 0.1,-0.45 0.15000000000000013,-0.6700000000000008 l0,-0.09000000000000012 v-0.06000000000000005 z" style="fill:#64cdf2" id="svg_78" class=""/><path d="M686.5278325152398,155.7705406355858 l0,0.26 c0,0.41000000000000025 -0.05000000000000005,0.8200000000000005 -0.09000000000000012,1.23 v0 c0,0.1 0,0.19000000000000014 0,0.29000000000000026 c0,-0.1 0,-0.21000000000000013 0,-0.3100000000000003 a0,0 0 0 1 0,0 h0 c0,-0.33000000000000035 0,-0.6600000000000008 0.07,-1 l0,-0.26 a0.07,0.07 0 0 1 0,0 v-0.19000000000000014 z" style="fill:#64cdf2" id="svg_79" class=""/><path d="M684.8278325152397,165.6505406355858 l-0.18000000000000013,0.6400000000000007 l0.17,-0.5900000000000005 l0,-0.08000000000000007 v0 z" style="fill:#64cdf2" id="svg_80" class=""/><path d="M686.1378325152397,159.54054063558578 c0,-0.25 0.06000000000000005,-0.51 0.1,-0.7600000000000007 c0,-0.05000000000000005 0,-0.11000000000000007 0,-0.16000000000000017 h0 V158.54054063558578 l0,0.16000000000000017 c0,0.30000000000000027 -0.07,0.6000000000000005 -0.12000000000000002,0.9 v0 z" style="fill:#64cdf2" id="svg_81" class=""/><path d="M686.5878325152397,154.92054063558578 v0 a0.07,0.07 0 0 1 0,0 v0 c0,-0.5800000000000005 0,-1.1600000000000001 0,-1.7400000000000002 c0,-0.21000000000000013 0,-0.41000000000000025 0,-0.6200000000000006 h0 C686.6478325152398,153.3405406355858 686.6278325152397,154.13054063558576 686.5878325152397,154.92054063558578 z" style="fill:#64cdf2" id="svg_82" class=""/><path d="M638.5578325152397,185.38054063558576 A32.84,32.84 0 0 1 605.7178325152397,152.54054063558578 H590.4578325152397 s0,0.07 0,0.1 s0,0.36000000000000026 0,0.53 c0,0 0,0 0,0 c0,0.5 0,1 0,1.5 c0,0.06000000000000005 0,0.12000000000000002 0,0.18000000000000013 v0 c0,0.33000000000000035 0,0.6500000000000007 0.07,1 v0.43000000000000027 c0,0.30000000000000027 0,0.6100000000000005 0.07,0.91 h0 v0 c0,0.4400000000000003 0.1,0.8700000000000006 0.16000000000000017,1.31 v0.23 c0,0.25 0.06000000000000005,0.49000000000000027 0.09000000000000012,0.7400000000000005 h0 v0 c0,0.13 0,0.26 0.07,0.39000000000000035 q0.09000000000000012,0.53 0.18000000000000013,1.07 v0.17 l0,0.2 l0,0.1 c0,0.13 0,0.25 0.07,0.3800000000000003 v0 c0.09000000000000012,0.43000000000000027 0.18000000000000013,0.8600000000000005 0.28,1.29 l0,0.23 c0.06000000000000005,0.25 0.11000000000000007,0.5 0.17,0.7500000000000006 v0 h0 c0,0.19000000000000014 0.1,0.3800000000000003 0.16000000000000017,0.5800000000000005 s0.14,0.54 0.22000000000000014,0.81 l0,0.06000000000000005 l0,0.06000000000000005 h0 l0,0.08000000000000007 v0 c0.06000000000000005,0.22000000000000014 0.12000000000000002,0.43000000000000027 0.18000000000000013,0.6400000000000007 l0.09000000000000012,0.27 q0.16000000000000017,0.51 0.33000000000000035,1 h0 l0,0.06000000000000005 l0,0 v0 l0.13,0.3800000000000003 l0.16000000000000017,0.47000000000000025 v0 h0 v0 h0 c0.14,0.4 0.30000000000000027,0.8 0.45,1.2 s0.27,0.6900000000000008 0.41000000000000025,1 s0.30000000000000027,0.6900000000000008 0.45,1 s0.3400000000000004,0.77 0.52,1.1600000000000001 s0.29000000000000026,0.5800000000000005 0.43000000000000027,0.8700000000000006 s0.42000000000000026,0.8400000000000005 0.6400000000000007,1.25 l0.42000000000000026,0.7500000000000006 c0.25,0.4400000000000003 0.49000000000000027,0.8800000000000006 0.7500000000000006,1.31 l0.42000000000000026,0.6800000000000008 c0.27,0.4400000000000003 0.55,0.8800000000000006 0.8300000000000005,1.3 l0.47000000000000025,0.6700000000000008 c0.29000000000000026,0.41000000000000025 0.5800000000000005,0.8300000000000005 0.8800000000000006,1.23 c0.19000000000000014,0.25 0.39000000000000035,0.5 0.5800000000000005,0.7500000000000006 s0.5700000000000005,0.7400000000000005 0.8600000000000005,1.09 s0.54,0.6400000000000007 0.8200000000000005,1 s0.47000000000000025,0.55 0.7100000000000005,0.8200000000000005 q0.8,0.8800000000000006 1.6400000000000001,1.73 h0 q0.8500000000000005,0.8500000000000005 1.73,1.6400000000000001 c0.27,0.25 0.55,0.48000000000000026 0.8300000000000005,0.7200000000000005 s0.6300000000000006,0.55 0.9500000000000005,0.81 s0.7300000000000005,0.5800000000000005 1.1,0.8700000000000006 l0.7400000000000005,0.5700000000000005 c0.41000000000000025,0.30000000000000027 0.8300000000000005,0.5900000000000005 1.25,0.8800000000000006 l0.6600000000000008,0.46 c0.43000000000000027,0.29000000000000026 0.8700000000000006,0.5700000000000005 1.31,0.8400000000000005 l0.6700000000000008,0.42000000000000026 c0.43000000000000027,0.26 0.8700000000000006,0.51 1.32,0.7600000000000007 l0.7400000000000005,0.41000000000000025 l1.27,0.6500000000000007 l0.8600000000000005,0.42000000000000026 l1.17,0.53 l1,0.4400000000000003 l1.05,0.42000000000000026 l1.18,0.4400000000000003 h0 l0.8600000000000005,0.29000000000000026 h0 l0.4400000000000003,0.14 l0.9,0.29000000000000026 h0 l0.7600000000000007,0.22000000000000014 h0 l-0.5800000000000005,-0.16000000000000017 l0.5800000000000005,0.16000000000000017 H625.4578325152397 l1.42,0.3800000000000003 h0 l0.43000000000000027,0.1 l0.30000000000000027,0.07 l0.79,0.17 l0.7500000000000006,0.16000000000000017 h0 l0.47000000000000025,0.08000000000000007 l0.21000000000000013,0 h0.07 l1,0.17 l0.52,0.09000000000000012 h0 l0.8700000000000006,0.11000000000000007 l0.8,0.1 l0.6300000000000006,0.08000000000000007 h0 l1.12,0.08000000000000007 h0.22000000000000014 l1,0.07 h0.11000000000000007 q1,0 2,0 h0.29000000000000026 z" style="fill:#9589f5" id="svg_83" class=""/><path d="M650.1778325152397,199.2205406355858 l-0.7600000000000007,0.18000000000000013 c-0.51,0.12000000000000002 -1,0.23 -1.52,0.33000000000000035 l-0.79,0.14 c-0.5,0.09000000000000012 -1,0.18000000000000013 -1.51,0.25 l-0.93,0.12000000000000002 l-1.3900000000000001,0.17 l-1.26,0.1 l-1.08,0.08000000000000007 c-0.79,0 -1.58,0.06000000000000005 -2.38,0.06000000000000005 V185.38054063558576 h0 V200.6405406355858 h0.3100000000000003 c0.6900000000000008,0 1.3800000000000001,0 2.06,-0.05000000000000005 h0.11000000000000007 l0.9,-0.07 h0.23 l1.1,-0.08000000000000007 h0 l1,-0.12000000000000002 l0.3400000000000004,0 h0.16000000000000017 l0.8200000000000005,-0.1 h0 c0.5,-0.07 1,-0.16000000000000017 1.48,-0.25 h0.1 l0.7100000000000005,-0.13 h0 c0.52,-0.1 1,-0.22000000000000014 1.54,-0.3400000000000004 h0 l0.13,0 l0.5700000000000005,-0.13 z" style="fill:#d8d8d8" id="svg_84" class=""/><path d="M600.5478325152397,123.0805406355858 c0.27,-0.35000000000000026 0.54,-0.7000000000000005 0.81,-1 s0.5900000000000005,-0.6900000000000008 0.8900000000000007,-1 s0.43000000000000027,-0.5 0.6500000000000007,-0.7500000000000006 q0.8,-0.8800000000000006 1.6500000000000008,-1.73 l10.79,10.79 a32.84,32.84 0 0 1 46.44,0 h0 L672.5678325152397,118.54054063558578 l0,0 l-0.36000000000000026,-0.35000000000000026 l0.4,0.3800000000000003 l-0.5,-0.47000000000000025 l0,0 l-0.26,-0.25 c-0.3100000000000003,-0.30000000000000027 -0.6200000000000006,-0.6000000000000005 -0.9400000000000005,-0.9 h0 l-0.81,-0.7000000000000005 h0 l-0.3400000000000004,-0.29000000000000026 l-0.46,-0.39000000000000035 l-0.12000000000000002,-0.11000000000000007 h0 l-0.21000000000000013,-0.16000000000000017 l-0.79,-0.6200000000000006 l-0.07,-0.06000000000000005 l0,0 h0 l-0.12000000000000002,-0.09000000000000012 l-0.21000000000000013,-0.17 l-0.3800000000000003,-0.29000000000000026 h0 l-0.6100000000000005,-0.43000000000000027 l-0.6300000000000006,-0.45 l-0.23,-0.16000000000000017 l-0.42000000000000026,-0.29000000000000026 h0 l-0.6700000000000008,-0.43000000000000027 l-0.6100000000000005,-0.39000000000000035 h0 l-0.6700000000000008,-0.42000000000000026 h0 c-0.43000000000000027,-0.26 -0.8600000000000005,-0.5 -1.29,-0.7400000000000005 h0 l-0.32000000000000034,-0.18000000000000013 l-0.41000000000000025,-0.23 h0 l-0.9,-0.46 l-0.3400000000000004,-0.17 h0 l-0.06000000000000005,0 h0 l-0.79,-0.39000000000000035 h0 l-0.3800000000000003,-0.17 l-0.33000000000000035,-0.15000000000000013 l-0.4,-0.18000000000000013 h0 l0,0 h0 l-0.6600000000000008,-0.29000000000000026 l-0.32000000000000034,-0.14 l-0.46,-0.18000000000000013 l-0.55,-0.22000000000000014 h0 l-1.2,-0.45 h0 l-0.28,-0.09000000000000012 l-0.5700000000000005,-0.19000000000000014 h0 l-0.07,0 l-1.11,-0.36000000000000026 L652.4578325152397,106.54054063558578 h0 l-0.7400000000000005,-0.21000000000000013 h-0.06000000000000005 l-0.06000000000000005,0 l-0.5,-0.13 l-0.9,-0.24000000000000013 h0 l-0.26,-0.06000000000000005 l-0.46,-0.11000000000000007 l-1.06,-0.23 l-0.5,-0.11000000000000007 h0 l-0.7300000000000005,-0.13 h-0.06000000000000005 l-0.28,0 l-0.8600000000000005,-0.15000000000000013 l-0.3400000000000004,-0.06000000000000005 h0 l-0.42000000000000026,-0.05000000000000005 l-0.3800000000000003,0 h-0.08000000000000007 l-0.7200000000000005,-0.08000000000000007 l-0.7000000000000005,-0.08000000000000007 h0 l-0.7500000000000006,-0.06000000000000005 l-0.33000000000000035,0 h-0.46 l-0.81,-0.06000000000000005 l-0.6300000000000006,0 l-0.7400000000000005,0 h-1.33 c-0.6800000000000008,0 -1.37,0 -2,0.05000000000000005 l-1,0.07 h-0.28 l-1.07,0.08000000000000007 h-0.11000000000000007 l-1.36,0.16000000000000017 l-0.7200000000000005,0.09000000000000012 l-0.12000000000000002,0 h0 l-0.45,0.08000000000000007 l-1,0.17 h-0.08000000000000007 l-0.09000000000000012,0 l-0.28,0.05000000000000005 l-0.3700000000000003,0.07 h0 c-0.51,0.1 -1,0.22000000000000014 -1.53,0.33000000000000035 h0 l-0.7300000000000005,0.17 h0 l-0.43000000000000027,0.12000000000000002 l-1,0.27 h0 l-0.26,0.07 l-0.53,0.15000000000000013 h0 l-0.92,0.30000000000000027 l-0.43000000000000027,0.14 l-0.91,0.3100000000000003 l-1.13,0.42000000000000026 l0,0 h-0.06000000000000005 l-0.4,0.16000000000000017 l-0.6000000000000005,0.24000000000000013 l-0.29000000000000026,0.13 l-0.7300000000000005,0.32000000000000034 h0 l-0.8900000000000007,0.4 l-0.23,0.11000000000000007 h0 l-0.6300000000000006,0.3100000000000003 l-0.22000000000000014,0.11000000000000007 h0 l-0.6100000000000005,0.3100000000000003 l-0.21000000000000013,0.11000000000000007 l-0.41000000000000025,0.21000000000000013 h0 l-0.7100000000000005,0.4 h0 l0,0 l-0.6100000000000005,0.35000000000000026 l-0.6600000000000008,0.3800000000000003 h0 l-0.1,0.06000000000000005 l-0.54,0.33000000000000035 h0 l0,0 c-0.42000000000000026,0.26 -0.8400000000000005,0.53 -1.25,0.8 h0 l-0.15000000000000013,0.1 l-0.49000000000000027,0.3400000000000004 c-0.42000000000000026,0.30000000000000027 -0.8500000000000005,0.5900000000000005 -1.27,0.9 h0 l-0.1,0.07 l-0.5700000000000005,0.45 l0,0 c-0.3800000000000003,0.29000000000000026 -0.7600000000000007,0.5800000000000005 -1.13,0.8900000000000007 s-0.55,0.46 -0.8200000000000005,0.7000000000000005 l-0.05000000000000005,0 l0,0 l-0.18000000000000013,0.16000000000000017 l-0.7000000000000005,0.6100000000000005 h0 q-0.81,0.7300000000000005 -1.58,1.5 l-0.14,0.13 h0 l-0.15000000000000013,0.16000000000000017 c-0.5,0.51 -1,1 -1.48,1.56 h0 l-0.3700000000000003,0.43000000000000027 l-0.25,0.28 l-0.07,0.08000000000000007 l-0.09000000000000012,0.1 l0,0 c-0.24000000000000013,0.28 -0.49000000000000027,0.56 -0.7300000000000005,0.8500000000000005 h0 c-0.22000000000000014,0.27 -0.43000000000000027,0.54 -0.6400000000000007,0.8200000000000005 l-0.16000000000000017,0.2 z" style="fill:#9589f5" id="svg_85" class=""/><path d="M590.4578325152397,152.54054063558578 c0,-0.8 0,-1.59 0.06000000000000005,-2.38 c0,-0.3700000000000003 0.05000000000000005,-0.7500000000000006 0.08000000000000007,-1.12 s0.05000000000000005,-0.8200000000000005 0.09000000000000012,-1.22 s0.11000000000000007,-0.9400000000000005 0.17,-1.42 c0,-0.30000000000000027 0.07,-0.6000000000000005 0.11000000000000007,-0.9 c0.08000000000000007,-0.51 0.17,-1 0.26,-1.53 c0,-0.26 0.09000000000000012,-0.52 0.14,-0.77 c0.1,-0.52 0.22000000000000014,-1 0.3400000000000004,-1.54 c0.06000000000000005,-0.25 0.11000000000000007,-0.5 0.17,-0.7500000000000006 c0.12000000000000002,-0.5 0.26,-1 0.4,-1.48 c0.08000000000000007,-0.27 0.15000000000000013,-0.54 0.23,-0.8 c0.14,-0.46 0.29000000000000026,-0.91 0.4400000000000003,-1.36 c0.1,-0.30000000000000027 0.2,-0.6000000000000005 0.30000000000000027,-0.9 s0.30000000000000027,-0.81 0.46,-1.22 s0.26,-0.6800000000000008 0.4,-1 s0.30000000000000027,-0.7100000000000005 0.46,-1.06 s0.33000000000000035,-0.7600000000000007 0.51,-1.13 s0.30000000000000027,-0.6000000000000005 0.45,-0.9 s0.41000000000000025,-0.8200000000000005 0.6300000000000006,-1.22 s0.29000000000000026,-0.52 0.4400000000000003,-0.78 c0.24000000000000013,-0.43000000000000027 0.48000000000000026,-0.8500000000000005 0.7300000000000005,-1.27 c0.14,-0.24000000000000013 0.30000000000000027,-0.48000000000000026 0.45,-0.7100000000000005 l0.2,-0.3100000000000003 c0.2,-0.32000000000000034 0.4,-0.6400000000000007 0.6100000000000005,-1 l0.5,-0.7100000000000005 c0.28,-0.4 0.56,-0.8 0.8500000000000005,-1.2 s0.41000000000000025,-0.53 0.6200000000000006,-0.8 l0,0 h0 l0,0 l-0.53,0.6900000000000008 h0 c-0.29000000000000026,0.39000000000000035 -0.56,0.78 -0.8300000000000005,1.17 l0,0 l0,0.06000000000000005 v0 l-0.29000000000000026,0.42000000000000026 l-0.13,0.19000000000000014 h0 c-0.27,0.41000000000000025 -0.54,0.8300000000000005 -0.8,1.24 h0 v0 h0 l0,0 L597.4578325152397,127.54054063558578 l-0.13,0.21000000000000013 h0 v0 h0 c-0.19000000000000014,0.32000000000000034 -0.3700000000000003,0.6500000000000007 -0.56,1 l0,0.08000000000000007 l-0.05000000000000005,0.09000000000000012 l-0.07,0.13 h0 l0,0 l-0.09000000000000012,0.17 l-0.30000000000000027,0.54 h0 v0 h0 c-0.21000000000000013,0.39000000000000035 -0.41000000000000025,0.79 -0.6100000000000005,1.19 v0 l0,0 c-0.14,0.28 -0.28,0.56 -0.42000000000000026,0.8500000000000005 v0 h0 c-0.13,0.28 -0.25,0.56 -0.3800000000000003,0.8300000000000005 l-0.12000000000000002,0.26 h0 l0,0 v0 h0 c-0.14,0.32000000000000034 -0.28,0.6400000000000007 -0.42000000000000026,1 h0 v0 h0 c-0.13,0.32000000000000034 -0.25,0.6400000000000007 -0.3800000000000003,1 v0 l0,0 v0 l-0.3700000000000003,1 l-0.07,0.19000000000000014 v0 h0 c-0.1,0.28 -0.19000000000000014,0.56 -0.29000000000000026,0.8400000000000005 v0 l0,0.05000000000000005 v0 l-0.15000000000000013,0.46 c-0.09000000000000012,0.27 -0.18000000000000013,0.55 -0.27,0.8200000000000005 h0 v0 h0 c-0.07,0.24000000000000013 -0.14,0.49000000000000027 -0.21000000000000013,0.7400000000000005 h0 l0,0.06000000000000005 v0 c-0.13,0.46 -0.26,0.92 -0.3700000000000003,1.3800000000000001 h0 v0 h0 l-0.1,0.43000000000000027 l-0.05000000000000005,0.24000000000000013 h0 v0.11000000000000007 c-0.1,0.42000000000000026 -0.19000000000000014,0.8400000000000005 -0.28,1.26 l0,0.2 h0 v0 h0 c0,0.22000000000000014 -0.08000000000000007,0.45 -0.12000000000000002,0.6700000000000008 v0 l0,0.08000000000000007 v0.08000000000000007 c-0.08000000000000007,0.47000000000000025 -0.17,0.9400000000000005 -0.24000000000000013,1.4100000000000001 h0 c0,0.17 0,0.3400000000000004 -0.06000000000000005,0.5 l0,0.25 h0 v0.11000000000000007 c-0.06000000000000005,0.47000000000000025 -0.12000000000000002,0.9400000000000005 -0.17,1.4100000000000001 v0 h0 c0,0.33000000000000035 -0.05000000000000005,0.6600000000000008 -0.08000000000000007,1 h0 v0.3100000000000003 s0,0.05000000000000005 0,0.08000000000000007 l0,0.26 c0,0.12000000000000002 0,0.25 0,0.3700000000000003 s0,0.2 0,0.30000000000000027 a0.11000000000000007,0.11000000000000007 0 0 1 0,0 h0 c0,0.15000000000000013 0,0.30000000000000027 0,0.4400000000000003 c0,0.42000000000000026 0,0.8400000000000005 0,1.26 c0,0.06000000000000005 0,0.13 0,0.19000000000000014 s0,0.06000000000000005 0,0.09000000000000012 s0,0.19000000000000014 0,0.29000000000000026 s0,0.05000000000000005 0,0.08000000000000007 h0 z" style="fill:#d8d8d8" id="svg_86" class=""/><path d="M683.8478325152397,168.74054063558577 h0 v0 c-0.15000000000000013,0.41000000000000025 -0.30000000000000027,0.81 -0.46,1.22 l0,-0.07 l0,0 v-0.06000000000000005 h0 C683.5778325152397,169.48054063558578 683.7178325152397,169.11054063558578 683.8478325152397,168.74054063558577 z" style="fill:#d8d8d8" id="svg_87" class=""/><path d="M653.8178325152397,198.1505406355858 L652.4578325152397,198.54054063558578 l-0.81,0.23 l-1.46,0.4 h0 l1.46,-0.4 h0 l0.1,0 l0.6700000000000008,-0.19000000000000014 h0 l0.3700000000000003,-0.1 l0.92,-0.3100000000000003 h0 z" style="fill:#d8d8d8" id="svg_88" class=""/><path d="M654.7278325152397,197.8405406355858 l-0.8900000000000007,0.30000000000000027 h0 l0.22000000000000014,-0.07 l0.6500000000000007,-0.22000000000000014 h0 l0.3800000000000003,-0.15000000000000013 l0.47000000000000025,-0.18000000000000013 l0.30000000000000027,-0.11000000000000007 h0 z" style="fill:#d8d8d8" id="svg_89" class=""/><path d="M686.4578325152397,157.2605406355858 c0,0.47000000000000025 -0.11000000000000007,0.9400000000000005 -0.17,1.42 l0,-0.16000000000000017 v0.12000000000000002 h0 c0,0.05000000000000005 0,0.1 0,0.16000000000000017 c0,0.25 -0.06000000000000005,0.51 -0.1,0.7600000000000007 v0 h0 v0 c0,-0.24000000000000013 0.06000000000000005,-0.48000000000000026 0.09000000000000012,-0.7100000000000005 a0.3400000000000004,0.3400000000000004 0 0 1 0,-0.05000000000000005 v-0.1 h0 c0,-0.11000000000000007 0,-0.23 0,-0.3400000000000004 l0.07,-0.56 l0,-0.2 c0,-0.1 0,-0.19000000000000014 0,-0.29000000000000026 z" style="fill:#d8d8d8" id="svg_90" class=""/><path d="M686.1378325152397,159.54054063558578 c-0.08000000000000007,0.51 -0.17,1 -0.26,1.53 l0,-0.12000000000000002 h0 c0,-0.16000000000000017 0.06000000000000005,-0.33000000000000035 0.08000000000000007,-0.49000000000000027 l0,-0.09000000000000012 c0,0.2 -0.07,0.41000000000000025 -0.11000000000000007,0.6200000000000006 v0.05000000000000005 c0,-0.25 0.08000000000000007,-0.5 0.13,-0.7500000000000006 s0.09000000000000012,-0.48000000000000026 0.12000000000000002,-0.7200000000000005 z" style="fill:#d8d8d8" id="svg_91" class=""/><path d="M685.7378325152397,161.9105406355858 v0 c-0.1,0.51 -0.22000000000000014,1 -0.3400000000000004,1.54 l0,-0.09000000000000012 h0 c0,-0.09000000000000012 0,-0.19000000000000014 0.06000000000000005,-0.29000000000000026 l0.05000000000000005,-0.23 C685.6078325152397,162.54054063558578 685.6778325152397,162.2105406355858 685.7378325152397,161.9105406355858 z" style="fill:#d8d8d8" id="svg_92" class=""/><path d="M684.1878325152397,167.74054063558577 h0 c0.14,-0.42000000000000026 0.28,-0.8300000000000005 0.4,-1.25 h0 v0 c-0.14,0.46 -0.29000000000000026,0.91 -0.4400000000000003,1.37 z" style="fill:#d8d8d8" id="svg_93" class=""/><path d="M661.7778325152398,175.7605406355858 a32.73,32.73 0 0 1 -23.22,9.620000000000001 V200.6405406355858 c0.8,0 1.59,0 2.38,-0.06000000000000005 l1.08,-0.08000000000000007 l1.26,-0.1 l1.3900000000000001,-0.17 l0.93,-0.12000000000000002 c0.5,-0.07 1,-0.16000000000000017 1.51,-0.25 l0.79,-0.14 c0.51,-0.1 1,-0.22000000000000014 1.52,-0.33000000000000035 l0.7600000000000007,-0.18000000000000013 h0 l-0.5700000000000005,0.13 l0.5900000000000005,-0.13 h0 l1.46,-0.4 L652.4578325152397,198.54054063558578 l1.35,-0.4400000000000003 h0 l0.26,-0.09000000000000012 l-0.22000000000000014,0.07 h0 l0.8900000000000007,-0.30000000000000027 l1.21,-0.46 l1,-0.4 l1,-0.45 l1.1400000000000001,-0.52 l0.8900000000000007,-0.4400000000000003 l1.24,-0.6300000000000006 l0.77,-0.43000000000000027 l1.29,-0.7400000000000005 l0.6900000000000008,-0.43000000000000027 c0.43000000000000027,-0.27 0.8600000000000005,-0.54 1.29,-0.8200000000000005 l0.6900000000000008,-0.48000000000000026 c0.41000000000000025,-0.28 0.8200000000000005,-0.5700000000000005 1.21,-0.8600000000000005 l0.78,-0.6000000000000005 c0.36000000000000026,-0.28 0.7100000000000005,-0.55 1.06,-0.8300000000000005 s0.6700000000000008,-0.5700000000000005 1,-0.8700000000000006 l0.77,-0.6700000000000008 q0.8800000000000006,-0.8 1.73,-1.6500000000000008 h0 l-10.79,-10.79 z" style="fill:#f66467" id="svg_94" class=""/><path d="M684.1678325152398,167.81054063558577 c0.15000000000000013,-0.45 0.30000000000000027,-0.91 0.4400000000000003,-1.37 h0 l0,-0.15000000000000013 l0.18000000000000013,-0.6400000000000007 c0.14,-0.49000000000000027 0.28,-1 0.4,-1.48 c0.06000000000000005,-0.25 0.12000000000000002,-0.5 0.17,-0.7500000000000006 c0.12000000000000002,-0.51 0.23,-1 0.3400000000000004,-1.54 c0,-0.26 0.09000000000000012,-0.51 0.14,-0.77 c0.09000000000000012,-0.51 0.18000000000000013,-1 0.26,-1.53 c0,-0.30000000000000027 0.08000000000000007,-0.6000000000000005 0.12000000000000002,-0.9 c0.06000000000000005,-0.47000000000000025 0.12000000000000002,-0.9400000000000005 0.17,-1.42 s0.07,-0.8200000000000005 0.09000000000000012,-1.23 s0.06000000000000005,-0.7400000000000005 0.08000000000000007,-1.11 c0,-0.79 0.06000000000000005,-1.58 0.06000000000000005,-2.38 H671.3978325152398 a32.74,32.74 0 0 1 -9.620000000000001,23.22 L672.5678325152397,186.54054063558578 q0.8500000000000005,-0.8500000000000005 1.6400000000000001,-1.73 c0.23,-0.25 0.4400000000000003,-0.51 0.6600000000000008,-0.7600000000000007 s0.5900000000000005,-0.6700000000000008 0.8700000000000006,-1 s0.55,-0.7000000000000005 0.8200000000000005,-1.05 s0.41000000000000025,-0.52 0.6100000000000005,-0.79 s0.5700000000000005,-0.8 0.8600000000000005,-1.2 l0.49000000000000027,-0.7000000000000005 c0.28,-0.42000000000000026 0.55,-0.8500000000000005 0.8200000000000005,-1.28 l0.4400000000000003,-0.7100000000000005 c0.25,-0.42000000000000026 0.5,-0.8500000000000005 0.7400000000000005,-1.28 c0.15000000000000013,-0.26 0.29000000000000026,-0.51 0.43000000000000027,-0.78 s0.42000000000000026,-0.81 0.6300000000000006,-1.23 s0.30000000000000027,-0.6000000000000005 0.45,-0.9 s0.3400000000000004,-0.7500000000000006 0.51,-1.13 s0.3100000000000003,-0.7000000000000005 0.46,-1.05 s0.27,-0.6700000000000008 0.4,-1 s0.3100000000000003,-0.81 0.46,-1.22 S684.0578325152397,168.11054063558578 684.1678325152398,167.81054063558577 z" style="fill:#9589f5" id="svg_95" class=""/><polygon points="661.7778959274292,175.76054799556732 661.7778959274292,175.76054799556732 672.567873954773,186.55054128170013 672.567873954773,186.55054128170013 661.7778959274292,175.76054799556732 " style="fill:#d8d8d8" id="svg_96" class=""/><path d="M673.0678325152397,119.0605406355858 l-0.47000000000000025,-0.5 q0.8300000000000005,0.8300000000000005 1.61,1.6900000000000008 c0.25,0.28 0.5,0.5700000000000005 0.7500000000000006,0.8600000000000005 s0.53,0.6100000000000005 0.79,0.92 s0.5900000000000005,0.7400000000000005 0.8800000000000006,1.12 l0.56,0.7200000000000005 c0.3100000000000003,0.41000000000000025 0.6000000000000005,0.8300000000000005 0.8900000000000007,1.26 l0.45,0.6500000000000007 c0.29000000000000026,0.43000000000000027 0.5700000000000005,0.8800000000000006 0.8400000000000005,1.32 l0.42000000000000026,0.6600000000000008 c0.26,0.43000000000000027 0.51,0.8800000000000006 0.7600000000000007,1.32 l0.41000000000000025,0.7400000000000005 c0.22000000000000014,0.42000000000000026 0.43000000000000027,0.8400000000000005 0.6500000000000007,1.26 s0.29000000000000026,0.5800000000000005 0.43000000000000027,0.8700000000000006 s0.36000000000000026,0.78 0.53,1.17 s0.30000000000000027,0.6800000000000008 0.4400000000000003,1 s0.28,0.7000000000000005 0.41000000000000025,1 s0.3100000000000003,0.79 0.45,1.18 s0.21000000000000013,0.6200000000000006 0.3100000000000003,0.93 s0.30000000000000027,0.8900000000000007 0.43000000000000027,1.33 c0.08000000000000007,0.28 0.16000000000000017,0.55 0.24000000000000013,0.8300000000000005 c0.14,0.48000000000000026 0.27,1 0.39000000000000035,1.46 c0.06000000000000005,0.26 0.12000000000000002,0.52 0.18000000000000013,0.77 c0.12000000000000002,0.5 0.23,1 0.33000000000000035,1.52 c0.05000000000000005,0.26 0.09000000000000012,0.53 0.14,0.8 c0.09000000000000012,0.5 0.18000000000000013,1 0.25,1.5 c0,0.3100000000000003 0.08000000000000007,0.6200000000000006 0.12000000000000002,0.93 c0.06000000000000005,0.46 0.12000000000000002,0.92 0.17,1.3900000000000001 s0.06000000000000005,0.8300000000000005 0.1,1.25 s0.06000000000000005,0.7300000000000005 0.08000000000000007,1.1 c0,0.79 0.06000000000000005,1.58 0.06000000000000005,2.38 h0 c0,0.21000000000000013 0,0.41000000000000025 0,0.6200000000000006 c0,0.5800000000000005 0,1.1600000000000001 0,1.7400000000000002 v0 a0.07,0.07 0 0 0 0,0 v0 c0,0.3700000000000003 -0.05000000000000005,0.7400000000000005 -0.08000000000000007,1.11 l0,-0.26 h0 q0,-0.25 0,-0.49000000000000027 c0,-0.12000000000000002 0,-0.24000000000000013 0,-0.36000000000000026 c0,-0.45 0,-0.91 0,-1.36 c0,-0.05000000000000005 0,-0.1 0,-0.15000000000000013 c0,-0.26 0,-0.52 0,-0.79 h0 s0,0 0,-0.07 c0,-0.21000000000000013 0,-0.42000000000000026 0,-0.6300000000000006 c0,-0.5800000000000005 0,-1.15 0,-1.7200000000000002 a0.12000000000000002,0.12000000000000002 0 0 0 0,0 a0.09000000000000012,0.09000000000000012 0 0 0 0,0 c0,-0.07 0,-0.15000000000000013 0,-0.22000000000000014 l0,-0.25 c0,-0.17 0,-0.3400000000000004 0,-0.51 v-0.06000000000000005 c0,-0.09000000000000012 0,-0.18000000000000013 0,-0.27 s0,-0.3100000000000003 0,-0.46 c0,0.13 0,0.26 0,0.39000000000000035 s0,0.18000000000000013 0,0.26 c0,-0.09000000000000012 0,-0.17 0,-0.26 c0,-0.3100000000000003 0,-0.6200000000000006 -0.07,-0.92 h0 v0 c0,-0.23 -0.05000000000000005,-0.46 -0.08000000000000007,-0.6900000000000008 l0,-0.39000000000000035 s0,-0.08000000000000007 0,-0.12000000000000002 h0 c0,-0.05000000000000005 0,-0.1 0,-0.15000000000000013 h0 l0,-0.15000000000000013 v0.11000000000000007 h0 c0,-0.30000000000000027 -0.07,-0.5900000000000005 -0.11000000000000007,-0.8900000000000007 h0 v0 c-0.05000000000000005,-0.36000000000000026 -0.12000000000000002,-0.7200000000000005 -0.18000000000000013,-1.08 l0,-0.28 l0,-0.11000000000000007 h0 l0,-0.11000000000000007 c0,-0.22000000000000014 -0.07,-0.4400000000000003 -0.12000000000000002,-0.6600000000000008 h0 c0,0.21000000000000013 0.07,0.41000000000000025 0.11000000000000007,0.6200000000000006 l0,0.11000000000000007 v0 c0,-0.24000000000000013 -0.08000000000000007,-0.48000000000000026 -0.13,-0.7200000000000005 h0 v0 c0,-0.16000000000000017 -0.07,-0.32000000000000034 -0.1,-0.47000000000000025 l-0.08000000000000007,-0.3400000000000004 l-0.07,-0.32000000000000034 l-0.06000000000000005,-0.26 l0,-0.09000000000000012 h0 l0,-0.09000000000000012 c-0.05000000000000005,-0.22000000000000014 -0.1,-0.4400000000000003 -0.15000000000000013,-0.6600000000000008 v0 h0 c-0.12000000000000002,-0.49000000000000027 -0.25,-1 -0.39000000000000035,-1.44 h0 l0,-0.08000000000000007 c-0.07,-0.24000000000000013 -0.13,-0.48000000000000026 -0.21000000000000013,-0.7200000000000005 v-0.06000000000000005 l-0.07,-0.21000000000000013 q-0.16000000000000017,-0.52 -0.33000000000000035,-1 h0 v0 l0,0 l0,-0.07 l-0.2,-0.5800000000000005 l0.19000000000000014,0.5700000000000005 l0,0.07 l-0.2,-0.6000000000000005 l-0.1,-0.30000000000000027 h0 v0 h0 v0 c-0.13,-0.36000000000000026 -0.27,-0.7200000000000005 -0.41000000000000025,-1.08 h0 l0,0 v0 h0 l-0.13,-0.33000000000000035 c-0.09000000000000012,-0.24000000000000013 -0.18000000000000013,-0.47000000000000025 -0.28,-0.7000000000000005 v0 l0.2,0.51 l-0.2,-0.51 v-0.06000000000000005 l-0.12000000000000002,-0.28 l-0.3100000000000003,-0.7000000000000005 h0 v0 l0,0 c-0.16000000000000017,-0.36000000000000026 -0.32000000000000034,-0.7200000000000005 -0.48000000000000026,-1.07 v0 h0 v0 h0 l0,0 l-0.13,-0.26 l0,-0.08000000000000007 l-0.23,-0.46 h0 l0,-0.07 c-0.2,-0.39000000000000035 -0.39000000000000035,-0.78 -0.6000000000000005,-1.17 v0 l0.2,0.39000000000000035 l-0.21000000000000013,-0.41000000000000025 h0 l-0.16000000000000017,-0.28 l-0.22000000000000014,-0.39000000000000035 l0,0 l0,0 h0 l0,-0.07 c-0.23,-0.41000000000000025 -0.46,-0.8200000000000005 -0.7000000000000005,-1.22 v0 h0 v0 l-0.25,-0.41000000000000025 l0,0 l-0.12000000000000002,-0.19000000000000014 h0 l0,-0.08000000000000007 c-0.26,-0.41000000000000025 -0.51,-0.8200000000000005 -0.78,-1.22 v0 h0 l0,0 l-0.3700000000000003,-0.53 l-0.06000000000000005,-0.09000000000000012 h0 l-0.05000000000000005,-0.08000000000000007 l0,0.07 l-0.4,-0.56 l0.12000000000000002,0.16000000000000017 c-0.19000000000000014,-0.28 -0.39000000000000035,-0.55 -0.5900000000000005,-0.8200000000000005 h0 l0.22000000000000014,0.3100000000000003 l-0.24000000000000013,-0.33000000000000035 h0 v0 l-0.24000000000000013,-0.3100000000000003 l-0.07,-0.08000000000000007 l-0.2,-0.26 l0,0 l-0.09000000000000012,-0.11000000000000007 c-0.26,-0.33000000000000035 -0.51,-0.6600000000000008 -0.77,-1 h0 l-0.22000000000000014,-0.25 l-0.4,-0.47000000000000025 l-0.16000000000000017,-0.18000000000000013 h0 l-0.15000000000000013,-0.17 l-0.16000000000000017,-0.19000000000000014 l-0.41000000000000025,-0.47000000000000025 v0 c-0.32000000000000034,-0.35000000000000026 -0.6500000000000007,-0.6900000000000008 -1,-1 l-0.13,-0.13 l0,0 l-0.51,-0.53 h0 l0.51,0.53 zM686.1378325152397,145.54054063558578 c0,0.18000000000000013 0,0.36000000000000026 0.07,0.54 c0,-0.18000000000000013 0,-0.3700000000000003 -0.07,-0.55 h0 z" style="fill:#d8d8d8" id="svg_97" class=""/><path d="M686.6578325152398,152.54054063558578 c0,-0.8 0,-1.59 -0.06000000000000005,-2.38 c0,-0.3700000000000003 -0.05000000000000005,-0.7300000000000005 -0.08000000000000007,-1.1 s-0.06000000000000005,-0.8300000000000005 -0.1,-1.25 s-0.11000000000000007,-0.92 -0.17,-1.3900000000000001 c0,-0.3100000000000003 -0.07,-0.6200000000000006 -0.12000000000000002,-0.93 c-0.07,-0.5 -0.16000000000000017,-1 -0.25,-1.5 c0,-0.27 -0.09000000000000012,-0.53 -0.14,-0.8 c-0.1,-0.51 -0.21000000000000013,-1 -0.33000000000000035,-1.52 c-0.06000000000000005,-0.26 -0.11000000000000007,-0.52 -0.18000000000000013,-0.77 c-0.12000000000000002,-0.49000000000000027 -0.26,-1 -0.39000000000000035,-1.46 c-0.08000000000000007,-0.28 -0.15000000000000013,-0.55 -0.24000000000000013,-0.8300000000000005 c-0.13,-0.45 -0.28,-0.8900000000000007 -0.43000000000000027,-1.33 s-0.21000000000000013,-0.6200000000000006 -0.3100000000000003,-0.93 s-0.29000000000000026,-0.79 -0.45,-1.18 s-0.27,-0.7000000000000005 -0.41000000000000025,-1 s-0.29000000000000026,-0.6800000000000008 -0.4400000000000003,-1 s-0.3400000000000004,-0.78 -0.53,-1.17 s-0.28,-0.5800000000000005 -0.43000000000000027,-0.8700000000000006 s-0.42000000000000026,-0.8400000000000005 -0.6500000000000007,-1.26 l-0.41000000000000025,-0.7400000000000005 c-0.25,-0.4400000000000003 -0.5,-0.8800000000000006 -0.7600000000000007,-1.32 l-0.42000000000000026,-0.6600000000000008 c-0.28,-0.4400000000000003 -0.55,-0.8800000000000006 -0.8400000000000005,-1.32 l-0.45,-0.6500000000000007 c-0.29000000000000026,-0.42000000000000026 -0.5900000000000005,-0.8400000000000005 -0.8900000000000007,-1.26 l-0.56,-0.7200000000000005 c-0.29000000000000026,-0.3800000000000003 -0.5800000000000005,-0.7500000000000006 -0.8800000000000006,-1.12 s-0.52,-0.6100000000000005 -0.79,-0.92 s-0.49000000000000027,-0.5800000000000005 -0.7500000000000006,-0.8600000000000005 q-0.78,-0.8600000000000005 -1.61,-1.6900000000000008 l0,0 l-10.79,10.79 A32.74,32.74 0 0 1 671.3978325152398,152.54054063558578 z" style="fill:#f66467" id="svg_98" class=""/><path d="M615.3378325152397,129.32054063558576 L604.5478325152397,118.54054063558578 q-0.8500000000000005,0.8500000000000005 -1.6500000000000008,1.73 c-0.22000000000000014,0.24000000000000013 -0.43000000000000027,0.5 -0.6500000000000007,0.7500000000000006 s-0.6000000000000005,0.6800000000000008 -0.8900000000000007,1 s-0.54,0.6900000000000008 -0.81,1 h0 c-0.21000000000000013,0.26 -0.42000000000000026,0.53 -0.6200000000000006,0.8 s-0.5700000000000005,0.79 -0.8500000000000005,1.2 l-0.5,0.7100000000000005 c-0.21000000000000013,0.3100000000000003 -0.41000000000000025,0.6400000000000007 -0.6100000000000005,1 l-0.2,0.3100000000000003 c-0.15000000000000013,0.24000000000000013 -0.30000000000000027,0.47000000000000025 -0.45,0.7100000000000005 c-0.25,0.42000000000000026 -0.49000000000000027,0.8500000000000005 -0.7300000000000005,1.27 c-0.15000000000000013,0.26 -0.30000000000000027,0.52 -0.4400000000000003,0.78 s-0.42000000000000026,0.81 -0.6300000000000006,1.22 s-0.30000000000000027,0.6000000000000005 -0.45,0.9 s-0.3400000000000004,0.7500000000000006 -0.51,1.13 s-0.3100000000000003,0.7000000000000005 -0.46,1.06 s-0.27,0.6700000000000008 -0.4,1 s-0.3100000000000003,0.81 -0.46,1.22 s-0.2,0.6000000000000005 -0.30000000000000027,0.9 c-0.15000000000000013,0.45 -0.30000000000000027,0.91 -0.4400000000000003,1.36 c-0.08000000000000007,0.27 -0.15000000000000013,0.53 -0.23,0.8 c-0.14,0.49000000000000027 -0.28,1 -0.4,1.48 c-0.06000000000000005,0.25 -0.11000000000000007,0.5 -0.17,0.7500000000000006 c-0.12000000000000002,0.51 -0.24000000000000013,1 -0.3400000000000004,1.54 c0,0.26 -0.09000000000000012,0.51 -0.14,0.77 c-0.09000000000000012,0.51 -0.18000000000000013,1 -0.26,1.53 c0,0.30000000000000027 -0.08000000000000007,0.6000000000000005 -0.11000000000000007,0.9 c-0.06000000000000005,0.47000000000000025 -0.12000000000000002,0.9400000000000005 -0.17,1.42 s-0.06000000000000005,0.81 -0.09000000000000012,1.22 s-0.06000000000000005,0.7500000000000006 -0.08000000000000007,1.12 c0,0.79 -0.06000000000000005,1.58 -0.06000000000000005,2.38 h15.26 a32.74,32.74 0 0 1 9.620000000000001,-23.22 z" style="fill:#f66467" id="svg_99" class=""/><polygon points="671.3978910446167,152.5405467748642 686.6579008102417,152.5405467748642 671.3978910446167,152.5405467748642 671.3978910446167,152.5405467748642 " style="fill:#d8d8d8" id="svg_100" class=""/><path d="M349.4578325152397,32.540540635585785 s-16,0 -16,-16 s16,-16 16,-16 h40 s8,0 8,8 c0,0 16,0 16,16 v24 s0,8 -8,8 v-8 s0,-8 -8,-8 V24.540540635585785 s-8,0.19000000000000014 -8,-8 c0,0 0,16 -16,16 z" style="fill:#7565f2" id="svg_101" class=""/><path d="M481.4578325152397,208.7105406355858 C474.5978325152397,181.54054063558578 442.02783251523977,129.49054063558577 437.4578325152397,120.54054063558578 c-12.25,-24 -32,-24 -32,-24 h-8 L381.28783251523976,208.7105406355858 L365.4578325152397,96.54054063558578 h-8 s-19.75,0 -32,24 s-19,48 -32,48 s-32,-56 -32,-56 l-16,8 s21.25,72 48,72 s48.25,-48 48.25,-48 L349.4578325152397,256.5405406355858 h80 s-7.88,-112 -7.88,-112 c0,1.2 -0.54,-1 0,0 c1.82,3.39 31.57,48.83 36.88,66.72 c2.25,7.58 -0.6800000000000008,19.7 -10.18,60 l16.68,4.63 S485.4578325152397,224.54054063558578 481.4578325152397,208.7105406355858 z" style="fill:#f66467" id="svg_102" class=""/><path d="M399.4578325152397,98.54054063558578 H363.4578325152397 V88.54054063558578 a26,26 0 0 1 -16,-24 V30.540540635585785 h26 c0.5700000000000005,0 14,-0.23 14,-14 h4 a5.82,5.82 0 0 0 1.53,4.34 A6.93,6.93 0 0 0 397.4578325152397,22.540540635585785 l2,0 v16.2 c6.27,1 8,6.7 8,9.85 v8 h-4 v-8 c0,-1 -0.35000000000000026,-6 -6,-6 h-2 V26.340540635585796 a10.24,10.24 0 0 1 -5.23,-2.5700000000000003 C387.04783251523975,32.11054063558578 378.4578325152397,34.540540635585785 373.4578325152397,34.540540635585785 H351.4578325152397 v30 a22,22 0 0 0 44,0 h4 zm-32,-4 h28 V78.38054063558579 a26,26 0 0 1 -28,11.46 z" style="fill:#aea8ef" id="svg_103" class=""/><polygon points="393.7178373336792,111.11053884029388 381.4578275680542,102.94054067134857 369.2278470993042,111.10053670406342 355.7378263473511,97.97053945064545 358.52783489227295,95.11053884029388 369.6978178024292,105.98054158687592 381.4578275680542,98.14053761959076 393.2078275680542,105.97053945064545 404.0478239059448,95.13053548336029 406.8778409957886,97.95054280757904 393.7178373336792,111.11053884029388 " style="fill:#7565f2" id="svg_104" class=""/><rect x="379.4578325152397" y="100.54054063558578" width="4" height="156" style="fill:#7565f2" id="svg_105" class=""/><circle cx="393.4578325152397" cy="204.54054063558578" r="2" style="fill:#7565f2" id="svg_106" class=""/><circle cx="381.29782885313034" cy="50.540540635585785" r="2" style="fill:#aea8ef" id="svg_107" class=""/><circle cx="356.27783983945847" cy="50.540540635585785" r="2" style="fill:#9589f5" id="svg_108" class=""/><circle cx="393.4578325152397" cy="220.54054063558578" r="2" style="fill:#7565f2" id="svg_109" class=""/><circle cx="393.4578325152397" cy="236.54054063558578" r="2" style="fill:#7565f2" id="svg_110" class=""/><path d="M245.45783251523972,122.54054063558578 H228.36783251523974 c-5,0 -7.19,-2.45 -7.72,-3.16 s-2.48,-3.15 -6,-7.76 l-2,-2.52 a5.41,5.41 0 0 1 -1.3900000000000001,-3.64 a5.54,5.54 0 0 1 1.86,-3.6 a12.25,12.25 0 0 1 8.41,-3.55 a11.7,11.7 0 0 1 8,3.39 c0.18000000000000013,0.17 1.7000000000000002,1.62 4.32,4.3100000000000005 a4.61,4.61 0 0 1 4.42,-3.33 h13 c5.38,0 7.9,2.07 9.08,3.8 a43.59,43.59 0 0 1 2.21,3.92 c0.26,0.5 0.47000000000000025,0.91 0.5800000000000005,1.09 a2,2 0 0 1 -0.81,2.84 l-16,8 A2,2 0 0 1 245.45783251523972,122.54054063558578 zm-30.19,-17 a1.51,1.51 0 0 0 0.45,1 l2.06,2.6500000000000004 c1.94,2.52 5.5600000000000005,7.2 5.94,7.6400000000000015 l0.15000000000000013,0.19000000000000014 c0,0.06000000000000005 1.1600000000000001,1.53 4.5,1.53 h16.62 l13.74,-6.87 c-0.51,-1 -1.1600000000000001,-2.18 -1.6800000000000006,-3 c-0.8900000000000007,-1.31 -2.93,-2 -5.76,-2 h-13 a0.6000000000000005,0.6000000000000005 0 0 0 0,1.21 H247.45783251523972 a2.59,2.59 0 0 1 2.47,2.6 a2.8600000000000003,2.8600000000000003 0 0 1 -2.35,2.72 a2,2 0 0 1 -0.46,0.05000000000000005 h-8.17 a2,2 0 0 1 -0.7100000000000005,-0.13 a19.27,19.27 0 0 1 -6.92,-4.05 c-2.74,-2.8200000000000003 -4.3100000000000005,-4.32 -4.48,-4.48 a7.67,7.67 0 0 0 -5.28,-2.3 C218.24783251523974,102.30054063558578 215.6478325152397,104.68054063558577 215.26783251523972,105.54054063558578 z" style="fill:#7565f2" id="svg_111" class=""/><rect x="171.34784716367722" y="330.9105357527733" width="20.110000610351562" height="4" transform="rotate(-26.6299991607666 -214.44216918945307,69.90054321289067) " style="fill:#7565f2" id="svg_112" class=""/><rect x="510.75782603025436" y="1122.902151465416" width="4" height="21.450000762939453" transform="rotate(-74.43000030517578 -85.4121551513672,734.4521484375) " style="fill:#9589f5" id="svg_113" class=""/><path d="M421.28783251523976,270.37054063558577 h5.91 v2 L429.4578325152397,256.5405406355858 H407.4578325152397 c0,0.8900000000000007 0.25,6.51 3.94,10.26 C413.7378325152397,269.1705406355858 417.06783251523973,270.37054063558577 421.28783251523976,270.37054063558577 z" style="fill:#7565f2" id="svg_114" class=""/><path d="M349.2878325152397,270.5405406355858 c13.09,0 14.09,-12.26 14.16,-14 H349.4578325152397 l-0.81,14 z" style="fill:#7565f2" id="svg_115" class=""/><path d="M421.28783251523976,274.37054063558577 c-5.35,0 -9.65,-1.61 -12.77,-4.8 c-4.78,-4.88 -5.06,-11.76 -5.07,-13 H367.4578325152397 c-0.12000000000000002,6.3100000000000005 -4,18 -18.16,18 H348.4578325152397 l-4.35,75 a144.45,144.45 0 0 0 27,3 L385.4578325152397,288.5405406355858 l3.16,63.2 a143.27,143.27 0 0 0 28.07,-5.8100000000000005 l10.22,-71.55 z" style="fill:#7565f2" id="svg_116" class=""/><polygon points="487.7078275680542,304.54053151607513 483.7078275680542,304.54053151607513 483.7078275680542,290.29053151607513 431.4578275680542,290.29053151607513 431.4578275680542,304.54053151607513 427.4578275680542,304.54053151607513 427.4578275680542,286.29053151607513 487.7078275680542,286.29053151607513 487.7078275680542,304.54053151607513 " style="fill:#9589f5" id="svg_117" class=""/><rect x="397.4578325152397" y="304.5205516219139" width="120" height="80.0199966430664" style="fill:#aea8ef" id="svg_118" class=""/><path d="M455.0878325152397,298.5405406355858 A11.69,11.69 0 0 1 443.4578325152397,284.9205406355858 l0,-0.19000000000000014 c0,-0.18000000000000013 1.77,-8.77 2.8,-13.88 l0.43000000000000027,-2.11 l20.32,5.6400000000000015 l-0.6700000000000008,9.32 a17,17 0 0 1 0.43000000000000027,3.09 A11.76,11.76 0 0 1 455.0878325152397,298.5405406355858 zm-5.27,-24.8 c-0.77,3.79 -2.3,11.4 -2.35,11.67 l0,0.13 a7.84,7.84 0 0 0 -0.11000000000000007,1.24 a7.75,7.75 0 0 0 15.5,0 a15.23,15.23 0 0 0 -0.4,-2.48 l-0.07,-0.30000000000000027 l0.48000000000000026,-6.65 z" style="fill:#9589f5" id="svg_119" class=""/><rect x="397.4578325152397" y="334.2905406355858" width="120" height="4" style="fill:#7565f2" id="svg_120" class=""/><rect x="419.29782885313034" y="328.21055406332016" width="4" height="16.170000076293945" style="fill:#7565f2" id="svg_121" class=""/><rect x="491.4578325152397" y="328.21055406332016" width="4" height="16.170000076293945" style="fill:#7565f2" id="svg_122" class=""/><rect x="221.45784014463425" y="82.54054063558578" width="32" height="6" style="fill:#7565f2" id="svg_123" class=""/><rect x="221.45784014463425" y="72.54054063558578" width="32" height="6" style="fill:#7565f2" id="svg_124" class=""/><polygon points="230.38785076141357,42.37054097652435 237.4578275680542,65.6605418920517 244.53784465789795,42.37054097652435 230.38785076141357,42.37054097652435 " style="fill:#f66467" id="svg_125" class=""/><path d="M261.4578325152397,40.540540635585785 a24,24 0 1 0 -44,13.27 h0 c4,7.43 4,18.73 4,18.73 h13.91 l-9.16,-30.17 H221.45783251523972 v-4 h3.5300000000000002 l-1.44,-4.75 l3.83,-1.1600000000000001 l1.8,5.91 h16.58 l1.8,-5.91 l3.83,1.1600000000000001 l-1.44,4.75 H253.45783251523972 v4 h-4.75 L239.5478325152397,72.54054063558578 H253.45783251523972 s0,-11.3 4,-18.73 h0 A23.88,23.88 0 0 0 261.4578325152397,40.540540635585785 z" style="fill:#f66467" id="svg_126" class=""/><path d="M386.6078325152397,45.89054063558578 a7.83,7.83 0 0 0 -10.86,-2.21 l-2.21,-3.34 a11.83,11.83 0 0 1 16.4,3.34 z" style="fill:#aea8ef" id="svg_127" class=""/><path d="M369.4578325152397,64.54054063558578 h-8.37 V45.42054063558578 a7.83,7.83 0 0 0 -10.53,-1.75 l-2.21,-3.34 a11.83,11.83 0 0 1 16.4,3.34 l0.33000000000000035,0.5 V60.540540635585785 H369.4578325152397 z" style="fill:#aea8ef" id="svg_128" class=""/><path d="M367.9078325152397,76.89054063558578 a9.94,9.94 0 0 1 -7.07,-2.93 l2.83,-2.83 a6,6 0 0 0 8.48,0 l2.83,2.83 A9.93,9.93 0 0 1 367.9078325152397,76.89054063558578 z" style="fill:#aea8ef" id="svg_129" class=""/><path d="M481.4578325152397,122.10054063558579 a37.56,37.56 0 1 1 0,-75.12 v4 A33.56,33.56 0 1 0 515.0178325152397,84.54054063558578 h4 A37.61,37.61 0 0 1 481.4578325152397,122.10054063558579 z" style="fill:#7565f2" id="svg_130" class=""/><path d="M519.0178325152397,84.54054063558578 h-4 q0,-0.9500000000000005 -0.05000000000000005,-1.8900000000000001 l4,-0.22000000000000014 Q519.0178325152397,83.48054063558578 519.0178325152397,84.54054063558578 z" style="fill:#7565f2" id="svg_131" class=""/><path d="M514.5478325152397,78.91054063558579 a33.83,33.83 0 0 0 -0.8400000000000005,-3.67 l3.84,-1.1 a37.51,37.51 0 0 1 0.93,4.11 zM512.4578325152397,71.69054063558579 a33.56,33.56 0 0 0 -1.6300000000000003,-3.39 l3.5,-1.94 a37.72,37.72 0 0 1 1.83,3.79 zm-3.64,-6.57 a34.07,34.07 0 0 0 -2.35,-2.94 l3,-2.66 a38.11,38.11 0 0 1 2.62,3.29 zm-5,-5.6 a33.64,33.64 0 0 0 -2.94,-2.35 l2.3200000000000003,-3.26 A37.58,37.58 0 0 1 506.4578325152397,56.540540635585785 zm-6.12,-4.35 a33.53,33.53 0 0 0 -3.38,-1.6300000000000003 l1.53,-3.6900000000000004 a37.47,37.47 0 0 1 3.79,1.83 zm-6.93,-2.88 a33.36,33.36 0 0 0 -3.67,-0.8400000000000005 l0.6700000000000008,-3.94 a37.54,37.54 0 0 1 4.11,0.9400000000000005 z" style="fill:#7565f2" id="svg_132" class=""/><path d="M483.3478325152397,51.030540635585794 q-0.9400000000000005,-0.05000000000000005 -1.8900000000000001,-0.05000000000000005 v-4 q1.06,0 2.11,0.06000000000000005 z" style="fill:#7565f2" id="svg_133" class=""/><polygon points="476.9378385543823,81.14053761959076 509.1878385543823,80.60053670406342 478.0678434371948,89.06053578853607 476.9378385543823,81.14053761959076 " style="fill:#7565f2" id="svg_134" class=""/><path d="M533.1478325152398,116.54054063558578 a16,16 0 0 0 -15.16,11 L533.1478325152398,132.54054063558578 z" style="fill:#aea8ef" id="svg_135" class=""/><path d="M518.2278325152397,127.2705406355858 a16,16 0 0 0 5.78,18.56 l9.25,-13.08 z" style="fill:#7565f2" id="svg_136" class=""/><path d="M533.1878325152397,116.54054063558578 h0 v16 h16.08 A16,16 0 0 0 533.1878325152397,116.54054063558578 z" style="fill:#7565f2" id="svg_137" class=""/><path d="M524.2478325152397,145.86054063558578 a16,16 0 0 0 25,-13.32 H533.1478325152398 z" style="fill:#f66467" id="svg_138" class=""/><path d="M227.95783251523972,184.54054063558578 c0,-22.09 -24.74,-40 -55.25,-40 S117.45783251523972,162.4505406355858 117.45783251523972,184.54054063558578 s24.74,40 55.25,40 a74.28,74.28 0 0 0 18.88,-2.4 a43.76,43.76 0 0 0 24.21,13.18 c-6.5600000000000005,-4.71 -9.25,-15.13 -10,-18.74 C219.24783251523974,209.2805406355858 227.95783251523972,197.6505406355858 227.95783251523972,184.54054063558578 zm-74.37,5.88 A5.88,5.88 0 1 1 159.45783251523972,184.54054063558578 A5.88,5.88 0 0 1 153.5878325152397,190.42054063558578 zm19.88,0 a5.88,5.88 0 1 1 5.88,-5.87 A5.88,5.88 0 0 1 173.45783251523972,190.42054063558578 zm20,0 a5.88,5.88 0 1 1 5.88,-5.87 A5.88,5.88 0 0 1 193.45783251523972,190.42054063558578 z" style="fill:#aea8ef" id="svg_139" class=""/><path d="M542.2978325152397,217.1505406355858 c-23.79,0 -43.08,14 -43.08,31.19 c0,10.22 6.79,19.29 17.29,25 c-0.5900000000000005,2.81 -2.6900000000000004,10.94 -7.8,14.61 a34.11,34.11 0 0 0 18.88,-10.27 A57.9,57.9 0 0 0 542.2978325152397,279.5405406355858 c23.79,0 43.08,-14 43.08,-31.19 S566.0878325152397,217.1505406355858 542.2978325152397,217.1505406355858 zM561.4578325152397,258.5405406355858 H523.1278325152397 v-4 H561.4578325152397 zm0,-8 H523.1278325152397 v-4 H561.4578325152397 zm0,-8 H523.1278325152397 v-4 H561.4578325152397 z" style="fill:#aea8ef" id="svg_140" class=""/><rect x="312.627830684185" y="296.5405406355858" width="23.670000076293945" height="120" style="fill:#7565f2" id="svg_141" class=""/><rect x="272.627830684185" y="320.5405406355858" width="23.670000076293945" height="96" style="fill:#7565f2" id="svg_142" class=""/><rect x="232.62783068418503" y="368.5405406355858" width="23.670000076293945" height="48" style="fill:#7565f2" id="svg_143" class=""/><rect x="192.62783831357956" y="400.5405406355858" width="23.670000076293945" height="16" style="fill:#7565f2" id="svg_144" class=""/><path d="M170.45783251523972,356.5405406355858 V343.9605406355858 a21.73,21.73 0 0 1 -10,0 V356.5405406355858 c0,15.75 -16,16 -16,16 H132.45783251523972 v4 h66 v-4 H186.45783251523972 S170.45783251523972,372.2905406355858 170.45783251523972,356.5405406355858 z" style="fill:#7565f2" id="svg_145" class=""/><path d="M128.70783251523972,312.13054063558576 a6.12,6.12 0 0 1 -1.9300000000000002,-0.32000000000000034 l1.26,-3.79 a1.33,1.33 0 0 0 1.37,-0.13 a1.46,1.46 0 0 0 0.24000000000000013,-1.48 c-0.43000000000000027,-1.29 -2.25,-2.5 -3,-2.91 c-19.11,-6.12 -22.5,-15.68 -22.64,-16.09 c-1.37,-4.09 -1.48,-12.64 7.87,-15.77 a11.66,11.66 0 0 1 9.32,0.3800000000000003 c4.54,2.34 6.13,7.42 6.19,7.63 l-3.8200000000000003,1.17 s-1.19,-3.71 -4.23,-5.26 a7.84,7.84 0 0 0 -6.19,-0.13 c-7.93,2.6500000000000004 -5.45,10.38 -5.34,10.71 c0,0.06000000000000005 3.14,8.17 20.22,13.6 l0.29000000000000026,0.12000000000000002 c0.41000000000000025,0.21000000000000013 4.08,2.11 5.14,5.29 a5.47,5.47 0 0 1 -1.2,5.57 A4.91,4.91 0 0 1 128.70783251523972,312.13054063558576 z" style="fill:#7565f2" id="svg_146" class=""/><path d="M202.7378325152397,312.13054063558576 a4.91,4.91 0 0 1 -3.5300000000000002,-1.42 a5.47,5.47 0 0 1 -1.2,-5.57 c1.06,-3.17 4.73,-5.08 5.14,-5.29 l0.29000000000000026,-0.12000000000000002 c17.09,-5.43 20.2,-13.54 20.23,-13.620000000000001 c0.26,-0.79 2.38,-8.1 -5.35,-10.68 a7.85,7.85 0 0 0 -6.19,0.13 c-3,1.55 -4.21,5.22 -4.23,5.26 l-3.8200000000000003,-1.17 c0.07,-0.21000000000000013 1.6500000000000008,-5.29 6.19,-7.63 a11.66,11.66 0 0 1 9.32,-0.3800000000000003 c9.35,3.12 9.24,11.68 7.87,15.77 c-0.14,0.41000000000000025 -3.5300000000000002,10 -22.64,16.09 c-0.7600000000000007,0.41000000000000025 -2.58,1.62 -3,2.91 a1.46,1.46 0 0 0 0.24000000000000013,1.48 a1.33,1.33 0 0 0 1.37,0.13 l1.26,3.79 A6.12,6.12 0 0 1 202.7378325152397,312.13054063558576 z" style="fill:#7565f2" id="svg_147" class=""/><polygon points="173.45784282684326,278.54053151607513 173.45784282684326,274.54053151607513 157.20784282684326,274.54053151607513 157.20784282684326,278.54053151607513 163.3378324508667,278.54053151607513 163.3378324508667,314.54053151607513 157.20784282684326,314.54053151607513 157.20784282684326,318.54053151607513 173.45784282684326,318.54053151607513 173.45784282684326,314.54053151607513 167.3378324508667,314.54053151607513 167.3378324508667,278.54053151607513 173.45784282684326,278.54053151607513 " style="fill:#7565f2" id="svg_148" class=""/><circle cx="519.5678483843803" cy="37.2105388045311" r="6" style="fill:#7565f2" id="svg_149" class=""/><path d="M201.45783251523972,138.2105406355858 a7.83,7.83 0 1 1 7.83,-7.83 A7.84,7.84 0 0 1 201.45783251523972,138.2105406355858 zM201.45783251523972,126.54054063558578 a3.83,3.83 0 1 0 3.83,3.83 A3.84,3.84 0 0 0 201.45783251523972,126.54054063558578 z" style="fill:#7565f2" id="svg_150" class=""/><path d="M647.1278325152397,236.37054063558577 A7.83,7.83 0 1 1 654.9578325152397,228.54054063558578 A7.84,7.84 0 0 1 647.1278325152397,236.37054063558577 zm0,-11.67 A3.83,3.83 0 1 0 650.9578325152397,228.54054063558578 A3.84,3.84 0 0 0 647.1278325152397,224.7105406355858 z" style="fill:#aea8ef" id="svg_151" class=""/><path d="M469.9578325152397,402.2905406355858 A17.75,17.75 0 1 1 487.7078325152397,384.5405406355858 A17.77,17.77 0 0 1 469.9578325152397,402.2905406355858 zm0,-31.5 A13.75,13.75 0 1 0 483.7078325152397,384.5405406355858 A13.76,13.76 0 0 0 469.9578325152397,370.7905406355858 z" style="fill:#7565f2" id="svg_152" class=""/><path d="M177.3378325152397,406.21054063558574 a7.83,7.83 0 1 1 7.83,-7.83 A7.84,7.84 0 0 1 177.3378325152397,406.21054063558574 zm0,-11.67 a3.83,3.83 0 1 0 3.83,3.83 A3.84,3.84 0 0 0 177.3378325152397,394.5405406355858 z" style="fill:#9589f5" id="svg_153" class=""/><circle cx="257.4578325152397" cy="330.71055406332016" r="5.829999923706055" style="fill:#7565f2" id="svg_154" class=""/><circle cx="217.45784014463425" cy="354.5405406355858" r="7.829999923706055" style="fill:#9589f5" id="svg_155" class=""/><circle cx="608.3478471636772" cy="80.54054063558578" r="5.829999923706055" style="fill:#aea8ef" id="svg_156" class=""/><circle cx="618.4578325152397" cy="241.37054246664047" r="9" style="fill:#9589f5" id="svg_157" class=""/><circle cx="421.29782885313034" cy="402.3705272078514" r="5.829999923706055" style="fill:#7565f2" id="svg_158" class=""/><path d="M630.1278325152397,297.13054063558576 a7.5600000000000005,7.5600000000000005 0 0 0 -4.53,1.51 V280.2405406355858 h-20 a7.6,7.6 0 1 0 -9.16,0 H576.2778325152398 v18.4 a7.6,7.6 0 1 1 0,12.18 V329.5405406355858 h18.62 a7.6,7.6 0 1 1 12.21,0 h18.49 V310.82054063558576 a7.6,7.6 0 1 0 4.53,-13.69 z" style="fill:#aea8ef" id="svg_159" class=""/><path d="M584.5078325152397,372.4505406355858 H560.0478325152397 l2.36,-3.19 a5.54,5.54 0 0 0 1.1,-3.3200000000000003 a5.6,5.6 0 1 0 -11.2,0 a5.55,5.55 0 0 0 1.1,3.3200000000000003 l2.36,3.19 H531.1878325152397 V347.7305406355858 l3.19,2.38 a5.55,5.55 0 0 0 3.33,1.11 a5.6,5.6 0 1 0 0,-11.2 a5.55,5.55 0 0 0 -3.33,1.11 L531.1878325152397,343.5405406355858 V319.13054063558576 h18 a9.6,9.6 0 1 1 17.41,0 h17.89 v17.23 a9.6,9.6 0 1 1 0,18.52 zm-17.33,-4 h13.33 V347.7305406355858 l3.2,2.38 a5.54,5.54 0 0 0 3.33,1.11 a5.6,5.6 0 1 0 0,-11.2 a5.54,5.54 0 0 0 -3.33,1.11 l-3.2,2.38 V323.13054063558576 H535.1878325152397 v13.23 a9.6,9.6 0 1 1 0,18.52 v13.57 h13.46 a9.6,9.6 0 1 1 18.53,0 zm-9.26,-59 A5.59,5.59 0 0 0 554.5378325152398,319.5405406355858 l3.37,2.56 l3.37,-2.56 a5.59,5.59 0 0 0 -3.37,-10.06 z" style="fill:#f66467" id="svg_160" class=""/><rect y="126.54054063558578" width="23.25" height="4" style="fill:#aea8ef" id="svg_161" class="" x="97.83783739805222"/><rect y="134.54054063558578" width="23.25" height="4" style="fill:#aea8ef" id="svg_162" class="" x="97.83783739805222"/><rect y="142.54054063558578" width="23.25" height="4" style="fill:#aea8ef" id="svg_163" class="" x="97.83783739805222"/><path d="M161.45783251523972,128.87054063558577 a38,38 0 1 1 38,-38 A38,38 0 0 1 161.45783251523972,128.87054063558577 zm0,-72 a34,34 0 1 0 34,34 A34,34 0 0 0 161.45783251523972,56.8705406355858 z" style="fill:#aea8ef" id="svg_164" class=""/><path d="M161.45783251523972,62.8705406355858 a28,28 0 1 0 28,28 A28,28 0 0 0 161.45783251523972,62.8705406355858 zm0,48 a20,20 0 1 1 20,-20 A20,20 0 0 1 161.45783251523972,110.8705406355858 z" style="fill:#aea8ef" id="svg_165" class=""/><path d="M161.45783251523972,104.8705406355858 a14,14 0 1 1 14,-14 A14,14 0 0 1 161.45783251523972,104.8705406355858 zm0,-24 a10,10 0 1 0 10,10 A10,10 0 0 0 161.45783251523972,80.8705406355858 z" style="fill:#aea8ef" id="svg_166" class=""/><circle cx="161.45783632993698" cy="90.87054246664047" r="4" style="fill:#f66467" id="svg_167" class=""/><rect x="245.45783251523972" y="182.54054063558578" width="60" height="4" style="fill:#7565f2" id="svg_168" class=""/><rect x="245.45783251523972" y="190.54054063558578" width="60" height="4" style="fill:#7565f2" id="svg_169" class=""/><rect x="245.45783251523972" y="198.54054063558578" width="30" height="4" style="fill:#7565f2" id="svg_170" class=""/><rect x="245.45783251523972" y="206.54054063558578" width="60" height="4" style="fill:#7565f2" id="svg_171" class=""/><rect x="245.45783251523972" y="214.54054063558578" width="60" height="4" style="fill:#7565f2" id="svg_172" class=""/><rect x="245.45783251523972" y="222.54054063558578" width="16" height="4" style="fill:#7565f2" id="svg_173" class=""/><path d="M301.4578325152397,40.540540635585785 a32,32 0 1 0 32,32 A32,32 0 0 0 301.4578325152397,40.540540635585785 zm18.38,10.79 l2.83,2.83 l-5.66,5.66 l-2.83,-2.83 zM299.4578325152397,44.540540635585785 h4 v8 h-4 zm-26,30 v-4 h8 v4 zm9.620000000000001,19.21 l-2.83,-2.83 l5.66,-5.66 l2.83,2.83 zm2.83,-33.94 l-5.66,-5.66 l2.83,-2.83 l5.66,5.66 zM299.3378325152397,56.540540635585785 h4 v13.21 l11.36,-3.85 l1.29,3.79 l-16.64,5.65 zM303.4578325152397,100.54054063558578 h-4 v-8 h4 zm16.38,-6.79 l-5.66,-5.66 l2.83,-2.83 l5.66,5.66 zM321.4578325152397,74.54054063558578 v-4 h8 v4 z" style="fill:#aea8ef" id="svg_174" class=""/><polygon points="531.9578275680542,194.06055104732513 498.9778470993042,185.81055104732513 499.9478178024292,181.93054616451263 530.9578275680542,189.69054067134857 555.2378568649292,169.45055043697357 587.2378568649292,187.4605449438095 622.1779203414917,158.340549826622 624.7379179000854,161.4105418920517 587.6778593063354,192.2905467748642 555.6778593063354,174.2905467748642 531.9578275680542,194.06055104732513 " style="fill:#aea8ef" id="svg_175" class=""/><rect x="493.4578325152397" y="177.87054246664047" width="12" height="12" style="fill:#7565f2" id="svg_176" class=""/><rect x="617.4578325152397" y="153.87054246664047" width="12" height="12" style="fill:#7565f2" id="svg_177" class=""/><rect x="521.4578325152397" y="185.87054246664047" width="12" height="12" style="fill:#7565f2" id="svg_178" class=""/><rect x="580.4578325152397" y="181.87054246664047" width="12" height="12" style="fill:#7565f2" id="svg_179" class=""/><rect x="549.4578325152397" y="165.87054246664047" width="12" height="12" style="fill:#7565f2" id="svg_180" class=""/><path d="M685.4578325152397,274.5405406355858 a18,18 0 1 1 18,-18 A18,18 0 0 1 685.4578325152397,274.5405406355858 zm0,-32 a14,14 0 1 0 14,14 A14,14 0 0 0 685.4578325152397,242.54054063558578 z" style="fill:#7565f2" id="svg_181" class=""/><rect x="591.5778293609619" y="965.3511004447937" width="28.760000228881836" height="4" transform="rotate(-45 -196.2121582031253,553.5211181640624) " style="fill:#7565f2" id="svg_182" class=""/><rect x="549.6278459429741" y="64.37054246664047" width="32" height="32" style="fill:#aea8ef" id="svg_183" class=""/><path d="M575.6278325152397,90.3705406355858 h-36 v-36 h36 zm-32,-4 h28 v-28 h-28 z" style="fill:#7565f2" id="svg_184" class=""/><rect x="278.3278428912163" y="246.29054063558578" width="27.1299991607666" height="4" style="fill:#9589f5" id="svg_185" class=""/><rect x="293.4578325152397" y="258.5405406355858" width="10.75" height="4" style="fill:#9589f5" id="svg_186" class=""/><rect x="293.4578325152397" y="270.3705272078514" width="10.75" height="4" style="fill:#9589f5" id="svg_187" class=""/><rect x="293.4578325152397" y="282.5405406355858" width="10.75" height="4" style="fill:#9589f5" id="svg_188" class=""/><rect x="293.4578325152397" y="294.3705272078514" width="10.75" height="4" style="fill:#9589f5" id="svg_189" class=""/><rect x="293.4578325152397" y="306.5405406355858" width="10.75" height="4" style="fill:#9589f5" id="svg_190" class=""/><rect x="293.4578325152397" y="318.3705272078514" width="10.75" height="4" style="fill:#9589f5" id="svg_191" class=""/><rect x="293.4578325152397" y="331.0505504012108" width="10.75" height="4" style="fill:#9589f5" id="svg_192" class=""/><rect x="293.4578325152397" y="342.8805369734764" width="10.75" height="4" style="fill:#9589f5" id="svg_193" class=""/><rect x="293.4578325152397" y="354.46055406332016" width="10.75" height="4" style="fill:#9589f5" id="svg_194" class=""/><rect x="293.4578325152397" y="366.2905406355858" width="10.75" height="4" style="fill:#9589f5" id="svg_195" class=""/><path d="M253.62783251523973,298.5405406355858 a10.17,10.17 0 1 1 10.17,-10.17 A10.18,10.18 0 0 1 253.62783251523973,298.5405406355858 zm0,-16.33 a6.17,6.17 0 1 0 6.17,6.17 A6.17,6.17 0 0 0 253.62783251523973,282.2105406355858 z" style="fill:#9589f5" id="svg_196" class=""/><rect x="675.4578325152397" y="280.5405406355858" width="4" height="2" style="fill:#7565f2" id="svg_197" class=""/><path d="M679.4578325152397,333.9705406355858 h-4 v-4.29 h4 zm0,-12.86 h-4 v-4.29 h4 zm0,-12.86 h-4 v-4.29 h4 zm0,-12.86 h-4 v-4.29 h4 z" style="fill:#7565f2" id="svg_198" class=""/><rect x="675.4578325152397" y="342.5405406355858" width="4" height="4" style="fill:#7565f2" id="svg_199" class=""/><path d="M667.5778325152397,346.5405406355858 h-3.94 v-4 h3.94 zm-11.82,0 h-3.94 v-4 h3.94 zm-11.82,0 h-3.94 v-4 h3.94 zm-11.82,0 h-3.94 v-4 h3.94 zm-11.82,0 h-3.94 v-4 h3.94 zM608.4578325152397,346.5405406355858 h-3.94 v-4 H608.4578325152397 z" style="fill:#7565f2" id="svg_200" class=""/><rect x="594.637825191021" y="342.5405406355858" width="2" height="4" style="fill:#7565f2" id="svg_201" class=""/></svg>