<svg xmlns="http://www.w3.org/2000/svg" viewBox="0 0 78.8 43" style=""><path d="M0.5902677421972715,26.5558686102824 a-9.33920389635264,8.455499941384204 0 0 0 0.18005170965306908,-2.81731871475291 a-11.315858534935238,10.24511748974926 0 0 0 1.2251344591610973,-2.8031435262510085 a-16.6156414668973,15.043418797642895 0 0 0 2.2623888734668176,-2.7606179607453045 a-26.05269955327878,23.587513667163986 0 0 0 3.2996432877725383,-2.6897420182357967 a-42.7505385398003,38.705352204441866 0 0 0 5.679457189273965,-3.3099065151939855 a-70.13405507747132,63.49775689426746 0 0 0 7.135527536903127,-3.037034136532382 C22.95582141518933,8.181280514692666 25.742708747210706,7.291787436198352 28.682248615677125,6.476714097339016 s6.031732273377794,-1.5450955467072558 9.225693035919184,-2.1794352321673456 S44.221493992257166,3.173895176395985 47.2080038719374,2.815971666722974 s5.871251401730493,-0.5847265257034354 8.536799538116139,-0.6697776567148437 A-59.28398248707338,53.674351262449775 0 0 0 63.21694936065589,2.298577286403569 a-33.23519710139575,30.090381392411263 0 0 0 6.133500631007791,0.981631803756676 a-18.623609446289127,16.861386723011755 0 0 0 3.71845922109598,1.3076611393004072 a-11.488081909386,10.401044563270176 0 0 0 2.7399173208075633,1.7718985627376789 a-8.329348655254995,7.5412002830115625 0 0 0 1.7378904149122274,2.2290483919240005 a-8.384147001671145,7.5908134427682175 0 0 0 0.7280351738145828,2.647216452730095 q0.03131334080922941,0.4217118579315689 0.01957083800576835,0.8575989043650368 t-0.06654084921961262,0.8930368756197936 c-0.03522750841038307,0.3012227556654064 -0.09002585482653465,0.609533105581763 -0.15656670404614698,0.9249310497490706 s-0.14873836884384,0.6343396854600907 -0.24659255887268117,0.9568252238783479 a-22.674772913483167,20.52921674787875 0 0 0 -1.9570838005768314,4.30571350745256 a-35.857689394168695,32.464725466479756 0 0 0 -3.131334080922931,4.30571350745256 a-50.70021293774339,45.90280416628231 0 0 0 -4.00810762358135,4.156874028182595 a-62.59928244525053,56.6759474277274 0 0 0 -4.6343744397659385,3.8627388667681406 a-63.50736932871817,57.49810836083768 0 0 0 -5.115817054707837,3.4481146030875243 a-56.653661859098115,51.292919594130325 0 0 0 -5.479834641615127,2.9200888313916957 a-50.34010951843725,45.57677483073858 0 0 0 -5.785139714505113,2.307011928684458 a-46.04235349237054,41.68568558696664 0 0 0 -6.090444787395098,1.6053400978403376 a-43.72125210488642,39.58421389155974 0 0 0 -6.168728139418174,0.8008981503574296 a-43.44726037280565,39.336148092776476 0 0 0 -6.004333100169718,0 a-44.742849848787515,40.50914494130882 0 0 0 -5.808624720112036,-0.7087594250950727 a-47.361427973959316,42.879945218251834 0 0 0 -5.577688831643969,-1.3466429076806374 a-44.535398965926376,40.32132369365863 0 0 0 -5.19410040673091,-1.9242818391331196 a-35.05137086833104,31.734703258631825 0 0 0 -4.650031110170552,-2.4487638137034726 a-24.68665506047615,22.35072847037308 0 0 0 -3.8241417463271277,-2.9307202227681213 a-16.57258562328461,15.004437029262668 0 0 0 -2.708603979998336,-3.377238660578017 q-0.2309358884680666,-0.4110804665551421 -0.4227301009245965,-0.8221609331102836 c-0.1252533632369177,-0.2728723786616036 -0.23485005606922071,-0.5492885544486815 -0.3327042460980618,-0.8257047302357576 s-0.1761375420519152,-0.5528323515741567 -0.23876422367037395,-0.8292485273612339 A-9.276577214734179,8.398799187376596 0 0 0 0.5902677421972715,26.5558686102824 z" style="fill:#e9f0fe" id="svg_1" class=""/><path d="M20.384077873229984,12.501630783081055 v-0.8400000000000004 h1 v0.8400000000000004 a3,3 0 0 0 0,0.3100000000000002 l-1,0.1 A3.8,3.8 0 0 1 20.384077873229984,12.501630783081055 zm0,-2 v-1.2 h1 v1.2 zm0.4,3.75 l0.8600000000000004,-0.4300000000000002 a2.93,2.93 0 0 0 0.6100000000000004,0.8200000000000004 l-0.6600000000000007,0.7000000000000004 A3.88,3.88 0 0 1 20.77407787322997,14.221630783081054 zm1.94,1.84 l0.3800000000000002,-0.8800000000000004 a2.8600000000000003,2.8600000000000003 0 0 0 1,0.23 l-0.05000000000000004,1 A3.85,3.85 0 0 1 22.714077873229968,16.061630783081057 zm2.55,0.3200000000000003 v-1 h1.2 v1 zm2.39,0 v-1 h1.2 v1 z" style="fill:#7565f2" id="svg_2" class=""/><path d="M13.434077873229967,20.451630783081043 V5.641630783081041 a3.88,3.88 0 0 1 3.87,-3.87 h0.16000000000000014 a3.88,3.88 0 0 1 3.87,3.87 v3.63 h-1 v-3.63 a2.92,2.92 0 0 0 -2.92,-2.91 h-0.16000000000000014 a2.92,2.92 0 0 0 -2.91,2.91 v14.81 z" style="fill:#7565f2" id="svg_3" class=""/><path d="M5.984077873229978,30.001630783081055 v-1 h1.2 v1 zm2.4,0 v-1 h1.2 v1 zm2.36,-1 a2.89,2.89 0 0 0 1,-0.25 l0.4,0.8700000000000004 a3.8,3.8 0 0 1 -1.32,0.34000000000000036 zm1.83,-0.8300000000000004 a2.92,2.92 0 0 0 0.5900000000000004,-0.8400000000000004 l0.8700000000000004,0.4100000000000002 a3.89,3.89 0 0 1 -0.78,1.11 zm0.8500000000000004,-1.82 c0,-0.08000000000000006 0,-0.17 0,-0.25 v-0.91 h1 v0.91 c0,0.11000000000000006 0,0.2200000000000001 0,0.3300000000000003 zm0,-2.35 v-1.2 h1 V24.001630783081055 zm0,-2.39 v-1.2 h1 v1.2 z" style="fill:#f66467" id="svg_4" class=""/><polygon points="69.37408447265625,38.59163165092468 38.82408142089844,38.59163165092468 38.82408142089844,20.521633863449097 39.78408432006836,20.521633863449097 39.78408432006836,37.631632566452026 68.41407775878906,37.631632566452026 68.41407775878906,16.60163378715515 39.78408432006836,16.60163378715515 39.78408432006836,18.49163317680359 38.82408142089844,18.49163317680359 38.82408142089844,15.641632795333862 69.37408447265625,15.641632795333862 69.37408447265625,38.59163165092468 " style="fill:#7565f2" id="svg_5" class=""/><polygon points="69.37408447265625,22.24163317680359 38.82408142089844,22.24163317680359 38.82408142089844,20.521633863449097 39.78408432006836,20.521633863449097 39.78408432006836,21.291632413864136 68.41407775878906,21.291632413864136 68.41407775878906,16.60163378715515 39.78408432006836,16.60163378715515 39.78408432006836,18.49163317680359 38.82408142089844,18.49163317680359 38.82408142089844,15.641632795333862 69.37408447265625,15.641632795333862 69.37408447265625,22.24163317680359 " style="fill:#7565f2" id="svg_6" class=""/><path d="M60.56407787322996,18.191630783081052 a0.7300000000000004,0.7300000000000004 0 1 1 -0.7300000000000004,0.7300000000000004 a0.7300000000000004,0.7300000000000004 0 0 1 0.7300000000000004,-0.7300000000000004 m0,-1 a1.6900000000000008,1.6900000000000008 0 1 0 1.6900000000000008,1.6900000000000008 a1.6900000000000008,1.6900000000000008 0 0 0 -1.6900000000000008,-1.6900000000000008 z" style="fill:#7565f2" id="svg_7" class=""/><path d="M65.20407787323,18.191630783081052 a0.7300000000000004,0.7300000000000004 0 1 1 -0.7300000000000004,0.7300000000000004 a0.7300000000000004,0.7300000000000004 0 0 1 0.7300000000000004,-0.7300000000000004 m0,-1 a1.6900000000000008,1.6900000000000008 0 1 0 1.6900000000000008,1.6900000000000008 a1.6900000000000008,1.6900000000000008 0 0 0 -1.6900000000000008,-1.6900000000000008 z" style="fill:#f66467" id="svg_8" class=""/><path d="M55.924077873229976,18.191630783081052 a0.7300000000000004,0.7300000000000004 0 1 1 -0.7300000000000004,0.7300000000000004 a0.7300000000000004,0.7300000000000004 0 0 1 0.7300000000000004,-0.7300000000000004 m0,-1 a1.6900000000000008,1.6900000000000008 0 1 0 1.6900000000000008,1.6900000000000008 a1.6900000000000008,1.6900000000000008 0 0 0 -1.6900000000000008,-1.6900000000000008 z" style="fill:#aea8ef" id="svg_9" class=""/><path d="M33.48407787322998,20.001630783081055 a2.31,2.31 0 0 1 -1,-2.7 a2.25,2.25 0 0 1 2.71,-1.6400000000000001 a2,2 0 0 1 1.26,1.12 a2.47,2.47 0 0 1 0.11000000000000006,1.7400000000000002 a2.55,2.55 0 0 1 -0.5900000000000004,1 l-0.6900000000000007,-0.6600000000000007 a1.59,1.59 0 0 0 0.3700000000000002,-0.6400000000000005 a1.52,1.52 0 0 0 -0.06000000000000004,-1.07 a1.08,1.08 0 0 0 -0.6700000000000007,-0.6000000000000004 a1.3,1.3 0 0 0 -1.52,1 a1.35,1.35 0 0 0 0.53,1.59 z" style="fill:#7565f2" id="svg_10" class=""/><polygon points="31.86408233642578,38.59163165092468 29.134082794189453,38.59163165092468 31.994083404541016,32.151631116867065 29.874080657958984,30.661633253097534 30.42407989501953,29.881630659103394 33.1940803527832,31.821633100509644 30.61408233642578,37.631632566452026 31.284080505371094,37.631632566452026 34.494083404541016,31.561630964279175 31.83407974243164,27.99163317680359 32.60408020019531,27.42163348197937 35.624080657958984,31.481632947921753 31.86408233642578,38.59163165092468 " style="fill:#7565f2" id="svg_11" class=""/><path d="M24.24407787322997,38.501630783081055 h-2.93 l6.47,-11.35 l3.43,-7.63 l11.73,-2.21 l0.3900000000000003,2.5700000000000003 l-8.07,2.27 l-2.6,5.77 zm-1.28,-1 h0.81 l8.05,-10.13 l2.22,-4.93 l-2.31,0.6500000000000006 l-0.26,-0.92 l10.77,-3 l-0.12000000000000002,-0.7500000000000004 l-10.26,1.9300000000000002 l-3.25,7.24 z" style="fill:#7565f2" id="svg_12" class=""/><rect x="19.794081687927246" y="26.70163345336914" width="5.53000020980835" height="0.9599999785423279" style="fill:#aea8ef" id="svg_13" class=""/><rect x="25.76408100128174" y="21.261632919311523" width="2.549999952316284" height="0.9599999785423279" style="fill:#aea8ef" id="svg_14" class=""/><rect x="22.66408061981201" y="21.261632919311523" width="1.5199999809265137" height="0.9599999785423279" style="fill:#aea8ef" id="svg_15" class=""/><rect x="25.41408061981201" y="23.981632232666016" width="1.399999976158142" height="0.9599999785423279" style="fill:#aea8ef" id="svg_16" class=""/><rect x="19.094080924987793" y="23.981632232666016" width="4.480000019073486" height="0.9599999785423279" style="fill:#aea8ef" id="svg_17" class=""/><rect x="-35.12592029571533" y="360.01164054870605" width="4.320000171661377" height="0.9599999785423279" transform="rotate(-63.400001525878906 -269.8359375,137.15164184570315) " style="fill:#7565f2" id="svg_18" class=""/><rect x="27.804081916809082" y="3.8116326332092285" width="7.039999961853027" height="0.6700000166893005" style="fill:#f66467" id="svg_19" class=""/><polygon points="33.744083404541016,5.441632509231567 33.33407974243164,4.911632299423218 34.304080963134766,4.15163254737854 33.33407974243164,3.391632318496704 33.744083404541016,2.851632833480835 35.394081115722656,4.15163254737854 33.744083404541016,5.441632509231567 " style="fill:#f66467" id="svg_20" class=""/><polygon points="28.904083251953125,5.441632509231567 27.25408172607422,4.15163254737854 28.904083251953125,2.851632833480835 29.324081420898438,3.391632318496704 28.34408187866211,4.15163254737854 29.324081420898438,4.911632299423218 28.904083251953125,5.441632509231567 " style="fill:#f66467" id="svg_21" class=""/><rect x="30.9940824508667" y="0.6316326260566711" width="0.6700000166893005" height="7.039999961853027" style="fill:#f66467" id="svg_22" class=""/><polygon points="31.324081420898438,8.211632490158081 30.034080505371094,6.571632146835327 30.564083099365234,6.151633024215698 31.324081420898438,7.12163233757019 32.08407974243164,6.151633024215698 32.61408233642578,6.571632146835327 31.324081420898438,8.211632490158081 " style="fill:#f66467" id="svg_23" class=""/><polygon points="32.08407974243164,2.141632378101349 31.324081420898438,1.1716325283050537 30.564083099365234,2.141632378101349 30.034080505371094,1.7316324561834335 31.324081420898438,0.08163261413574219 32.61408233642578,1.7316324561834335 32.08407974243164,2.141632378101349 " style="fill:#f66467" id="svg_24" class=""/><path d="M55.654077873229994,36.001630783081055 l-0.4,-1 a5.53,5.53 0 0 1 -2,0 l-0.4,1 l-2.1,-0.8700000000000004 l0.4,-1 a5.54,5.54 0 0 1 -1.44,-1.44 l-1,0.4 l-0.8700000000000004,-2.1 l1,-0.4 a5.53,5.53 0 0 1 0,-2 l-1,-0.4 l0.8700000000000004,-2.1 l1,0.4 a5.55,5.55 0 0 1 1.44,-1.4300000000000002 l-0.4,-1 l2.1,-0.8700000000000004 l0.4,1 a5.49,5.49 0 0 1 2,0 l0.4,-1 l2.1,0.8700000000000004 l-0.4,1 a5.54,5.54 0 0 1 1.4300000000000002,1.44 l1,-0.4 l0.8700000000000004,2.1 l-1,0.4 a5.55,5.55 0 0 1 0,2 l1,0.4 l-0.8700000000000004,2.1 l-1,-0.4 a5.54,5.54 0 0 1 -1.44,1.44 l0.4,1 zm-0.07,-1.61 l0.3700000000000002,0.8900000000000005 l1.09,-0.45 l-0.3700000000000002,-0.8900000000000005 l0.2,-0.12000000000000002 a5,5 0 0 0 1.59,-1.58 l0.12000000000000002,-0.2 l0.8900000000000005,0.3700000000000002 l0.45,-1.09 L59.04407787322998,31.001630783081055 l0.05000000000000004,-0.23 a5,5 0 0 0 0,-2.24 l-0.05000000000000004,-0.23 l0.8900000000000005,-0.3700000000000002 l-0.45,-1.09 l-0.8900000000000005,0.3700000000000002 l-0.12000000000000002,-0.2 a5,5 0 0 0 -1.58,-1.59 l-0.2,-0.12000000000000002 l0.3700000000000002,-0.8900000000000005 l-1.09,-0.45 l-0.3700000000000002,0.8900000000000005 l-0.23,-0.05000000000000004 a5,5 0 0 0 -2.24,0 l-0.23,0.05000000000000004 l-0.3700000000000002,-0.8900000000000005 l-1.09,0.45 l0.3700000000000002,0.8900000000000005 l-0.2,0.12000000000000002 A5,5 0 0 0 50.04407787322998,27.001630783081055 l-0.12000000000000002,0.2 l-0.8900000000000005,-0.3700000000000002 l-0.45,1.09 l0.8900000000000005,0.3700000000000002 l-0.05000000000000004,0.23 a5,5 0 0 0 0,2.24 l0.05000000000000004,0.23 l-0.8900000000000005,0.3700000000000002 l0.45,1.09 l0.8900000000000005,-0.3700000000000002 l0.12000000000000002,0.2 a5,5 0 0 0 1.58,1.59 l0.2,0.12000000000000002 l-0.3700000000000002,0.8900000000000005 l1.09,0.45 l0.3700000000000002,-0.8900000000000005 l0.23,0.05000000000000004 a5,5 0 0 0 2.24,0 zm-1.35,-0.6500000000000006 a4.17,4.17 0 0 1 -2.38,-0.7600000000000005 l-0.27,-0.1900000000000001 l2.23,-2.23 l0.1500000000000001,0 a1,1 0 0 0 0.54,0 l0.1500000000000001,0 l2.23,2.23 l-0.27,0.1900000000000001 A4.13,4.13 0 0 1 54.23407787322998,33.771630783081065 zm-1.79,-1 a3.59,3.59 0 0 0 3.58,0 l-1.54,-1.54 a1.6,1.6 0 0 1 -0.5,0 zm5,-0.46 l-2.23,-2.23 l0,-0.1500000000000001 a1,1 0 0 0 0,-0.54 l0,-0.1500000000000001 l2.23,-2.23 l0.1900000000000001,0.27 a4.13,4.13 0 0 1 0,4.77 zm-1.62,-2.4 l1.54,1.54 a3.6500000000000004,3.6500000000000004 0 0 0 0.2100000000000001,-0.4200000000000002 a3.5700000000000003,3.5700000000000003 0 0 0 -0.2100000000000001,-3.17 l-1.54,1.54 A1.6,1.6 0 0 1 55.80407787322997,29.88163078308105 zm-4.76,2.4 l-0.1900000000000001,-0.27 a4.12,4.12 0 0 1 -0.4400000000000002,-4 a4.17,4.17 0 0 1 0.4400000000000002,-0.8 L51.04407787322998,27.001630783081055 l2.23,2.23 l0,0.1500000000000001 a1,1 0 0 0 0,0.54 l0,0.1500000000000001 zm0.08000000000000006,-4.44 a3.42,3.42 0 0 0 -0.2100000000000001,0.4200000000000002 a3.5700000000000003,3.5700000000000003 0 0 0 0.2100000000000001,3.17 l1.54,-1.54 a1.6,1.6 0 0 1 0,-0.5 zm3.11,2.59 a0.8,0.8 0 1 1 0.79,-0.8 A0.8,0.8 0 0 1 54.23407787322998,30.43163078308106 zm0,-1 a0.25,0.25 0 1 0 0.25,0.25 A0.25,0.25 0 0 0 54.23407787322998,29.38163078308105 zm-0.4200000000000002,-0.7200000000000004 l-2.23,-2.23 l0.27,-0.1900000000000001 a4.13,4.13 0 0 1 4.77,0 l0.27,0.1900000000000001 l-2.23,2.23 l-0.1500000000000001,0 a1,1 0 0 0 -0.54,0 zm0.4200000000000002,-0.6300000000000004 l0.25,0 l1.54,-1.54 a3.81,3.81 0 0 0 -0.4100000000000002,-0.2100000000000001 a3.58,3.58 0 0 0 -3.17,0.2100000000000001 l1.54,1.54 z" style="fill:#7565f2" id="svg_25" class=""/><path d="M2.204077873229977,21.251630783081055 a3.7800000000000002,3.7800000000000002 0 1 1 3.7800000000000002,3.7800000000000002 A3.7800000000000002,3.7800000000000002 0 0 1 2.204077873229977,21.251630783081055 zm6.73,0 a2.95,2.95 0 1 0 -2.95,2.95 A2.95,2.95 0 0 0 8.924077873229976,21.251630783081055 z" style="fill:#aea8ef" id="svg_26" class=""/><rect x="4.174081563949585" y="20.831632614135742" width="3.609999895095825" height="0.8399999737739563" style="fill:#aea8ef" id="svg_27" class=""/><rect x="5.564081430435181" y="19.441633224487305" width="0.8299999833106995" height="3.609999895095825" style="fill:#aea8ef" id="svg_28" class=""/></svg>