<svg xmlns="http://www.w3.org/2000/svg" viewBox="0 0 83.3 38.5"><path d="M76.96569088257,19.711768949970654 a8.112580376939254,8.112580376939254 0 0 0 -0.2861968654008422,-2.5684334074434543 a9.437158177063662,9.437158177063662 0 0 0 -1.1007571746186233,-2.4877112146380895 a13.256785572990289,13.256785572990289 0 0 0 -1.9263250555825908,-2.381304687758288 a20.147525486102865,20.147525486102865 0 0 0 -2.73721617421831,-2.2455446362219917 a32.428306364264635,32.428306364264635 0 0 0 -4.641526086308528,-2.660163171995006 a52.5281323728007,52.5281323728007 0 0 0 -5.7753059761657095,-2.3115900666991087 c-2.091438631775384,-0.7044845917559185 -4.329644886833251,-1.3392545624526584 -6.6889344310991685,-1.8896331497619696 s-4.828654805993694,-1.0163657912311959 -7.375073069944776,-1.3869540400194653 s-5.026791097425046,-0.612754827204368 -7.4007574040192114,-0.7338381164124158 A66.58847068326257,66.58847068326257 0 0 0 32.252934449561515,0.9842202191258123 A44.701748861262296,44.701748861262296 0 0 0 26.38222951826219,1.6153209992404873 a25.475190211257004,25.475190211257004 0 0 0 -4.7699477566807005,1.3025626566320374 a14.706115852904805,14.706115852904805 0 0 0 -2.8582994634263583,1.4456610893324588 a9.455504129973972,9.455504129973972 0 0 0 -2.058415916536826,1.812580147538667 a7.184275159677547,7.184275159677547 0 0 0 -1.2511939884831689,2.1538148716704395 A7.3860806416909615,7.3860806416909615 0 0 0 15.00773871386975,10.788297454395682 q0,0.38893420169858084 0.029353524656496714,0.7888759751433471 t0.09906814571567624,0.8108911186357196 c0.044030286984745,0.2751892936546562 0.1027373362977382,0.5540477778913739 0.17245195735691773,0.8365754527101537 s0.1504368138645453,0.5687245402196219 0.24583576899815948,0.8622597867845885 a18.866977972963202,18.866977972963202 0 0 0 1.7648806699718598,3.8159582053445606 a28.894875833738862,28.894875833738862 0 0 0 2.6785091249053163,3.7389052031212566 a39.920793532835404,39.920793532835404 0 0 0 3.371986144915049,3.544438102271967 a48.43331568321942,48.43331568321942 0 0 0 3.8489809205831196,3.2325569027966905 a48.499361113696544,48.499361113696544 0 0 0 4.208561597625204,2.8216075576057382 a42.76441623393351,42.76441623393351 0 0 0 4.450728176041301,2.3152592572811708 a37.67524889661342,37.67524889661342 0 0 0 4.674548801547088,1.7318579547333006 a34.251894083549494,34.251894083549494 0 0 0 4.880023474142563,1.0677344593800646 a32.56039722521887,32.56039722521887 0 0 0 4.898369427052874,0.3302271523855873 a32.65579618035249,32.65579618035249 0 0 0 4.725917469695956,-0.38893420169858084 a34.141818366087634,34.141818366087634 0 0 0 4.535119559428727,-1.0310425535594439 a36.7175901546952,36.7175901546952 0 0 0 4.322306505669126,-1.5997670937790662 a35.19854525372151,35.19854525372151 0 0 0 3.988410162701479,-2.106115394103633 a28.410542676906665,28.410542676906665 0 0 0 3.5334305305257807,-2.5464182639510815 a20.587828355950315,20.587828355950315 0 0 0 2.854630272844297,-2.935352465649662 a14.287828126549728,14.287828126549728 0 0 0 1.9593477708211497,-3.269248808617311 q0.1614443856107317,-0.39260339228064256 0.2898660559829044,-0.7815375939792224 c0.08439138338742783,-0.26051253132640806 0.15777519502866943,-0.5210250626528155 0.22015143492372513,-0.777868403397161 s0.11007571746186263,-0.5173558720707533 0.14309843270042136,-0.7741992128150985 S76.95468331082381,19.961273909550876 76.96569088257,19.711768949970654 z" style="fill:#e9f0fe" id="svg_1" class=""/><path d="M34.16898571968079,29.441839742660534 c-0.7300000000000002,0 -1.23,-0.8200000000000002 -1.3,-1.61 l0.53,0 c0.05000000000000002,0.6000000000000002 0.4200000000000001,1.13 0.77,1.13 s0.78,-0.6300000000000002 0.78,-1.28 a1.23,1.23 0 0 0 -0.12000000000000002,-0.5700000000000002 l0.4700000000000001,-0.24000000000000005 a1.75,1.75 0 0 1 0.18000000000000005,0.81 C35.47898571968079,28.491839742660517 34.93898571968077,29.441839742660534 34.16898571968079,29.441839742660534 z" style="fill:#aea8ef" id="svg_2" class=""/><path d="M32.86898571968078,29.391839742660522 l-0.28,-0.8400000000000002 a2.6900000000000004,2.6900000000000004 0 0 1 -0.14,-0.8500000000000002 a1.59,1.59 0 0 1 1.51,-1.7400000000000002 a1.45,1.45 0 0 1 1.35,0.93 l0.18000000000000005,0.4200000000000001 l-0.45,-0.05000000000000002 a2,2 0 0 0 -0.3900000000000001,0 a1.77,1.77 0 0 0 -1.55,1.29 zm1.08,-2.9 a1,1 0 0 0 -1,1.11 a2.33,2.33 0 0 1 1.58,-0.8800000000000002 A0.8900000000000002,0.8900000000000002 0 0 0 33.94898571968079,26.451839742660525 z" style="fill:#aea8ef" id="svg_3" class=""/><rect x="1.3489887714385986" y="395.2218415737152" width="1.3899999856948853" height="0.5299999713897705" transform="rotate(-87.04000091552734 -174.0010223388672,197.7318420410156) " style="fill:#aea8ef" id="svg_4" class=""/><rect x="26.238988161087036" y="40.39183974266052" width="0.5299999713897705" height="1.3899999856948853" transform="rotate(-2.7799999713897705 -152.84101867675787,-156.6681518554685) " style="fill:#aea8ef" id="svg_5" class=""/><path d="M37.048985719680786,33.10183974266053 h-5.67 v-1 l0.7100000000000002,-2.59 H33.548985719680786 l0.06000000000000002,0.18000000000000005 c0.11000000000000003,0.3400000000000002 0.3200000000000001,0.55 0.54,0.55 s0.4300000000000001,-0.22000000000000006 0.54,-0.55 l0.06000000000000002,-0.18000000000000005 h1.55 l0.7100000000000002,2.59 zm-5.14,-0.53 H36.548985719680786 v-0.4200000000000001 l-0.5900000000000002,-2.13 h-0.77 a1,1 0 0 1 -1.94,0 h-0.7300000000000002 l-0.5800000000000002,2.13 z" style="fill:#aea8ef" id="svg_6" class=""/><rect x="33.938979387283325" y="30.50183653831482" width="0.5299999713897705" height="2.3399999141693115" style="fill:#aea8ef" id="svg_7" class=""/><rect x="25.39897656440735" y="411.9618318080902" width="2.0799999237060547" height="0.800000011920929" transform="rotate(-87.18000030517578 -162.74102783203125,212.95184326171878) " style="fill:#7565f2" id="svg_8" class=""/><rect x="195.9937241880079" y="202.07501823111363" width="0.800000011920929" height="2.0799999237060547" transform="matrix(1,-0.05,0.05,1,-155.4,-159.49) " style="fill:#7565f2" id="svg_9" class=""/><polygon points="48.12897992134094,32.551835775375366 46.37897992134094,31.551835775375366 46.37897992134094,30.22183585166931 47.168980836868286,30.22183585166931 47.168980836868286,31.09183669090271 48.138978242874146,31.641835927963257 49.148980379104614,31.081836462020874 49.148980379104614,30.22183585166931 49.93898129463196,30.22183585166931 49.93898129463196,31.551835775375366 48.12897992134094,32.551835775375366 " style="fill:#7565f2" id="svg_10" class=""/><path d="M52.4089857196808,35.24183974266052 h-8.5 v-1.53 l1.06,-3.89 H47.548985719680786 l0.08000000000000003,0.2900000000000001 a0.54,0.54 0 0 0 1.06,0 l0.08000000000000003,-0.2900000000000001 h2.6100000000000003 l1.07,3.88 zm-7.71,-0.8 h6.91 v-0.6200000000000002 l-0.8800000000000002,-3.2 h-1.44 a1.31,1.31 0 0 1 -2.36,0 H45.548985719680786 l-0.8700000000000002,3.2 z" style="fill:#7565f2" id="svg_11" class=""/><path d="M50.778985719680776,28.731839742660526 h-1.31 v-0.79 h0.6800000000000004 a3.6500000000000004,3.6500000000000004 0 0 0 0,-0.5800000000000002 c0,-1.53 -0.93,-2.77 -2.06,-2.77 s-2.06,1.24 -2.06,2.77 a3.75,3.75 0 0 0 0,0.5800000000000002 h0.7400000000000002 v0.79 h-1.37 l-0.08000000000000003,-0.3000000000000001 a4.38,4.38 0 0 1 -0.13,-1.08 c0,-2 1.28,-3.56 2.8600000000000003,-3.56 s2.8600000000000003,1.6 2.8600000000000003,3.56 a4.42,4.42 0 0 1 -0.13,1.08 z" style="fill:#7565f2" id="svg_12" class=""/><path d="M48.1589857196808,29.761839742660527 c-1.19,0 -2,-1.47 -2,-2.79 a3,3 0 0 1 0,-0.54 l0.07,-0.4200000000000001 l0.4100000000000001,0.1 a6.17,6.17 0 0 0 1.48,0.17 a6.09,6.09 0 0 0 1.5,-0.18000000000000005 l0.4100000000000001,-0.1 l0.08000000000000003,0.4200000000000001 a3,3 0 0 1 0,0.54 C50.17898571968078,28.28183974266051 49.3489857196808,29.761839742660527 48.1589857196808,29.761839742660527 zm-1.23,-2.7800000000000002 c0,1 0.6100000000000002,2 1.23,2 s1.22,-1 1.23,-2 A7.34,7.34 0 0 1 46.92898571968078,26.971839742660535 z" style="fill:#7565f2" id="svg_13" class=""/><rect x="56.108983278274536" y="423.3518464565277" width="1.3899999856948853" height="0.5299999713897705" transform="rotate(-87.13999938964844 -147.1310272216797,225.92184448242188) " style="fill:#aea8ef" id="svg_14" class=""/><rect x="54.15898633003235" y="41.69182753562927" width="0.5299999713897705" height="1.3899999856948853" transform="rotate(-2.7799999713897705 -152.80102539062528,-155.31816101074224) " style="fill:#aea8ef" id="svg_15" class=""/><path d="M64.93898571968077,33.05183974266052 h-5.67 v-1 l0.7100000000000002,-2.59 h4.25 l0.7100000000000002,2.59 zm-5.14,-0.53 h4.61 v-0.4200000000000001 l-0.5900000000000002,-2.13 h-3.44 l-0.5800000000000002,2.13 z" style="fill:#aea8ef" id="svg_16" class=""/><path d="M62.048985719680786,29.391839742660522 c-0.79,0 -1.35,-1 -1.35,-1.86 a1.36,1.36 0 1 1 2.7,0 C63.39898571968078,28.391839742660522 62.8489857196808,29.391839742660522 62.048985719680786,29.391839742660522 zm0,-2.89 c-0.4800000000000001,0 -0.8200000000000002,0.4200000000000001 -0.8200000000000002,1 s0.4100000000000001,1.33 0.8200000000000002,1.33 s0.8200000000000002,-0.6600000000000003 0.8200000000000002,-1.33 S62.548985719680786,26.511839742660527 62.048985719680786,26.511839742660527 z" style="fill:#aea8ef" id="svg_17" class=""/><rect x="207.37183360899726" y="199.02536491478648" width="0.5299999713897705" height="2.3499999046325684" transform="matrix(1,-0.07,0.07,1,-159.38,-154.1) " style="fill:#aea8ef" id="svg_18" class=""/><rect x="54.56224179267883" y="418.8669583797455" width="2.3499999046325684" height="0.5299999713897705" transform="rotate(-85.87999725341797 -149.4977569580078,221.91694641113284) " style="fill:#aea8ef" id="svg_19" class=""/><polygon points="61.17897915840149,27.811836004257202 60.76897931098938,27.481836080551147 61.42897915840149,26.641835927963257 63.17897915840149,27.051835775375366 63.06897854804993,27.571836233139038 61.638978242874146,27.241836309432983 61.17897915840149,27.811836004257202 " style="fill:#aea8ef" id="svg_20" class=""/><polygon points="62.648980379104614,30.701837301254272 61.46898007392883,30.701837301254272 61.34898114204407,29.731836080551147 61.87897992134094,29.671836614608765 61.93898129463196,30.171836614608765 62.168980836868286,30.171836614608765 62.228978395462036,29.671836614608765 62.75898098945618,29.731836080551147 62.648980379104614,30.701837301254272 " style="fill:#aea8ef" id="svg_21" class=""/><path d="M33.83898571968078,22.34183974266051 l-2.15,-2.5300000000000002 h-3 V6.161839742660533 h39 v13.65 h-3.56 l-2.15,2.5300000000000002 l-2.15,-2.5300000000000002 h-9.48 l-2.15,2.5300000000000002 l-2.15,-2.5300000000000002 h-10 zm1.7000000000000002,-3.49 h10.93 l1.71,2 l1.7000000000000002,-2 h10.37 l1.7000000000000002,2 l1.7000000000000002,-2 h3 V7.121839742660512 H29.598985719680798 v11.73 h2.5300000000000002 l1.7000000000000002,2 z" style="fill:#f66467" id="svg_22" class=""/><path d="M39.14898571968078,15.08183974266052 a2.12,2.12 0 1 1 2.12,-2.12 A2.13,2.13 0 0 1 39.14898571968078,15.08183974266052 zm0,-3.29 a1.1600000000000001,1.1600000000000001 0 1 0 1.1600000000000001,1.1600000000000001 A1.17,1.17 0 0 0 39.14898571968078,11.791839742660528 z" style="fill:#aea8ef" id="svg_23" class=""/><path d="M48.1589857196808,15.08183974266052 a2.12,2.12 0 1 1 2.12,-2.12 A2.13,2.13 0 0 1 48.1589857196808,15.08183974266052 zm0,-3.29 a1.1600000000000001,1.1600000000000001 0 1 0 1.1600000000000001,1.1600000000000001 A1.17,1.17 0 0 0 48.1589857196808,11.791839742660528 z" style="fill:#7565f2" id="svg_24" class=""/><path d="M57.1589857196808,15.08183974266052 a2.12,2.12 0 1 1 2.12,-2.12 A2.12,2.12 0 0 1 57.1589857196808,15.08183974266052 zm0,-3.29 a1.1600000000000001,1.1600000000000001 0 1 0 1.1600000000000001,1.1600000000000001 A1.1600000000000001,1.1600000000000001 0 0 0 57.1589857196808,11.791839742660528 z" style="fill:#aea8ef" id="svg_25" class=""/><path d="M22.088985719680778,17.521839742660518 H9.028985719680776 v-2.7800000000000002 h13.06 l3.43,1.3900000000000001 zm-12.4,-0.6600000000000003 h12.27 l1.81,-0.7300000000000002 l-1.81,-0.7300000000000002 H9.688985719680772 z" style="fill:#aea8ef" id="svg_26" class=""/><rect x="11.438979387283325" y="15.071836233139038" width="0.6600000262260437" height="2.119999885559082" style="fill:#aea8ef" id="svg_27" class=""/><rect x="14.198979616165161" y="15.071836233139038" width="0.6600000262260437" height="2.119999885559082" style="fill:#aea8ef" id="svg_28" class=""/><rect x="21.06898045539856" y="15.071836233139038" width="0.6600000262260437" height="2.119999885559082" style="fill:#aea8ef" id="svg_29" class=""/><rect x="12.578979730606079" y="15.721836805343628" width="0.47999998927116394" height="0.6600000262260437" style="fill:#aea8ef" id="svg_30" class=""/><path d="M76.02898571968078,22.78183974266051 h-1.6600000000000001 v-1 a2.74,2.74 0 0 1 -0.5,-0.21000000000000005 l-0.6800000000000004,0.6800000000000004 l-1.18,-1.18 l0.6800000000000004,-0.6800000000000004 a2.75,2.75 0 0 1 -0.21000000000000005,-0.5 h-1 v-1.6600000000000001 h1 a2.79,2.79 0 0 1 0.21000000000000005,-0.5 l-0.6800000000000004,-0.6800000000000004 l1.18,-1.18 l0.6800000000000004,0.6800000000000004 a2.75,2.75 0 0 1 0.5,-0.21000000000000005 v-1 h1.6600000000000001 v1 a2.79,2.79 0 0 1 0.5,0.21000000000000005 l0.6800000000000004,-0.6800000000000004 l1.18,1.18 l-0.6800000000000004,0.6800000000000004 a2.79,2.79 0 0 1 0.21000000000000005,0.5 h1 v1.6600000000000001 h-1 a2.75,2.75 0 0 1 -0.21000000000000005,0.5 l0.6800000000000004,0.6800000000000004 l-1.18,1.18 l-0.6800000000000004,-0.6800000000000004 a2.8600000000000003,2.8600000000000003 0 0 1 -0.5,0.21000000000000005 zm-1.1,-0.56 h0.54 V21.391839742660522 l0.22000000000000006,0 a2.25,2.25 0 0 0 0.7300000000000002,-0.3000000000000001 l0.19000000000000006,-0.12000000000000002 l0.5900000000000002,0.5900000000000002 l0.3800000000000001,-0.3800000000000001 l-0.5900000000000002,-0.5900000000000002 l0.12000000000000002,-0.19000000000000006 a2.26,2.26 0 0 0 0.3000000000000001,-0.7300000000000002 l0,-0.22000000000000006 h0.8400000000000002 v-0.54 h-0.8400000000000002 l0,-0.22000000000000006 a2.26,2.26 0 0 0 -0.3000000000000001,-0.7300000000000002 l-0.12000000000000002,-0.19000000000000006 l0.5900000000000002,-0.5900000000000002 l-0.3800000000000001,-0.3800000000000001 l-0.5900000000000002,0.5900000000000002 l-0.19000000000000006,-0.12000000000000002 a2.26,2.26 0 0 0 -0.7300000000000002,-0.3000000000000001 l-0.22000000000000006,0 v-0.8400000000000002 h-0.54 v0.8400000000000002 l-0.22000000000000006,0 a2.26,2.26 0 0 0 -0.7300000000000002,0.3000000000000001 l-0.19000000000000006,0.12000000000000002 l-0.5900000000000002,-0.5900000000000002 l-0.3800000000000001,0.3800000000000001 l0.5900000000000002,0.5900000000000002 l-0.12000000000000002,0.19000000000000006 a2.22,2.22 0 0 0 -0.3000000000000001,0.7300000000000002 l0,0.22000000000000006 h-0.8400000000000002 V19.391839742660522 h0.8400000000000002 l0,0.22000000000000006 a2.24,2.24 0 0 0 0.3000000000000001,0.7300000000000002 l0.12000000000000002,0.19000000000000006 l-0.5900000000000002,0.5900000000000002 l0.3800000000000001,0.3800000000000001 l0.5900000000000002,-0.5900000000000002 l0.19000000000000006,0.12000000000000002 a2.26,2.26 0 0 0 0.7300000000000002,0.3000000000000001 l0.22000000000000006,0 zm0.27,-1.56 a1.54,1.54 0 1 1 1.54,-1.54 A1.54,1.54 0 0 1 75.19898571968079,20.661839742660533 zm0,-2.52 a1,1 0 1 0 1,1 A1,1 0 0 0 75.19898571968079,18.141839742660522 z" style="fill:#f66467" id="svg_31" class=""/><rect x="74.8389790058136" width="0.7099999785423279" height="3.5" style="fill:#aea8ef" id="svg_32" class="" y="3.59183669090271"/><rect x="73.44897961616516" y="4.981836676597595" width="3.5" height="0.7099999785423279" style="fill:#aea8ef" id="svg_33" class=""/><path d="M21.998985719680775,26.891839742660522 l-0.4,-0.6400000000000002 a6.48,6.48 0 0 0 -2,-2 l-0.6400000000000002,-0.4100000000000001 L19.548985719680786,23.391839742660522 a6.47,6.47 0 0 0 2,-2 l0.4,-0.6400000000000002 l0.4100000000000001,0.6400000000000002 a6.49,6.49 0 0 0 2,2 l0.6400000000000002,0.4100000000000001 l-0.6400000000000002,0.4100000000000001 a6.5,6.5 0 0 0 -2,2 zm-1.35,-3.09 a7.79,7.79 0 0 1 0.7200000000000002,0.6300000000000002 a7.41,7.41 0 0 1 0.6300000000000002,0.7200000000000002 a7.42,7.42 0 0 1 0.6300000000000002,-0.7200000000000002 a7.53,7.53 0 0 1 0.7200000000000002,-0.6300000000000002 a7.53,7.53 0 0 1 -0.7200000000000002,-0.6300000000000002 a7.3100000000000005,7.3100000000000005 0 0 1 -0.6300000000000002,-0.7200000000000002 a7.29,7.29 0 0 1 -0.6300000000000002,0.7200000000000002 A7.79,7.79 0 0 1 20.64898571968078,23.80183974266052 z" style="fill:#f66467" id="svg_34" class=""/><path d="M3.6189857196807793,7.571839742660529 h-0.17 a2.29,2.29 0 0 1 -1,-0.51 l0.56,-0.78 h0 a1.62,1.62 0 0 0 0.5700000000000002,0.3300000000000001 c0.18000000000000005,0 0.51,-0.22000000000000006 0.77,-0.4100000000000001 a1.6700000000000004,1.6700000000000004 0 0 1 1.6300000000000003,-0.3500000000000001 a3.18,3.18 0 0 1 0.6800000000000004,0.4300000000000001 a2.4,2.4 0 0 0 0.4700000000000001,0.3000000000000001 c0.14,0.06000000000000002 0.46,-0.15000000000000005 0.7200000000000002,-0.3200000000000001 a2.18,2.18 0 0 1 1.45,-0.5 a2.27,2.27 0 0 1 1,0.51 l0.3200000000000001,0.23 a0.5900000000000002,0.5900000000000002 0 0 0 0.6400000000000002,0 l0.3300000000000001,-0.23 a2.3,2.3 0 0 1 1,-0.51 a2.09,2.09 0 0 1 1.49,0.5900000000000002 c0.2900000000000001,0.21000000000000005 0.54,0.3000000000000001 0.6900000000000004,0.24000000000000005 a2.35,2.35 0 0 0 0.4700000000000001,-0.3000000000000001 a3.19,3.19 0 0 1 0.6700000000000004,-0.4200000000000001 a1.73,1.73 0 0 1 1.61,0.4 l-0.52,0.8 c-0.26,-0.17 -0.5900000000000002,-0.3800000000000001 -0.7200000000000002,-0.3200000000000001 a2.37,2.37 0 0 0 -0.46,0.3000000000000001 a3.14,3.14 0 0 1 -0.6800000000000004,0.4300000000000001 a1.6500000000000004,1.6500000000000004 0 0 1 -1.61,-0.3400000000000002 c-0.28,-0.21000000000000005 -0.6200000000000002,-0.45 -0.79,-0.4200000000000001 a1.6,1.6 0 0 0 -0.5700000000000002,0.3300000000000001 c-0.12000000000000002,0.09000000000000004 -0.25,0.19000000000000006 -0.3900000000000001,0.28 a1.55,1.55 0 0 1 -1.6500000000000004,0 c-0.14,-0.09000000000000004 -0.26,-0.18000000000000005 -0.3900000000000001,-0.27 a0.8400000000000002,0.8400000000000002 0 0 0 -1.37,0 a1.7400000000000002,1.7400000000000002 0 0 1 -1.61,0.4 a3.16,3.16 0 0 1 -0.6700000000000004,-0.4200000000000001 a2.38,2.38 0 0 0 -0.4700000000000001,-0.3000000000000001 a0.8200000000000002,0.8200000000000002 0 0 0 -0.6800000000000004,0.22000000000000006 A2.36,2.36 0 0 1 3.6189857196807793,7.571839742660529 z" style="fill:#f66467" id="svg_35" class=""/></svg>