<svg xmlns="http://www.w3.org/2000/svg" viewBox="0 0 95.6 56.7" style=""><path d="M0.3045302464789869,22.631580348677183 a13.617615860723411,13.66432612258438 0 0 1 0.9687552107871142,-4.037438316737746 a15.25789456989705,15.310231209298264 0 0 1 2.201716388152533,-3.7170943736860504 a20.558526774374275,20.629045298242794 0 0 1 3.3961475287252814,-3.3636114020428 A30.22956600933427,30.333257504136387 0 0 1 11.467232334412328,8.553016368698362 a47.590099729916986,47.753340200430294 0 0 1 7.546382920392805,-3.1868699162211755 a76.02526688290695,76.28604381775888 0 0 1 9.18115733859606,-2.3804868871600116 a104.8732558586755,105.23298529248191 0 0 1 10.458152843724529,-1.4967794580518865 c3.6658577862739667,-0.34243662877939907 7.480331428748229,-0.5523171431925782 11.393882308689353,-0.5523171431925782 s7.7060073585338635,0.1656951429577737 11.294805071222491,0.49156225744139515 a96.04437314218384,96.37381831567293 0 0 1 10.182938295205462,1.452594086596481 a65.08273643378885,65.30597901109043 0 0 1 8.718796897084028,2.347347858568457 a37.84750471234203,37.97732676592167 0 0 1 6.9188937497693335,3.170300401925398 a22.507045777889264,22.58424798514452 0 0 1 4.007123826437609,2.9548967160802926 a15.08726154981523,15.139012894908564 0 0 1 2.7246240303387594,3.358088230610875 a11.977337151549778,12.0184210358705 0 0 1 1.4366199432695275,3.7226175451179757 a12.555287703439816,12.598354036222705 0 0 1 0.1376072742595333,4.048484659601597 c-0.04953861873343209,0.4142378573944342 -0.11559011037800808,0.8284757147888678 -0.2091630568744908,1.2482367436152266 s-0.19265018396334688,0.8450452290846449 -0.3192488762821174,1.2758526007748556 s-0.26971025754868555,0.8616147433804228 -0.4348389866601254,1.2979452865025587 s-0.3467703311340246,0.8781842576761995 -0.5504290970381335,1.3200379722302615 a30.405703320386472,30.50999898995801 0 0 1 -3.4511904384290943,5.688866574883555 a45.21224603071225,45.367330141838366 0 0 1 -4.810750308113284,5.362999460399934 a61.0315782795882,61.240924837193056 0 0 1 -5.818035555693068,4.893529888686242 a72.78323950135233,73.0328958443546 0 0 1 -6.467541890198064,4.285981031174406 a71.87503149123943,72.12157255808685 0 0 1 -6.924398040739715,3.551399230728277 a62.48471109576887,62.699042095221465 0 0 1 -7.1830997163476376,2.684261315915929 a54.36037762348602,54.54684106169901 0 0 1 -7.397767064192509,1.7011368010331411 a49.23037843909062,49.399245287144176 0 0 1 -7.568400084274331,0.5965025146479843 a46.830507576004365,46.99114254282454 0 0 1 -7.441801391955561,-0.5909793432160592 a47.4690053285686,47.631830428927934 0 0 1 -7.034483860147341,-1.6956136296012148 a50.33123663316689,50.50387957352933 0 0 1 -6.6051491644575995,-2.6787381444840035 a55.175012687102466,55.36427043362403 0 0 1 -6.1703101777974725,-3.5348297164324993 A53.89251289100361,54.077371489985325 0 0 1 11.467232334412328,43.63620130429093 a44.58475686008878,44.73768859859882 0 0 1 -4.788733144231758,-4.871437202958539 a33.26243033401438,33.376524963127494 0 0 1 -3.6878749501554924,-5.34090677467223 a23.78954557398811,23.871146928783222 0 0 1 -2.2677678797971086,-5.666773889155853 q-0.15962443814105884,-0.6627805718310937 -0.2752145485190667,-1.3145148007983363 c-0.07706007358533869,-0.436330543122137 -0.12659869231877072,-0.8671379148123489 -0.16512872911144022,-1.2924221150706328 s-0.055042909703813356,-0.8505684005165711 -0.055042909703813356,-1.2703294293429295 S0.2660002096863211,23.045818206071615 0.3045302464789869,22.631580348677183 z" style="fill:#e9f0fe" id="svg_1" class=""/><path d="M40.5578731906414,38.72468301773071 a5.93,5.93 0 0 1 -4.76,-1.78 c-3.5300000000000002,-4.16 1.6900000000000006,-13.94 8.71,-19.9 a25.13,25.13 0 0 1 16.44,-5.91 a21.27,21.27 0 0 1 4.36,0.3900000000000002 l0.3400000000000003,0.08000000000000004 l0,0.35000000000000014 a25.39,25.39 0 0 1 -8.83,19.63 C51.897873190641405,35.784683017730714 45.1978731906414,38.72468301773071 40.5578731906414,38.72468301773071 zm20.4,-26.64 A24.18,24.18 0 0 0 45.1378731906414,17.764683017730718 a32.5,32.5 0 0 0 -8,10.21 c-1.75,3.6900000000000004 -2,6.73 -0.6000000000000003,8.34 a5,5 0 0 0 4,1.45 c4.43,0 10.88,-2.85 15.68,-6.92 a24.41,24.41 0 0 0 8.5,-18.46 A22.63,22.63 0 0 0 60.95787319064141,12.084683017730711 z" style="fill:#7565f2;stroke:#7565f2;stroke-miterlimit:10;stroke-width:0.5px" id="svg_2" class=""/><path d="M52.87787319064141,27.754683017730713 A5.3,5.3 0 1 1 56.3378731906414,26.494683017730708 A5.3,5.3 0 0 1 52.87787319064141,27.754683017730713 zm0,-9.65 a4.35,4.35 0 1 0 3.3200000000000003,1.53 A4.35,4.35 0 0 0 52.87787319064141,18.104683017730707 z" style="fill:#7565f2;stroke:#7565f2;stroke-miterlimit:10;stroke-width:0.5px" id="svg_3" class=""/><path d="M52.87787319064141,25.714683017730707 a3.27,3.27 0 1 1 2.12,-0.78 A3.27,3.27 0 0 1 52.87787319064141,25.714683017730707 zm0,-5.59 a2.31,2.31 0 1 0 1.77,0.8200000000000003 A2.3200000000000003,2.3200000000000003 0 0 0 52.87787319064141,20.13468301773071 z" style="fill:#7565f2;stroke:#7565f2;stroke-miterlimit:10;stroke-width:0.5px" id="svg_4" class=""/><polygon points="41.82787227630615,49.14468240737915 35.76787090301514,42.00467920303345 40.627875328063965,37.87468194961548 41.24787425994873,38.60468149185181 37.11787128448486,42.11467981338501 41.847872734069824,47.68467950820923 51.35787487030029,36.9546799659729 50.17787456512451,35.56468057632446 50.90787410736084,34.9446816444397 52.627875328063965,36.97468042373657 41.82787227630615,49.14468240737915 " style="fill:#7565f2;stroke:#7565f2;stroke-miterlimit:10;stroke-width:0.5px" id="svg_5" class=""/><polygon points="30.797871589660645,36.15468072891235 24.73787212371826,29.00468111038208 38.5078706741333,20.334681034088135 40.227871894836426,22.354681491851807 39.4978723526001,22.974680423736572 38.317872047424316,21.584681034088135 26.187870979309082,29.224680423736572 30.907872200012207,34.79468011856079 35.047871589660645,31.29468011856079 35.66787242889404,32.02468156814575 30.797871589660645,36.15468072891235 " style="fill:#7565f2;stroke:#7565f2;stroke-miterlimit:10;stroke-width:0.5px" id="svg_6" class=""/><rect x="-20.53935718536377" y="109.25467538833618" width="15.149999618530273" height="0.9599999785423279" transform="rotate(-40.29999923706055 -90.04936218261719,0.12468099594116065) " style="fill:#7565f2;stroke:#7565f2;stroke-miterlimit:10;stroke-width:0.5px" id="svg_7" class=""/><rect x="25.64063549041748" y="96.30468606948853" width="0.9599999785423279" height="9.380000114440918" transform="rotate(-40.31999969482422 -72.85936737060548,9.934680938720707) " style="fill:#7565f2;stroke:#7565f2;stroke-miterlimit:10;stroke-width:0.5px" id="svg_8" class=""/><path d="M40.0478731906414,28.574683017730706 l-0.8500000000000003,-0.44000000000000017 a26,26 0 0 1 2.7800000000000002,-4.27 l0.7500000000000003,0.6000000000000003 A25.07,25.07 0 0 0 40.0478731906414,28.574683017730706 z" style="fill:#7565f2;stroke:#7565f2;stroke-miterlimit:10;stroke-width:0.5px" id="svg_9" class=""/><rect x="-21.819363594055176" y="98.9546799659729" width="1.0199999809265137" height="0.9599999785423279" transform="rotate(-40.33000183105469 -89.66936492919922,-6.365318775177013) " style="fill:#7565f2;stroke:#7565f2;stroke-miterlimit:10;stroke-width:0.5px" id="svg_10" class=""/><rect x="-16.84936237335205" y="97.78468179702759" width="1.0199999809265137" height="0.9599999785423279" transform="rotate(-40.29999923706055 -87.469367980957,-5.185319423675549) " style="fill:#7565f2;stroke:#7565f2;stroke-miterlimit:10;stroke-width:0.5px" id="svg_11" class=""/><rect x="-37.692124366760254" y="109.37468576431274" width="7.789999961853027" height="0.9599999785423279" transform="rotate(-40.29999923706055 -97.8321304321289,-6.675319194793697) " style="fill:#7565f2;stroke:#7565f2;stroke-miterlimit:10;stroke-width:0.5px" id="svg_12" class=""/><rect x="-47.17212772369385" y="111.9846863746643" width="3.049999952316284" height="0.9599999785423279" transform="rotate(-40.27000045776367 -103.03213500976564,-9.705319404602058) " style="fill:#7565f2;stroke:#7565f2;stroke-miterlimit:10;stroke-width:0.5px" id="svg_13" class=""/><rect x="-39.489365577697754" y="119.65467691421509" width="2.119999885559082" height="0.9599999785423279" transform="rotate(-40.349998474121094 -102.78936767578126,-4.435319423675538) " style="fill:#7565f2;stroke:#7565f2;stroke-miterlimit:10;stroke-width:0.5px" id="svg_14" class=""/><rect x="-32.879361152648926" y="117.9346833229065" width="3.390000104904175" height="0.9599999785423279" transform="rotate(-40.310001373291016 -99.57936096191408,-2.7353186607360835) " style="fill:#7565f2;stroke:#7565f2;stroke-miterlimit:10;stroke-width:0.5px" id="svg_15" class=""/><rect x="-42.60212421417236" y="114.58467721939087" width="12.529999732971191" height="0.9599999785423279" transform="rotate(-40.349998474121094 -100.48213195800783,-5.5253195762634215) " style="fill:#7565f2;stroke:#7565f2;stroke-miterlimit:10;stroke-width:0.5px" id="svg_16" class=""/><path d="M81.06787319064141,13.54468301773072 h-7.38 a2.4,2.4 0 1 1 0.06000000000000003,-4.8100000000000005 a3.7800000000000002,3.7800000000000002 0 0 1 7.26,0 h0.06000000000000003 a2.4,2.4 0 0 1 0,4.8100000000000005 zm-7.38,-4.09 a1.6800000000000006,1.6800000000000006 0 1 0 0,3.36 h7.38 a1.6800000000000006,1.6800000000000006 0 1 0 -0.28,-3.34 l-0.35000000000000014,0.06000000000000003 l-0.07,-0.35000000000000014 a3.05,3.05 0 0 0 -6,0 l-0.07,0.35000000000000014 l-0.35000000000000014,-0.06000000000000003 z" style="fill:#f66467;stroke:#f66467;stroke-miterlimit:10;stroke-width:0.25px" id="svg_17" class=""/><rect x="37.69787120819092" y="11.744680881500244" width="0.699999988079071" height="3.450000047683716" style="fill:#aea8ef" id="svg_18" class=""/><rect x="36.32787227630615" y="13.114680767059326" width="3.450000047683716" height="0.699999988079071" style="fill:#aea8ef" id="svg_19" class=""/><rect x="46.697875022888184" width="0.699999988079071" height="3.450000047683716" style="fill:#aea8ef" id="svg_20" class="" y="5.744680881500244"/><rect x="45.32787227630615" y="7.114680886268616" width="3.450000047683716" height="0.699999988079071" style="fill:#aea8ef" id="svg_21" class=""/><rect x="70.15787410736084" y="20.744680881500244" width="0.699999988079071" height="3.450000047683716" style="fill:#aea8ef" id="svg_22" class=""/><rect x="68.78787517547607" y="22.114681720733643" width="3.450000047683716" height="0.699999988079071" style="fill:#aea8ef" id="svg_23" class=""/><path d="M69.7278731906414,30.88468301773071 h-1.75 v-1.4 h1.75 zm-3.5,0 h-1.75 v-1.4 h1.75 zm-3.5,0 H60.9678731906414 v-1.4 h1.75 z" style="fill:#aea8ef" id="svg_24" class=""/><path d="M24.337873190641403,20.47468301773071 v1.4 H13.897873190641405 a5.61,5.61 0 1 1 0,-11.21 H18.337873190641403 v1.4 H13.897873190641405 a4.2,4.2 0 1 0 0,8.41 z" style="fill:#aea8ef" id="svg_25" class=""/><path d="M35.037873190641406,20.47468301773071 v1.4 H33.3378731906414 v-1.4 zm-3.5,0 v1.4 H29.787873190641406 v-1.4 zm-3.5,0 v1.4 H26.2778731906414 v-1.4 z" style="fill:#aea8ef" id="svg_26" class=""/><path d="M78.2578731906414,29.484683017730717 a4.25,4.25 0 0 0 4.25,-4.25 v-0.7200000000000003 a5.65,5.65 0 0 1 5.65,-5.65 h2.6 c0,0.47000000000000014 0,0.93 0,1.4 h-2.5700000000000003 a4.26,4.26 0 0 0 -4.25,4.25 V25.254683017730713 a5.65,5.65 0 0 1 -5.6400000000000015,5.65 H71.3378731906414 v-1.4 z" style="fill:#aea8ef" id="svg_27" class=""/></svg>