<svg xmlns="http://www.w3.org/2000/svg" viewBox="0 0 67.3 46.3"><path d="M65.03601161125084,19.678990151442985 a12.472430993318557,12.472430993318557 0 0 0 -0.42743080854415894,-3.269845685362816 a12.767358251214027,12.767358251214027 0 0 0 -1.2822924256324768,-3.073227513432503 a15.263554173111915,15.263554173111915 0 0 0 -2.1371540427207947,-2.8381405687332157 a20.298689097762107,20.298689097762107 0 0 0 -2.9620955032110214,-2.5645848512649536 a29.779104431271552,29.779104431271552 0 0 0 -4.971020303368569,-2.880883649587631 a45.495735261440274,45.495735261440274 0 0 0 -6.137906410694122,-2.3038520580530166 a61.579956586956975,61.579956586956975 0 0 0 -7.069705573320388,-1.654157229065895 a74.24045713603496,74.24045713603496 0 0 0 -7.7621434831619265,-0.9275248545408249 a72.23580664396286,72.23580664396286 0 0 0 -7.757869175076484,-0.09830908596515656 a57.143224794268605,57.143224794268605 0 0 0 -7.052608340978622,0.7180837583541871 a39.900665977597235,39.900665977597235 0 0 0 -6.107986254096031,1.5002821379899978 a24.679854885339736,24.679854885339736 0 0 0 -4.924002914428711,2.2311888206005097 a16.135513022542,16.135513022542 0 0 0 -2.915078114271164,2.192720047831535 a12.18177804350853,12.18177804350853 0 0 0 -2.0644908052682878,2.5645848512649536 a10.813999456167222,10.813999456167222 0 0 0 -1.2053548800945284,2.9193524223566056 a11.86120493710041,11.86120493710041 0 0 0 -0.33767033874988556,3.231376912593842 q0,0.500094045996666 0.06838892936706545,1.0087367081642151 t0.1410521668195725,1.0343825566768645 c0.05984031319618226,0.34621895492076876 0.13250355064868932,0.7009865260124207 0.21798971235752107,1.0557540971040726 s0.1837952476739884,0.7138094502687455 0.2949272578954698,1.0771256375312805 a25.321001098155975,25.321001098155975 0 0 0 2.0174734163284302,4.701738893985748 A34.55778087079525,34.55778087079525 0 0 0 5.66159799638173,28.804637913860777 a43.59794247150421,43.59794247150421 0 0 0 3.6844535696506506,4.16745038330555 a49.19301175534725,49.19301175534725 0 0 0 4.16745038330555,3.7100994181632996 A46.20527040362358,46.20527040362358 0 0 0 18.05709144416234,39.828078466214635 A38.468772768974304,38.468772768974304 0 0 0 22.793024802831624,42.30717715577076 a32.45054698467255,32.45054698467255 0 0 0 4.958197379112243,1.6840773856639861 a28.778916339278222,28.778916339278222 0 0 0 5.129169702529907,0.8078442281484605 a27.543641302585602,27.543641302585602 0 0 0 5.129169702529907,-0.14532647490501413 a28.800287879705426,28.800287879705426 0 0 0 4.915454298257828,-1.0472054809331894 a32.15134541869163,32.15134541869163 0 0 0 4.701738893985748,-1.8550497090816498 a37.40447005569935,37.40447005569935 0 0 0 4.43673179268837,-2.5645848512649536 a38.9816897392273,38.9816897392273 0 0 0 4.064866989254951,-3.171536599397659 a34.47656901717186,34.47656901717186 0 0 0 3.569047251343727,-3.688727877736092 a27.70606500983238,27.70606500983238 0 0 0 2.842414876818657,-4.11188437819481 a21.40573489189148,21.40573489189148 0 0 0 1.8892441737651824,-4.43673179268837 c0.09830908596515656,-0.34621895492076876 0.18806955575943,-0.6924379098415375 0.26500710129737864,-1.0386568647623062 s0.1410521668195725,-0.6881636017560959 0.19234386384487154,-1.0258339405059813 s0.08976046979427339,-0.6796149855852127 0.11540631830692293,-1.0130110162496566 S65.03601161125084,20.01238618210743 65.03601161125084,19.678990151442985 z" style="fill:#e9f0fe" id="svg_1" class=""/><path d="M32.84000122070313,31.709996948242193 a12.88,12.88 0 1 1 12.88,-12.88 A12.9,12.9 0 0 1 32.84000122070313,31.709996948242193 zm0,-24.81 a11.93,11.93 0 1 0 11.93,11.93 A11.94,11.94 0 0 0 32.84000122070313,6.89999694824219 z" style="fill:#7565f2" id="svg_2"/><path d="M41.43000122070313,27.449996948242188 l-0.42000000000000004,-1.51 a2,2 0 0 0 -1.9,-1.45 l-12.55,0 h0 a2,2 0 0 0 -1.8900000000000001,1.44 l-0.42000000000000004,1.52 l-0.92,-0.25 l0.41000000000000003,-1.52 a2.92,2.92 0 0 1 2.81,-2.15 h0 l12.55,0 a2.94,2.94 0 0 1 2.8200000000000003,2.15 l0.42000000000000004,1.51 z" style="fill:#7565f2" id="svg_3"/><path d="M32.65000122070313,22.839996948242188 c-3,0 -5.07,-3.8200000000000003 -5.07,-7.25 s2.13,-5.94 5.07,-5.94 s5.07,2.5 5.07,5.94 S35.64000122070311,22.839996948242188 32.65000122070313,22.839996948242188 zm0,-12.24 c-2.42,0 -4.11,2 -4.11,5 c0,3.3 2,6.3 4.11,6.3 s4.11,-3 4.11,-6.3 C36.76000122070312,12.64999694824219 35.07000122070312,10.599996948242193 32.65000122070313,10.599996948242193 z" style="fill:#7565f2" id="svg_4"/><rect x="26.350006103515625" y="36.12000274658203" width="0.9599999785423279" height="5" transform="rotate(-3.740000009536743 -121.66999816894537,-71.87999725341795) " style="fill:#7565f2" id="svg_5"/><rect x="144" y="110.01000213623047" width="4.980000019073486" height="0.9599999785423279" transform="matrix(0.07,-1,1,0.07,-88.09,167.65) " style="fill:#7565f2" id="svg_6"/><polygon points="28.45 16.37 27.7 15.78 30.24 12.56 37.29 14.18 37.08 15.12 30.62 13.63 28.45 16.37" style="fill:#7565f2" id="svg_7"/><polygon points="34.11 26.68 31.2 26.68 30.78 24.07 31.73 23.92 32.02 25.72 33.29 25.72 33.59 23.93 34.53 24.08 34.11 26.68" style="fill:#7565f2" id="svg_8"/><rect x="32.310001373291016" y="17.450000762939453" width="0.9599999785423279" height="2.4100000858306885" style="fill:#7565f2" id="svg_9"/><path d="M36.000001220703126,17.069996948242192 a14.33,14.33 0 0 0 -2.77,-0.29000000000000004 l0,-1 a15.08,15.08 0 0 1 3,0.32000000000000006 z" style="fill:#7565f2" id="svg_10"/><path d="M29.56000122070313,17.03999694824219 l-0.2,-0.9400000000000001 a16.34,16.34 0 0 1 2.83,-0.27 l0,1 A15.22,15.22 0 0 0 29.56000122070313,17.03999694824219 z" style="fill:#7565f2" id="svg_11"/><polygon points="35.76 27.1 33.96 24.26 34.77 23.75 35.74 25.28 36.66 23.76 37.48 24.25 35.76 27.1" style="fill:#7565f2" id="svg_12"/><polygon points="29.93 27.1 28.21 24.24 29.03 23.75 29.95 25.28 30.92 23.74 31.73 24.25 29.93 27.1" style="fill:#7565f2" id="svg_13"/><rect x="24.450000762939453" y="16.920000076293945" width="0.9599999785423279" height="0.7699999809265137" style="fill:#7565f2" id="svg_14"/><rect x="24.450000762939453" y="14.170000076293945" width="0.9599999785423279" height="0.7699999809265137" style="fill:#7565f2" id="svg_15"/><polygon points="23.62 31.54 20.13 31.54 20.13 28.05 21.09 28.05 21.09 30.58 23.62 30.58 23.62 31.54" style="fill:#7565f2" id="svg_16"/><path d="M57.63000122070312,24.26999694824218 a3.8,3.8 0 0 1 -1,-0.13 a3.66,3.66 0 0 1 -1.71,-1 l-0.24000000000000002,-0.25 l2.84,-2.84 l3.87,1 l-0.09000000000000002,0.33000000000000007 A3.8200000000000003,3.8200000000000003 0 0 1 57.63000122070312,24.26999694824218 zm-2,-1.37 a2.94,2.94 0 0 0 1.1400000000000001,0.5700000000000001 a3.11,3.11 0 0 0 3.71,-1.87 l-2.8,-0.7500000000000001 z" style="fill:#aea8ef" id="svg_17"/><path d="M62.54000122070312,20.459996948242193 l-3.87,-1 l-1,-3.87 l0.33000000000000007,-0.09000000000000002 a3.8,3.8 0 0 1 4.67,2.6900000000000004 a3.66,3.66 0 0 1 0,2 zm-3.31,-1.6 l2.8,0.7500000000000001 a2.94,2.94 0 0 0 -0.07,-1.28 a3.12,3.12 0 0 0 -3,-2.31 a3.09,3.09 0 0 0 -0.47000000000000003,0 z" style="fill:#f66467" id="svg_18"/><path d="M55.220001220703125,23.39999694824219 l-0.25,-0.24000000000000002 a3.8200000000000003,3.8200000000000003 0 0 1 0,-5.39 a3.68,3.68 0 0 1 1.71,-1 l0.33000000000000007,-0.09000000000000002 l1,3.87 zm1.31,-5.84 a2.92,2.92 0 0 0 -1.07,0.7000000000000001 a3.12,3.12 0 0 0 -0.23,4.15 l2.05,-2 z" style="fill:#aea8ef" id="svg_19"/><rect x="47.029998779296875" y="7.949999809265137" width="0.7400000095367432" height="0.9300000071525574" style="fill:#f66467" id="svg_20"/><rect x="47.029998779296875" y="5.440000057220459" width="0.7400000095367432" height="0.9300000071525574" style="fill:#f66467" id="svg_21"/><rect x="48.189998626708984" y="6.789999961853027" width="0.7799999713897705" height="0.7400000095367432" style="fill:#f66467" id="svg_22"/><rect x="45.81999969482422" y="6.789999961853027" width="0.7900000214576721" height="0.7400000095367432" style="fill:#f66467" id="svg_23"/><path d="M54.33000122070314,1.3999969482421903 L52.54000122070312,3.1999969482421875 l1.45,0.8700000000000001 l-5.37,1.6500000000000001 l1.6500000000000001,-5.37 l0.8700000000000001,1.46 l1.79,-1.79 zm-3.84,0.7400000000000001 l-0.7600000000000001,2.46 l2.46,-0.7600000000000001 l-0.8400000000000001,-0.5 l1.94,-1.94 l-0.36000000000000004,-0.36000000000000004 l-1.94,1.94 z" style="fill:#f66467" id="svg_24"/><path d="M7.800001220703123,16.78999694824219 h-3.83 V13.449996948242188 h3.83 zM4.560001220703128,16.199996948242188 H7.220001220703125 V14.039996948242191 h-2.66 z" style="fill:#aea8ef" id="svg_25"/><path d="M4.220001220703125,16.489996948242194 H2.720001220703125 a0.7600000000000001,0.7600000000000001 0 0 1 -0.7600000000000001,-0.7600000000000001 V14.50999694824219 a0.7600000000000001,0.7600000000000001 0 0 1 0.7600000000000001,-0.7600000000000001 H4.220001220703125 v0.5900000000000001 H2.720001220703125 a0.18000000000000002,0.18000000000000002 0 0 0 -0.17,0.17 v1.23 a0.18000000000000002,0.18000000000000002 0 0 0 0.17,0.17 H4.220001220703125 z" style="fill:#aea8ef" id="svg_26"/><rect x="7.510000228881836" y="13.739999771118164" width="5.340000152587891" height="0.5899999737739563" style="fill:#aea8ef" id="svg_27"/><rect x="7.510000228881836" y="15.899999618530273" width="5.340000152587891" height="0.5899999737739563" style="fill:#aea8ef" id="svg_28"/><path d="M12.560001220703128,16.53999694824219 V13.699996948242188 l4.17,1.42 zm0.5900000000000001,-2 v1.2 l1.77,-0.6000000000000001 z" style="fill:#aea8ef" id="svg_29"/><rect x="7.510000228881836" y="14.819999694824219" width="5.340000152587891" height="0.5899999737739563" style="fill:#aea8ef" id="svg_30"/><path d="M63.980001220703116,29.00999694824219 a2.35,2.35 0 0 1 -1.22,-0.5 c-0.31000000000000005,-0.2 -0.6400000000000001,-0.41000000000000003 -0.8300000000000001,-0.33000000000000007 a2.55,2.55 0 0 0 -0.49000000000000005,0.32000000000000006 a3,3 0 0 1 -0.6600000000000001,0.41000000000000003 a1.55,1.55 0 0 1 -1.51,-0.33000000000000007 c-0.33000000000000007,-0.24000000000000002 -0.6500000000000001,-0.48000000000000004 -0.8700000000000001,-0.45 a1.6500000000000001,1.6500000000000001 0 0 0 -0.6200000000000001,0.35000000000000003 c-0.12000000000000001,0.09000000000000002 -0.25,0.19000000000000003 -0.39000000000000007,0.27 a1.44,1.44 0 0 1 -1.54,0 l-0.38000000000000006,-0.27 a1.6400000000000001,1.6400000000000001 0 0 0 -0.6200000000000001,-0.35000000000000003 a1.62,1.62 0 0 0 -0.8700000000000001,0.38000000000000006 a1.6300000000000001,1.6300000000000001 0 0 1 -1.51,0.39000000000000007 a3,3 0 0 1 -0.6500000000000001,-0.41000000000000003 a2.42,2.42 0 0 0 -0.5,-0.32000000000000006 a0.8900000000000001,0.8900000000000001 0 0 0 -0.79,0.24000000000000002 a2,2 0 0 1 -1.42,0.5800000000000001 a2.18,2.18 0 0 1 -1,-0.49000000000000005 l-0.33000000000000007,-0.24000000000000002 l0.39000000000000007,-0.6300000000000001 c0.14,0.08000000000000002 0.27,0.18000000000000002 0.39000000000000007,0.27 a1.6500000000000001,1.6500000000000001 0 0 0 0.6200000000000001,0.35000000000000003 c0.22000000000000003,0 0.55,-0.2 0.8600000000000001,-0.44000000000000006 a1.56,1.56 0 0 1 1.52,-0.3400000000000001 a3,3 0 0 1 0.6600000000000001,0.41000000000000003 a2.5,2.5 0 0 0 0.49000000000000005,0.32000000000000006 c0.19000000000000003,0.08000000000000002 0.51,-0.13 0.8200000000000001,-0.33000000000000007 a2.09,2.09 0 0 1 1.3800000000000001,-0.49000000000000005 a2.15,2.15 0 0 1 1,0.49000000000000005 l0.33000000000000007,0.23 a0.7000000000000001,0.7000000000000001 0 0 0 0.7600000000000001,0 l0.3400000000000001,-0.24000000000000002 a2.19,2.19 0 0 1 1,-0.49000000000000005 a2,2 0 0 1 1.4100000000000001,0.5700000000000001 c0.33000000000000007,0.24000000000000002 0.6200000000000001,0.33000000000000007 0.8,0.25 a2.47,2.47 0 0 0 0.5,-0.32000000000000006 a3,3 0 0 1 0.6500000000000001,-0.41000000000000003 a1.6300000000000001,1.6300000000000001 0 0 1 1.51,0.39000000000000007 a1.61,1.61 0 0 0 0.8800000000000001,0.38000000000000006 a1.6400000000000001,1.6400000000000001 0 0 0 0.6300000000000001,-0.35000000000000003 l0.38000000000000006,-0.27 a1.44,1.44 0 0 1 1.54,0 l-0.39000000000000007,0.6300000000000001 a0.7000000000000001,0.7000000000000001 0 0 0 -0.7600000000000001,0 l-0.33000000000000007,0.23 a2.18,2.18 0 0 1 -1,0.49000000000000005 z" style="fill:#aea8ef" id="svg_31"/><path d="M3.8100012207031284,34.389996948242185 a2.3,2.3 0 0 1 -1.6300000000000001,-0.6800000000000002 l-1.5,-1.5 a2.31,2.31 0 0 1 0,-3.27 l3.6100000000000003,-3.6100000000000003 a2.31,2.31 0 0 1 3.27,0 l1.5,1.5 a2.31,2.31 0 0 1 0,3.27 l-3.6100000000000003,3.6100000000000003 A2.29,2.29 0 0 1 3.8100012207031284,34.389996948242185 zm2.11,-9.12 a1.6900000000000002,1.6900000000000002 0 0 0 -1.2,0.5 l-3.6100000000000003,3.6100000000000003 a1.7000000000000002,1.7000000000000002 0 0 0 0,2.41 l1.5,1.5 a1.7000000000000002,1.7000000000000002 0 0 0 2.41,0 l3.6100000000000003,-3.6100000000000003 a1.71,1.71 0 0 0 0,-2.41 l-1.5,-1.5 A1.6900000000000002,1.6900000000000002 0 0 0 5.920001220703128,25.26999694824218 z" style="fill:#aea8ef" id="svg_32"/><path d="M4.98000122070313,30.109996948242184 a0.7000000000000001,0.7000000000000001 0 0 1 -0.49000000000000005,-1.19 l1.56,-1.56 a0.7000000000000001,0.7000000000000001 0 0 1 1,1 l-1.56,1.56 A0.6900000000000002,0.6900000000000002 0 0 1 4.98000122070313,30.109996948242184 zm1.56,-2.34 a0.08000000000000002,0.08000000000000002 0 0 0 -0.06000000000000001,0 l-1.56,1.56 a0.09000000000000002,0.09000000000000002 0 0 0 0,0.12000000000000001 a0.08000000000000002,0.08000000000000002 0 0 0 0.12000000000000001,0 l1.56,-1.56 a0.09000000000000002,0.09000000000000002 0 0 0 0,-0.12000000000000001 A0.09000000000000002,0.09000000000000002 0 0 0 6.530001220703127,27.76999694824218 z" style="fill:#aea8ef" id="svg_33"/><rect x="-34.540000915527344" y="145.01000213623047" width="1.809999942779541" height="0.6100000143051147" transform="rotate(-45.029998779296875 -155.86000061035156,36.56999969482423) " style="fill:#aea8ef" id="svg_34"/><circle cx="-42.25999450683594" cy="147.62000274658203" r="0.23999999463558197" transform="rotate(-44.959999084472656 -160.17999267578128,34.56999969482423) " style="fill:#aea8ef" id="svg_35"/></svg>