<svg xmlns="http://www.w3.org/2000/svg" viewBox="0 0 84 54.42"><path d="M74.11516775175329,18.528071274386484 a16.199469289042618,16.199469289042618 0 0 0 -0.9938593320574799,-3.8791161594842594 a15.914884017748626,15.914884017748626 0 0 0 -1.9176669050272066,-3.502587954387593 a18.143405603727732,18.143405603727732 0 0 0 -2.8283397731679814,-3.064764460089144 a23.05578520975633,23.05578520975633 0 0 0 -3.7302561714227864,-2.626940965790695 a32.539042096260744,32.539042096260744 0 0 0 -6.0244512815466615,-2.626940965790695 a48.54586904781204,48.54586904781204 0 0 0 -7.237222360753365,-1.7512939771937972 a64.89419832491613,64.89419832491613 0 0 0 -8.174164638552046,-0.8187299343381008 a77.93258198512395,77.93258198512395 0 0 0 -8.835278114942703,0.17075116277639563 a76.01491508009674,76.01491508009674 0 0 0 -8.699552831710186,1.1733669647198437 a60.489693972273734,60.489693972273734 0 0 0 -7.780123493683441,2.0446357183737573 a42.99426714010771,42.99426714010771 0 0 0 -6.5936218241346465,2.823961538224997 a27.49093720699962,27.49093720699962 0 0 0 -5.153182527892746,3.502587954387593 a18.848301429548233,18.848301429548233 0 0 0 -2.9115262370846873,3.1304379842339114 A15.026102324322775,15.026102324322775 0 0 0 1.335768294522091,16.553487315100483 a13.957812998234557,13.957812998234557 0 0 0 -0.8756469885968996,3.7214997015368176 a15.555868752423898,15.555868752423898 0 0 0 0.14010351817550395,3.940411448686042 q0.09632116874565902,0.5998181871888761 0.23642468692116278,1.2083928442637197 t0.32398938578085346,1.2215275490926731 c0.12259057840356585,0.41155408464054277 0.26269409657906995,0.823108169281085 0.41155408464054277,1.2390404888646112 s0.3196111508378686,0.8318646391670537 0.5034970184432161,1.2521751936935646 a31.523291589488338,31.523291589488338 0 0 0 3.0122256407733303,5.341446630441079 a41.59323195835267,41.59323195835267 0 0 0 4.045489087317669,4.934270780743521 A50.857577097707846,50.857577097707846 0 0 0 13.923193755602503,43.82989100989386 a55.96259904122776,55.96259904122776 0 0 0 5.25388193158139,3.7827949907386005 a51.22534883291855,51.22534883291855 0 0 0 5.564736612533289,3.038495050431237 a41.698309596984295,41.698309596984295 0 0 0 5.713596600594761,2.1891174714922457 a34.399791947029144,34.399791947029144 0 0 0 5.8186742392263895,1.2040146093207351 a30.20982110659299,30.20982110659299 0 0 0 5.8843477633711565,0.1182123434605815 a29.045210611759117,29.045210611759117 0 0 0 5.713596600594761,-1.0288852116013556 a30.940986342071398,30.940986342071398 0 0 0 5.332690160555111,-2.0840398328606176 a35.52937656231915,35.52937656231915 0 0 0 4.947405485572476,-3.0166038757163154 a42.53893070603731,42.53893070603731 0 0 0 4.553364340703871,-3.8265773401684453 a45.78758103373181,45.78758103373181 0 0 0 4.041110852374687,-4.505203756331041 A41.73333547652817,41.73333547652817 0 0 0 70.15724336329534,34.63559762962643 a34.684377218323135,34.684377218323135 0 0 0 2.5218633271590667,-5.433389564243754 a27.609149550460202,27.609149550460202 0 0 0 1.4054134166980217,-5.665436016221931 q0.0831864639167056,-0.6567352414476735 0.131347048289535,-1.3134704828953474 c0.03064764460089146,-0.4378234942984498 0.048160584372829496,-0.8537558138819761 0.05253881931581399,-1.2696881334655024 s0,-0.8318646391670537 -0.03502587954387603,-1.2434187238075955 S74.1677065710691,18.93086888914106 74.11516775175329,18.528071274386484 z" style="fill:#e9f0fe" id="svg_1" class=""/><rect x="48.477142572402954" y="28.950000762939453" width="12.020000457763672" height="0.9599999785423279" style="fill:#aea8ef" id="svg_2" class=""/><rect x="51.17714333534241" y="22.690000534057617" width="0.9599999785423279" height="6.739999771118164" style="fill:#aea8ef" id="svg_3" class=""/><rect x="59.62714409828186" y="16.9399995803833" width="0.9599999785423279" height="12.489999771118164" style="fill:#aea8ef" id="svg_4" class=""/><rect x="56.80714440345764" y="19.229999542236328" width="0.9599999785423279" height="10.199999809265137" style="fill:#aea8ef" id="svg_5" class=""/><rect x="48.36714196205139" y="25.790000915527344" width="0.9599999785423279" height="3.640000104904175" style="fill:#aea8ef" id="svg_6" class=""/><rect x="53.997143030166626" y="24.200000762939453" width="0.9599999785423279" height="5.230000019073486" style="fill:#aea8ef" id="svg_7" class=""/><polygon points="63.41714119911194,38.470001220703125 50.82714104652405,38.470001220703125 50.82714104652405,37.5099983215332 62.45714211463928,37.5099983215332 62.45714211463928,14.90999984741211 45.497143030166626,14.90999984741211 45.497143030166626,20.8799991607666 44.53714394569397,20.8799991607666 44.53714394569397,13.949999809265137 63.41714119911194,13.949999809265137 63.41714119911194,38.470001220703125 " style="fill:#aea8ef" id="svg_8" class=""/><rect x="49.23714470863342" y="31.260000228881836" width="2.7100000381469727" height="0.9599999785423279" style="fill:#aea8ef" id="svg_9" class=""/><rect x="56.67714333534241" y="31.260000228881836" width="3.799999952316284" height="0.9599999785423279" style="fill:#aea8ef" id="svg_10" class=""/><rect x="53.317142724990845" y="31.260000228881836" width="1.3700000047683716" height="0.9599999785423279" style="fill:#aea8ef" id="svg_11" class=""/><rect x="49.23714470863342" y="33.1200008392334" width="6.550000190734863" height="0.9599999785423279" style="fill:#aea8ef" id="svg_12" class=""/><rect x="56.93714165687561" y="33.1200008392334" width="2.490000009536743" height="0.9599999785423279" style="fill:#aea8ef" id="svg_13" class=""/><rect x="50.32714104652405" y="34.97999954223633" width="1.0099999904632568" height="0.9599999785423279" style="fill:#aea8ef" id="svg_14" class=""/><rect x="56.17714333534241" y="34.97999954223633" width="2.3399999141693115" height="0.9599999785423279" style="fill:#aea8ef" id="svg_15" class=""/><rect x="52.55714440345764" y="34.97999954223633" width="2.7200000286102295" height="0.9599999785423279" style="fill:#aea8ef" id="svg_16" class=""/><rect x="54.32714104652405" y="41.5" width="0.8100000023841858" height="0.9599999785423279" style="fill:#aea8ef" id="svg_17" class=""/><rect x="57.227142572402954" y="41.5" width="0.8100000023841858" height="0.9599999785423279" style="fill:#aea8ef" id="svg_18" class=""/><rect x="30.637142419815063" y="26.06999969482422" width="8.520000457763672" height="0.9599999785423279" style="fill:#aea8ef" id="svg_19" class=""/><polygon points="34.86714196205139,40.2599983215332 28.157142877578735,40.2599983215332 30.127142190933228,35.35000038146973 28.347143411636353,30.950000762939453 30.127142190933228,26.549999237060547 28.157142877578735,21.639999389648438 39.55714440345764,21.639999389648438 39.55714440345764,22.600000381469727 29.57714295387268,22.600000381469727 31.157142877578735,26.549999237060547 29.377142190933228,30.950000762939453 31.157142877578735,35.35000038146973 29.57714295387268,39.29999923706055 34.86714196205139,39.29999923706055 34.86714196205139,40.2599983215332 " style="fill:#aea8ef" id="svg_20" class=""/><rect x="30.637142419815063" y="34.8700008392334" width="4.699999809265137" height="0.9599999785423279" style="fill:#aea8ef" id="svg_21" class=""/><rect x="28.86714196205139" y="30.469999313354492" width="12.430000305175781" height="0.9599999785423279" style="fill:#aea8ef" id="svg_22" class=""/><path d="M42.81713921546935,36.33000366210936 c-2.06,0 -3.34,-2.68 -3.93,-4.28 l0.9,-0.3300000000000001 c0.3100000000000001,0.8600000000000002 1.45,3.6500000000000004 3,3.6500000000000004 c1.1400000000000001,0 2.3,-1.9 3,-3.67 l0.8900000000000002,0.3500000000000001 C46.07713921546937,33.650003662109384 44.72713921546935,36.33000366210936 42.81713921546935,36.33000366210936 z" style="fill:#7565f2" id="svg_23" class=""/><path d="M49.57713921546937,45.420003662109366 H36.04713921546936 l-0.14,-0.23 a14.93,14.93 0 0 1 -1.6,-6.8100000000000005 c0,-4.1 2.3,-6.69 6.5,-7.32 v-1.09 h1 V31.910003662109375 l-0.4200000000000001,0 c-2.77,0.3200000000000001 -6.07,1.6900000000000004 -6.07,6.42 a14.42,14.42 0 0 0 1.33,6.09 H48.99713921546936 a14.42,14.42 0 0 0 1.33,-6.09 c0,-4.73 -3.3,-6.1 -6.07,-6.42 l-0.4200000000000001,0 v-1.94 h1 v1.09 c4.2,0.6300000000000002 6.5,3.21 6.5,7.32 a14.93,14.93 0 0 1 -1.6,6.8100000000000005 z" style="fill:#7565f2" id="svg_24" class=""/><path d="M42.81713921546935,30.910003662109375 c-2.56,0 -4.35,-3.26 -4.35,-6.19 s1.83,-5.09 4.35,-5.09 s4.35,2.14 4.35,5.09 S45.377139215469356,30.910003662109375 42.81713921546935,30.910003662109375 zm0,-10.32 c-2,0 -3.39,1.7000000000000002 -3.39,4.13 c0,2.6900000000000004 1.6500000000000004,5.24 3.39,5.24 s3.39,-2.54 3.39,-5.24 C46.20713921546937,22.32000366210937 44.80713921546936,20.620003662109383 42.81713921546935,20.620003662109383 z" style="fill:#7565f2" id="svg_25" class=""/><path d="M54.88713921546935,19.30000366210936 a3.6500000000000004,3.6500000000000004 0 0 0 -6.45,0 l-0.8500000000000002,-0.45 a4.61,4.61 0 0 1 8.14,0 z" style="fill:#aea8ef" id="svg_26" class=""/><path d="M51.66713921546935,23.170003662109366 a2.16,2.16 0 1 1 2.16,-2.16 A2.16,2.16 0 0 1 51.66713921546935,23.170003662109366 zm0,-3.36 a1.2,1.2 0 1 0 1.2,1.2 A1.2,1.2 0 0 0 51.66713921546935,19.80000366210936 z" style="fill:#aea8ef" id="svg_27" class=""/><rect x="42.36714196205139" y="35.85000038146973" width="0.9599999785423279" height="9.09000015258789" style="fill:#7565f2" id="svg_28" class=""/><rect x="-62.352866888046265" y="165.260009765625" width="0.9599999785423279" height="1.5" transform="rotate(-45.0099983215332 -194.89285278320315,-37.40000152587892) " style="fill:#f66467" id="svg_29" class=""/><rect x="-58.972862005233765" y="167.65000915527344" width="1.2699999809265137" height="0.9599999785423279" transform="rotate(-45.02000045776367 -194.14285278320318,-35.369998931884766) " style="fill:#f66467" id="svg_30" class=""/><rect x="-64.33286261558533" y="169.04000854492188" width="1.2699999809265137" height="0.9599999785423279" transform="rotate(-44.970001220703125 -196.8028564453125,-36.680000305175795) " style="fill:#f66467" id="svg_31" class=""/><rect x="75.12714409828186" y="4.589999973773956" width="0.7400000095367432" height="0.9300000071525574" style="fill:#f66467" id="svg_32" class=""/><rect x="75.12714409828186" y="7.099999904632568" width="0.7400000095367432" height="0.9300000071525574" style="fill:#f66467" id="svg_33" class=""/><rect x="76.2871401309967" y="5.940000057220459" width="0.7799999713897705" height="0.7400000095367432" style="fill:#f66467" id="svg_34" class=""/><rect x="73.9171450138092" y="5.940000057220459" width="0.7900000214576721" height="0.7400000095367432" style="fill:#f66467" id="svg_35" class=""/><path d="M80.99713921546936,13.470003662109377 l-1.79,-1.79 l-0.8700000000000002,1.46 l-1.6500000000000004,-5.37 l5.37,1.6500000000000004 l-1.46,0.8700000000000002 l1.79,1.79 zm-1.94,-3 l1.94,1.94 l0.3500000000000001,-0.3600000000000001 l-1.94,-1.94 l0.8400000000000002,-0.5 l-2.46,-0.7600000000000002 l0.7500000000000002,2.46 z" style="fill:#f66467" id="svg_36" class=""/><path d="M22.847139215469355,11.04000366210937 h-1.57 v-4.55 h1.57 zm-1,-0.5900000000000002 h0.3900000000000001 v-3.37 h-0.3900000000000001 z" style="fill:#aea8ef" id="svg_37" class=""/><path d="M24.74713921546936,11.04000366210937 h-1.57 v-3.42 h1.57 zm-1,-0.5900000000000002 h0.3900000000000001 v-2.24 h-0.3900000000000001 z" style="fill:#aea8ef" id="svg_38" class=""/><path d="M28.567139215469354,11.04000366210937 H26.99713921546936 v-7 h1.57 zm-1,-0.5900000000000002 H27.99713921546936 v-5.86 h-0.3900000000000001 z" style="fill:#aea8ef" id="svg_39" class=""/><polygon points="29.767143487930298,11.039999961853027 21.267143487930298,11.039999961853027 21.267143487930298,4.259999990463257 21.85714364051819,4.259999990463257 21.85714364051819,10.449999809265137 29.767143487930298,10.449999809265137 29.767143487930298,11.039999961853027 " style="fill:#aea8ef" id="svg_40" class=""/><path d="M10.387139215469361,27.79000366210937 H5.99713921546936 V23.910003662109375 h4.41 zm-3.74,-0.6700000000000004 h3.06 v-2.49 H6.657139215469357 z" style="fill:#aea8ef" id="svg_41" class=""/><path d="M6.3171392154693535,27.460003662109386 H4.537139215469367 a0.8800000000000002,0.8800000000000002 0 0 1 -0.8800000000000002,-0.8800000000000002 v-1.4100000000000001 a0.8800000000000002,0.8800000000000002 0 0 1 0.8800000000000002,-0.8800000000000002 h1.78 v0.6700000000000004 H4.537139215469367 a0.2,0.2 0 0 0 -0.2,0.2 v1.4100000000000001 a0.2,0.2 0 0 0 0.2,0.2 h1.78 z" style="fill:#aea8ef" id="svg_42" class=""/><rect x="10.047142744064331" y="24.290000915527344" width="6.150000095367432" height="0.6700000166893005" style="fill:#aea8ef" id="svg_43" class=""/><rect x="10.047142744064331" y="26.780000686645508" width="6.150000095367432" height="0.6700000166893005" style="fill:#aea8ef" id="svg_44" class=""/><path d="M15.867139215469365,27.51000366210937 v-3.27 l4.8,1.6400000000000001 zm0.6700000000000004,-2.33 v1.3900000000000001 l2,-0.6900000000000004 z" style="fill:#aea8ef" id="svg_45" class=""/><rect x="10.047142744064331" y="25.540000915527344" width="6.150000095367432" height="0.6700000166893005" style="fill:#aea8ef" id="svg_46" class=""/><path d="M63.617139215469365,8.400003662109384 a2.35,2.35 0 0 1 -1.22,-0.5 c-0.3100000000000001,-0.2 -0.6400000000000002,-0.4100000000000001 -0.8200000000000002,-0.3300000000000001 a2.56,2.56 0 0 0 -0.4900000000000001,0.3200000000000001 a3,3 0 0 1 -0.6600000000000003,0.4100000000000001 a1.55,1.55 0 0 1 -1.51,-0.3300000000000001 c-0.3300000000000001,-0.24000000000000005 -0.6500000000000002,-0.4800000000000001 -0.8700000000000002,-0.45 a1.6500000000000004,1.6500000000000004 0 0 0 -0.6200000000000002,0.3500000000000001 c-0.12000000000000002,0.09000000000000004 -0.25,0.19000000000000006 -0.3900000000000001,0.27 a1.44,1.44 0 0 1 -1.54,0 l-0.3800000000000001,-0.27 a1.6500000000000004,1.6500000000000004 0 0 0 -0.6200000000000002,-0.3500000000000001 a1.62,1.62 0 0 0 -0.8700000000000002,0.3800000000000001 a1.6300000000000003,1.6300000000000003 0 0 1 -1.51,0.3900000000000001 a3,3 0 0 1 -0.6500000000000002,-0.4100000000000001 a2.41,2.41 0 0 0 -0.5,-0.3200000000000001 a0.8900000000000002,0.8900000000000002 0 0 0 -0.79,0.24000000000000005 a2,2 0 0 1 -1.42,0.5800000000000002 a2.17,2.17 0 0 1 -1,-0.4900000000000001 l-0.3300000000000001,-0.24000000000000005 l0.3900000000000001,-0.6300000000000002 c0.14,0.09000000000000004 0.26,0.18000000000000005 0.3900000000000001,0.27 a1.6600000000000001,1.6600000000000001 0 0 0 0.6200000000000002,0.3500000000000001 c0.23,0 0.55,-0.2 0.8600000000000002,-0.4400000000000001 a1.57,1.57 0 0 1 1.52,-0.3400000000000002 a3,3 0 0 1 0.6600000000000003,0.4100000000000001 a2.5300000000000002,2.5300000000000002 0 0 0 0.4900000000000001,0.3200000000000001 c0.19000000000000006,0.08000000000000003 0.51,-0.13 0.8200000000000002,-0.3300000000000001 a2.09,2.09 0 0 1 1.3800000000000001,-0.4900000000000001 a2.15,2.15 0 0 1 1,0.4900000000000001 l0.3300000000000001,0.23 a0.7000000000000002,0.7000000000000002 0 0 0 0.7600000000000002,0 l0.3300000000000001,-0.24000000000000005 a2.19,2.19 0 0 1 1,-0.4900000000000001 a2,2 0 0 1 1.4100000000000001,0.5700000000000002 c0.3300000000000001,0.24000000000000005 0.6100000000000002,0.3300000000000001 0.8,0.25 a2.48,2.48 0 0 0 0.4900000000000001,-0.3200000000000001 a3,3 0 0 1 0.6500000000000002,-0.4100000000000001 a1.6300000000000003,1.6300000000000003 0 0 1 1.51,0.3900000000000001 a1.61,1.61 0 0 0 0.8700000000000002,0.3800000000000001 a1.6400000000000001,1.6400000000000001 0 0 0 0.6200000000000002,-0.3500000000000001 l0.3800000000000001,-0.27 a1.44,1.44 0 0 1 1.54,0 l-0.3900000000000001,0.6300000000000002 a0.7000000000000002,0.7000000000000002 0 0 0 -0.7600000000000002,0 l-0.3300000000000001,0.23 a2.17,2.17 0 0 1 -1,0.4900000000000001 z" style="fill:#aea8ef" id="svg_47" class=""/><path d="M26.657139215469357,11.04000366210937 h-1.57 v-5.72 h1.57 zm-1,-0.5900000000000002 h0.3900000000000001 V5.910003662109375 h-0.3900000000000001 z" style="fill:#f66467" id="svg_48" class=""/></svg>