<svg xmlns="http://www.w3.org/2000/svg" viewBox="0 0 71.5 38.5"><path d="M8.495013146202997,29.678827903172092 a29.429603804532505,28.479703790376913 0 0 0 3.460772396760848,2.455022567246416 a33.89992336977795,32.8057347458772 0 0 0 3.967408614155334,2.0620747554551415 a39.405866967638595,38.13396287273507 0 0 0 4.436792168506102,1.6474967888863628 a45.9101819350707,44.42833791298798 0 0 0 4.872648326117536,1.207683641743831 a54.61985455469057,52.856888224621045 0 0 0 6.802336271781819,0.9012564490625651 a64.95001801671192,62.85362475762298 0 0 0 7.204665032653909,0.12617590286875974 a69.39426071782678,67.15442053254954 0 0 0 7.346225152220013,-0.6380895659362933 a66.54070672867842,64.39297077262182 0 0 0 7.2195660978713905,-1.3987500089450942 a51.371422337278894,49.71330573029084 0 0 0 6.4260843750403245,-2.047654652270139 A31.638686723024627,30.617484087553304 0 0 0 65.32022535308133,31.49936593027846 a16.949961684888976,16.4028673729386 0 0 0 3.5576293206744998,-2.8515754048339446 a8.694771554402388,8.414130208448068 0 0 0 1.892435282620575,-3.103927210571461 a6.467062304388406,6.25832478229042 0 0 0 0.29429603804532495,-2.52351805737517 a7.86403716852761,7.61020945588426 0 0 0 -0.767404858700473,-2.5848034959114274 a12.63982857073149,12.231852526677073 0 0 0 -1.799303625011293,-2.620853753873928 A21.979071195790095,21.26965219787644 0 0 0 65.69275198351845,15.168599073264865 q-0.48800988587263155,-0.389342785995031 -1.016997701093338,-0.7750805461938094 t-1.1175798913113622,-0.7714755203975571 c-0.3725266304371224,-0.2559568315337698 -0.7785806576135843,-0.5155186888637864 -1.1846346847900424,-0.7714755203975571 s-0.8344596521791543,-0.5119136630675386 -1.2703158097905802,-0.7678704946013056 a67.40496851129255,65.22933675735189 0 0 0 -6.131788336995,-3.1435824943302113 c-2.1569291902309264,-0.9769619907838175 -4.4144405706798775,-1.889033517235128 -6.705479347868164,-2.7217944761689363 s-4.6416818152465185,-1.5898163761463588 -6.981149054391634,-2.2639562000451527 s-4.667758679377118,-1.2653640544838372 -6.940171125043552,-1.7736726917551202 s-4.529923826115383,-0.9156765522475669 -6.705479347868164,-1.2293137965213332 s-4.2430783206788005,-0.5263337662525376 -6.228645260908651,-0.6308795143437953 A43.634044223099885,42.22566715147909 0 0 0 15.774183504944343,0.3879933086388627 a27.790486630609173,26.893492440026808 0 0 0 -4.965779983726813,0.7750805461938094 a17.881278260981773,17.30412382200117 0 0 0 -4.045639206547126,1.521320886017603 a12.904322478341847,12.487809358210841 0 0 0 -3.010015173931933,2.1630154777501454 a11.61538033702941,11.240470432708255 0 0 0 -2.0600722663172766,2.7398196051501857 a13.273123842474595,12.844706912039612 0 0 0 -1.1771841521813007,3.244523216625221 a15.962766114230602,15.447535536932284 0 0 0 -0.29057077174095614,3.6050257962502426 a18.18675009794021,17.599735937293683 0 0 0 0.6072184076125084,3.8754027309690113 a20.861491304478733,20.188144459001357 0 0 0 1.5981392445752458,4.00878868543027 a24.530878614284365,23.739094868307834 0 0 0 2.6859170054516373,4.001578633837769 q0.3725266304371224,0.450628224531283 0.7748553913092147,0.890441371673814 c0.2644939076103588,0.2920070894962715 0.5401636141338256,0.5768041274000414 0.8232838532660381,0.8579961395075617 s0.5736910108731651,0.558778998418791 0.8717123152228655,0.8291559331375605 S8.178365510331462,29.419266045842075 8.495013146202997,29.678827903172092 z" style="fill:#e9f0fe" id="svg_1" class="" transform="rotate(-0.30781427025794983 35.65219116211063,19.19237518310476) "/><path d="M8.34143176794052,21.86286324977874 v-0.8 h7.8 v0.8 z" style="fill:#aea8ef" id="svg_2" class=""/><path d="M12.411431767940527,6.862863249778741 a0.7600000000000003,0.7600000000000003 0 0 1 0.55,0.7000000000000003 a0.7300000000000003,0.7300000000000003 0 1 1 -1,-0.6500000000000004 l0.12000000000000002,-0.05000000000000003 z" style="fill:#aea8ef" id="svg_3" class=""/><path d="M9.521431767940527,17.40286324977876 a2.85,2.85 0 0 1 -0.3900000000000002,0 s-0.1,-0.07 -0.12000000000000002,-0.12000000000000002 l-1,-2.38 l-0.91,-2.21 l-0.06000000000000003,-0.12000000000000002 l-0.07,0.1600000000000001 q-0.93,2.24 -1.85,4.47 c-0.06000000000000003,0.1600000000000001 -0.14,0.24000000000000007 -0.31000000000000016,0.21000000000000008 a1.7200000000000002,1.7200000000000002 0 0 0 -0.24000000000000007,0 l2.47,-6 z" style="fill:#f66467" id="svg_4" class=""/><path d="M14.911431767940527,17.40286324977876 l2.47,-6 l2.47,6 a2.6100000000000003,2.6100000000000003 0 0 1 -0.38000000000000017,0 s-0.11000000000000004,-0.08000000000000004 -0.13,-0.13 l-1.4,-3.37 l-0.49000000000000016,-1.18 l-0.08000000000000004,-0.18000000000000008 l-1,2.45 c-0.30000000000000016,0.7400000000000003 -0.6100000000000003,1.47 -0.91,2.21 c-0.06000000000000003,0.15000000000000008 -0.13,0.22000000000000008 -0.29000000000000015,0.2 z" style="fill:#f66467" id="svg_5" class=""/><path d="M9.381431767940526,17.61286324977874 a2.8200000000000003,2.8200000000000003 0 0 1 -4.68,0 z" style="fill:#f66467" id="svg_6" class=""/><path d="M19.721431767940516,17.61286324977874 a2.8200000000000003,2.8200000000000003 0 0 1 -4.68,0 z" style="fill:#f66467" id="svg_7" class=""/><path d="M18.431431767940524,9.782863249778757 a1.27,1.27 0 0 1 -1.7400000000000002,0.18000000000000008 a8.27,8.27 0 0 0 -5.47,-1.23 a8.11,8.11 0 0 0 -3.5,1.28 a1.13,1.13 0 0 1 -1.56,-0.1600000000000001 l-0.08000000000000004,-0.1 l-0.6300000000000003,0.55 l0.09000000000000007,0.11000000000000004 a2,2 0 0 0 2.63,0.30000000000000016 a8.41,8.41 0 0 1 0.8,-0.45 a7.41,7.41 0 0 1 2.8200000000000003,-0.7500000000000003 v10 h-1.8 V20.292863249778748 h4.47 v-0.8400000000000003 H12.621431767940521 l0,-10 a8,8 0 0 1 3.5700000000000003,1.1600000000000001 a2.27,2.27 0 0 0 1.62,0.35000000000000014 a2,2 0 0 0 1.19,-0.7100000000000003 z" style="fill:#aea8ef" id="svg_8" class=""/><path d="M33.43143176794052,33.66286324977875 a11.4,11.4 0 1 1 11.4,-11.4 A11.42,11.42 0 0 1 33.43143176794052,33.66286324977875 zm0,-22 A10.56,10.56 0 1 0 43.981431767940535,22.292863249778748 A10.57,10.57 0 0 0 33.43143176794052,11.702863249778744 z" style="fill:#7565f2" id="svg_9" class=""/><polygon points="33.37142986059189,32.05285835266113 29.57142871618271,29.902856826782227 29.57142871618271,26.9228572845459 30.421429097652435,26.9228572845459 30.421429097652435,29.402856826782227 33.37142986059189,31.082857131958008 36.431431233882904,29.402856826782227 36.431431233882904,26.932857513427734 37.281429708004,26.932857513427734 37.281429708004,29.902856826782227 33.37142986059189,32.05285835266113 " style="fill:#7565f2" id="svg_10" class=""/><path d="M40.961431767940525,29.952863249778744 l-0.36000000000000015,-1.32 a1.7600000000000002,1.7600000000000002 0 0 0 -1.6900000000000006,-1.28 h-1.94 a2.87,2.87 0 0 0 -1.8,1.06 a2.63,2.63 0 0 1 -3.7,0 a2.9,2.9 0 0 0 -1.79,-1.07 h-1.75 a1.7400000000000002,1.7400000000000002 0 0 0 -1.6700000000000006,1.28 l-0.36000000000000015,1.32 l-0.8200000000000003,-0.22000000000000008 l0.36000000000000015,-1.32 a2.59,2.59 0 0 1 2.49,-1.9 h1.75 a3.64,3.64 0 0 1 2.38,1.3 a1.78,1.78 0 0 0 2.5300000000000002,0 a3.62,3.62 0 0 1 2.39,-1.29 h1.94 a2.6100000000000003,2.6100000000000003 0 0 1 2.5,1.9 l0.36000000000000015,1.32 z" style="fill:#7565f2" id="svg_11" class=""/><path d="M39.481431767940535,24.10286324977875 h-2.81 V23.292863249778748 h2.14 a9.52,9.52 0 0 0 0.21000000000000008,-2 c0,-4.09 -2.55,-7.42 -5.68,-7.42 s-5.68,3.33 -5.68,7.42 a9.5,9.5 0 0 0 0.21000000000000008,2 h2.3 v0.8500000000000003 h-3 l-0.08000000000000004,-0.3200000000000002 a10.3,10.3 0 0 1 -0.31000000000000016,-2.5300000000000002 c0,-4.5600000000000005 2.93,-8.26 6.52,-8.26 s6.52,3.71 6.52,8.26 a10.27,10.27 0 0 1 -0.31000000000000016,2.5300000000000002 z" style="fill:#7565f2" id="svg_12" class=""/><rect x="33.00142711400986" y="29.892858505249023" width="0.8500000238418579" height="1.649999976158142" style="fill:#7565f2" id="svg_13" class=""/><path d="M35.18143176794052,22.292863249778748 a1.79,1.79 0 0 1 -1.46,-0.7600000000000003 l0.6900000000000006,-0.49000000000000016 a0.93,0.93 0 0 0 1.53,0 l0.6900000000000006,0.49000000000000016 A1.79,1.79 0 0 1 35.18143176794052,22.292863249778748 z" style="fill:#7565f2" id="svg_14" class=""/><path d="M31.731431767940535,22.292863249778748 a1.79,1.79 0 0 1 -1.46,-0.7600000000000003 l0.6900000000000006,-0.49000000000000016 a0.93,0.93 0 0 0 1.53,0 l0.6900000000000006,0.49000000000000016 A1.79,1.79 0 0 1 31.731431767940535,22.292863249778748 z" style="fill:#7565f2" id="svg_15" class=""/><path d="M33.43143176794052,26.662863249778752 c-2.62,0 -4.45,-3.36 -4.45,-6.37 a7.09,7.09 0 0 1 0.1,-1.23 l0.08000000000000004,-0.45 l0.44000000000000017,0.11000000000000004 a15.78,15.78 0 0 0 3.81,0.45 l0.8700000000000003,0 l0.93,-2.29 l0.8500000000000003,2.1 c0.41000000000000014,-0.07 0.81,-0.15000000000000008 1.19,-0.25 l0.44000000000000017,-0.11000000000000004 l0.08000000000000004,0.45 a7,7 0 0 1 0.11000000000000004,1.24 C37.88143176794051,23.292863249778748 36.06143176794052,26.662863249778752 33.43143176794052,26.662863249778752 zm-3.5700000000000003,-7 c0,0.21000000000000008 0,0.42000000000000015 0,0.6400000000000003 c0,2.89 1.7200000000000002,5.52 3.6,5.52 s3.6,-2.63 3.6,-5.52 c0,-0.22000000000000008 0,-0.43000000000000016 0,-0.6400000000000003 c-0.37000000000000016,0.08000000000000004 -0.7600000000000003,0.15000000000000008 -1.15,0.21000000000000008 l-0.3300000000000002,0 l-0.3200000000000002,-0.78 l-0.3400000000000003,0.8400000000000003 l-0.26,0 c-0.3900000000000002,0 -0.79,0 -1.19,0 A16.84,16.84 0 0 1 29.86143176794053,19.65286324977876 z" style="fill:#7565f2" id="svg_16" class=""/><rect x="25.651428639888763" y="25.03285789489746" width="0.6800000071525574" height="0.8500000238418579" style="fill:#7565f2" id="svg_17" class=""/><rect x="28.081428945064545" y="25.03285789489746" width="0.6800000071525574" height="0.8500000238418579" style="fill:#7565f2" id="svg_18" class=""/><polygon points="44.68142741918564,14.092856407165527 43.831428945064545,14.092856407165527 43.831428945064545,11.852857112884521 41.59142726659775,11.852857112884521 41.59142726659775,11.002857208251953 44.68142741918564,11.002857208251953 44.68142741918564,14.092856407165527 " style="fill:#7565f2" id="svg_19" class=""/><polygon points="25.25142902135849,33.51285743713379 22.171429097652435,33.51285743713379 22.171429097652435,30.4228572845459 23.011429250240326,30.4228572845459 23.011429250240326,32.66285705566406 25.25142902135849,32.66285705566406 25.25142902135849,33.51285743713379 " style="fill:#7565f2" id="svg_20" class=""/><path d="M49.62143176794052,22.60286324977875 l-1.9,-1.3800000000000001 l1.9,-1.3800000000000001 V14.892863249778742 h13 v9.46 H49.62143176794052 zm12.29,-7 H50.29143176794051 v4.6 l-1.42,1 l1.42,1 v1.4100000000000001 h11.59 z" style="fill:#aea8ef" id="svg_21" class=""/><path d="M58.13143176794051,19.742863249778736 a1.08,1.08 0 1 1 1.08,1.08 A1.08,1.08 0 0 1 58.13143176794051,19.742863249778736 zm0.6900000000000006,0 a0.3900000000000002,0.3900000000000002 0 1 0 0.3900000000000002,-0.3900000000000002 A0.3900000000000002,0.3900000000000002 0 0 0 58.83143176794053,19.742863249778736 z" style="fill:#f66467" id="svg_22" class=""/><path d="M55.04143176794051,19.742863249778736 a1.08,1.08 0 1 1 1.08,1.08 A1.08,1.08 0 0 1 55.04143176794051,19.742863249778736 zm0.6900000000000006,0 a0.3900000000000002,0.3900000000000002 0 1 0 0.3900000000000002,-0.3900000000000002 A0.3900000000000002,0.3900000000000002 0 0 0 55.731431767940535,19.742863249778736 z" style="fill:#f66467" id="svg_23" class=""/><path d="M51.941431767940514,19.742863249778736 a1.08,1.08 0 1 1 1.08,1.08 A1.08,1.08 0 0 1 51.941431767940514,19.742863249778736 zm0.6900000000000006,0 a0.3900000000000002,0.3900000000000002 0 1 0 0.3900000000000002,-0.3900000000000002 A0.3900000000000002,0.3900000000000002 0 0 0 52.62143176794052,19.742863249778736 z" style="fill:#f66467" id="svg_24" class=""/><rect x="23.151428639888763" width="0.6700000166893005" height="3.2899999618530273" style="fill:#f66467" id="svg_25" class="" y="5.942857146263123"/><rect x="21.84142917394638" y="7.252857208251953" width="3.2899999618530273" height="0.6700000166893005" style="fill:#f66467" id="svg_26" class=""/><path d="M49.11143176794053,33.742863249778736 a1.9,1.9 0 1 1 1.9,-1.9 A1.9,1.9 0 0 1 49.11143176794053,33.742863249778736 zm0,-3.22 a1.32,1.32 0 1 0 1.32,1.32 A1.33,1.33 0 0 0 49.11143176794053,30.522863249778737 z" style="fill:#aea8ef" id="svg_27" class=""/></svg>