<svg id="565980c6-5c40-43ad-90cc-b4ed4f0daf30" data-name="icons" xmlns="http://www.w3.org/2000/svg" viewBox="0 0 163.04 140.85"><path d="M219.14,422.88l1.26,1.34-.28.27h0c-.56.51-1.87,1.72-3.66,3.39V446a54.63,54.63,0,0,1-63.07,0V425.36l-.69-.73.24-.18a21,21,0,0,1-4-12.31,21.29,21.29,0,0,1,.46-4.41A30.13,30.13,0,0,1,166,392.57a29.28,29.28,0,0,1,4.86-1.33l.42-.07a20.58,20.58,0,0,0,6.25,4A20.21,20.21,0,0,0,185,396.6l12.92-4.93,1.17-.45a29.76,29.76,0,0,1,16.88,9.56,28.68,28.68,0,0,1,2.07,2.59l.44.63a2.47,2.47,0,0,0-.44.2,3.38,3.38,0,0,0-.66.46,4.27,4.27,0,0,0-.57.63l-4.91,6.85,7.2,7.71,4.13-4.49a31.52,31.52,0,0,1,.51,3.79Q221.51,421.13,219.14,422.88Z" transform="translate(-146.96 -325.15)" style="fill:#f66467"/><path d="M159.27,361.88c.36,3.4,1.52,4.72,2.68,5.77a3.44,3.44,0,0,1,.31.3s0,.08,0,.13,0,0,0,0c2.11,14,11.61,24.2,22.58,24.2s20.47-10.18,22.58-24.2c0,0,0-.09,0-.14a4.37,4.37,0,0,1,.32-.31c1.16-1.06,2.33-2.38,2.69-5.78.47-4.51-.49-6.84-1.69-8,3.27-4.93,2.28-12,2-13.62-1.64-9.4-9.38-14-10.91-14.83a2.08,2.08,0,0,0-2.83.87,12.34,12.34,0,0,1-4.3,4.89c-3.09,2-6.26,1.64-9.92,1.28-3.93-.39-8.39-.82-13.15,1.7a18.32,18.32,0,0,0-8.18,9,17.08,17.08,0,0,0-.48,10.73C159.83,355,158.77,357.28,159.27,361.88Zm6.06-17.25a14,14,0,0,1,6.27-6.82,13.48,13.48,0,0,1,6.57-1.52c1.4,0,2.8.14,4.23.28,4.06.4,8.25.81,12.55-1.91h0a15.71,15.71,0,0,0,4.63-4.56,17.13,17.13,0,0,1,7.11,10.82c.56,3.2.65,9.31-2.56,11.95-3.49,2.87-10,.8-16.23-1.2-7.05-2.25-14.35-4.58-19.09-.4a9.81,9.81,0,0,0-2.8,4.39C164.7,352.62,163.77,348.56,165.33,344.63Zm.39,18.71a2.08,2.08,0,0,0,3.7-1.38c-.15-3.63.57-6.17,2.15-7.56,3-2.62,9.12-.66,15.08,1.24,6.53,2.08,13.25,4.22,18.34,1.61a2.07,2.07,0,0,0,.93-.34c.24.39.73,1.58.42,4.54-.22,2.12-.75,2.6-1.35,3.15a4.35,4.35,0,0,0-1.63,2.87v0c-1.8,12-9.57,20.66-18.48,20.66s-16.67-8.69-18.48-20.66c0,0,0-.06,0-.09a4.35,4.35,0,0,0-1.62-2.82c-.6-.55-1.13-1-1.35-3.14a16.59,16.59,0,0,1-.1-1.84A26.31,26.31,0,0,0,165.72,363.34Z" transform="translate(-146.96 -325.15)" style="fill:#1c3e58"/><path d="M175.68,367.15h4.77a2.08,2.08,0,0,0,0-4.15h-4.77a2.08,2.08,0,1,0,0,4.15Z" transform="translate(-146.96 -325.15)" style="fill:#1c3e58"/><path d="M190.69,367.15h4.78a2.08,2.08,0,1,0,0-4.15h-4.78a2.08,2.08,0,0,0,0,4.15Z" transform="translate(-146.96 -325.15)" style="fill:#1c3e58"/><path d="M177.82,378.81a2.08,2.08,0,0,0,.4,2.91,10.37,10.37,0,0,0,13.29,0,2.08,2.08,0,1,0-2.51-3.31,6.27,6.27,0,0,1-8.27,0A2.08,2.08,0,0,0,177.82,378.81Z" transform="translate(-146.96 -325.15)" style="fill:#1c3e58"/><circle cx="62.65" cy="133.57" r="1.86" style="fill:#1c3e58"/><circle cx="140.73" cy="5.85" r="1.86" style="fill:#1c3e58"/><circle cx="145.04" cy="129.85" r="1.86" style="fill:#1c3e58"/><path d="M299,337H229a11,11,0,0,0-11,11v50a23.1,23.1,0,0,0-18.22-9,2,2,0,0,0-.82.18h-.19l-.23.05-.15,0-.18.08-.17.08-.14.1-.19.14,0,0a19.23,19.23,0,0,1-12,4.81,1.95,1.95,0,0,0-1.47,0,19.26,19.26,0,0,1-12.17-5l0,0-.18-.14-.14-.1-.17-.08-.18-.08-.16,0-.21-.05h-.43l-.15,0h0a2,2,0,0,0-.38,0,23.2,23.2,0,0,0-22.58,18.27,23.54,23.54,0,0,0-.5,4.83,22.91,22.91,0,0,0,3.74,12.58,2,2,0,0,0,.3,1V446a2,2,0,0,0,.84,1.63A57.45,57.45,0,0,0,184.91,458H185a58,58,0,0,0,33.13-10.39A2,2,0,0,0,219,446V428.76l-.08-.43.57-.53,2.28-2.12a2,2,0,0,0,.09-2.82l-.07-.07,5.71-6.22a10,10,0,0,0,1.19-1.58H254.2a10,10,0,0,0,7.8,7.8V445H252a2,2,0,0,0,0,4h24a2,2,0,0,0,0-4H266V422.8a10,10,0,0,0,7.8-7.8H299a11,11,0,0,0,11-11V348A11,11,0,0,0,299,337Zm-83.64,64.15a7.54,7.54,0,0,0-1.84,1.81L209,409.22a2,2,0,0,0-2.45.21l-4.64,4.33a21.71,21.71,0,0,1-2,1.69,22.93,22.93,0,0,1-12.9,4.5V400l10.17,5.38a2,2,0,0,0,2.93-1.61l.82-10.63A19.16,19.16,0,0,1,215.36,401.15Zm-24.08-3.46a23.69,23.69,0,0,0,5.44-2.32l-.38,5Zm-12.88-.07-5.09,2.62-.33-5A23.7,23.7,0,0,0,178.4,397.62Zm-27,10.52a19.17,19.17,0,0,1,17.47-15l.68,10.44a2,2,0,0,0,2.91,1.65L183,399.75v20h-.14c-.56-.07-1.12-.17-1.67-.29a23.19,23.19,0,0,1-12-6.83l-.63-.68a2,2,0,0,0-2.92,2.74l.63.67.1.1a26.35,26.35,0,0,0,4.75,4,26.89,26.89,0,0,0,11.77,4.32,24.39,24.39,0,0,0,4,.18H187a27,27,0,0,0,14.15-4.49,26.27,26.27,0,0,0,3.52-2.77l1.32-1.23,1.85-1.73,1.62,1.73,3.74,4,1.25,1.34,1.64,1.75,1.48,1.58L214.45,427l-1.13,1.05a40,40,0,0,1-26.45,10.76,38,38,0,0,1-3.87-.12h-.14a39.88,39.88,0,0,1-24.55-11.06,2,2,0,0,0-.52-.87l-.14-.13a17.84,17.84,0,0,1-2.93-3.13l-.14-.17a19,19,0,0,1-3.63-11.2A19.53,19.53,0,0,1,151.37,408.14ZM155,430.38V430l.38.37a43.88,43.88,0,0,0,27.48,12.34H183V454a53.38,53.38,0,0,1-28-9Zm60,14.54a54,54,0,0,1-28,9V442.82a43.87,43.87,0,0,0,27.45-10.42l.55-.49v13Zm8.19-29.56-4.13,4.49-7.2-7.71,4.91-6.85a4.27,4.27,0,0,1,.57-.63,3.38,3.38,0,0,1,.66-.46,2.47,2.47,0,0,1,.44-.2,2.84,2.84,0,0,1,.49-.16l1.51-.37a2,2,0,0,0,3,2.56l3.1-2.89a10.35,10.35,0,0,1,.12,5.13l-.49,2.14L226,411a6.39,6.39,0,0,1-1.49,2.84l-.13.14ZM264,419a6,6,0,0,1-5.65-4h11.3A6,6,0,0,1,264,419Zm42-15a7,7,0,0,1-7,7H230.15l.43-1.84a14.37,14.37,0,0,0-.84-9l27-25.18H288a2,2,0,0,0,0-4H261l10.72-10H274a2,2,0,0,0,0-4h-.73l-.08-.1a2,2,0,0,0-2.83-.1l-.22.2H234a2,2,0,0,0,0,4h31.86l-10.72,10H234a2,2,0,0,0,0,4h16.86L226.3,397.91,222,399V348a7,7,0,0,1,7-7h70a7,7,0,0,1,7,7Z" transform="translate(-146.96 -325.15)" style="fill:#1c3e58"/><path d="M252,387h14a2,2,0,0,0,0-4H252a2,2,0,0,0,0,4Z" transform="translate(-146.96 -325.15)" style="fill:#1c3e58"/><path d="M274,387h16a2,2,0,0,0,0-4H274a2,2,0,0,0,0,4Z" transform="translate(-146.96 -325.15)" style="fill:#1c3e58"/><path d="M274,395H240a2,2,0,0,0,0,4h34a2,2,0,0,0,0-4Z" transform="translate(-146.96 -325.15)" style="fill:#1c3e58"/><path d="M292,395H282a2,2,0,0,0,0,4h10a2,2,0,0,0,0-4Z" transform="translate(-146.96 -325.15)" style="fill:#1c3e58"/><path d="M292,357H282a2,2,0,0,0,0,4h10a2,2,0,0,0,0-4Z" transform="translate(-146.96 -325.15)" style="fill:#1c3e58"/><path d="M234,333h48a2,2,0,0,0,0-4H234a2,2,0,0,0,0,4Z" transform="translate(-146.96 -325.15)" style="fill:#1c3e58"/><path d="M286,453H242a2,2,0,0,0,0,4h44a2,2,0,0,0,0-4Z" transform="translate(-146.96 -325.15)" style="fill:#1c3e58"/><path d="M204.09,458.89a60.88,60.88,0,0,1-42.41-1.51,2,2,0,0,0-1.54,3.69,64.88,64.88,0,0,0,45.21,1.61,2,2,0,1,0-1.27-3.79Z" transform="translate(-146.96 -325.15)" style="fill:#1c3e58"/></svg>