<svg id="63b7c4af-e6b2-4a1c-9958-dc36e946f48f" data-name="icons" xmlns="http://www.w3.org/2000/svg" viewBox="0 0 152.83 156.66"><path d="M773.3,365.29c3.08-1.94,5.18-2.84,5-3.41s-3.52-.35-8.1.06h0c-1.52.14-3.17.3-4.9.49a66.37,66.37,0,0,0-39.75,19.09L696,411c4.89.46,11.8,1.93,17.25,7a22.2,22.2,0,0,1,5.64,8.47c.62,1.55,1.08,2.93,1.64,4L722,429l24.77-24.76L751,400c.21-.46.42-.92.61-1.39.57-1.28,1.11-2.58,1.6-3.88-.72,0-1.43-.09-2.07-.18l-.29-.05a6,6,0,0,1-1.46-.42c0-.18,0-.36,0-.56a29.87,29.87,0,0,1,7.33-18.86,28.86,28.86,0,0,1,10.54-7.53A32.21,32.21,0,0,1,773.3,365.29Z" transform="translate(-694 -315.83)" style="fill:#aea8ef"/><path d="M816.71,412.89c-.06-.16-.65-.21-1.6-.19-1.53,0-4,.24-6.73.54l-.18,0a43.32,43.32,0,0,0-26,12.48L762.92,445c5.89.83,8.43,3,9.66,4.81s1.55,4.07,3.42,6.22a9,9,0,0,0,.92,1,12.65,12.65,0,0,0,2.13,1.66l19-19.05c.55-1.15,1.07-2.31,1.55-3.47s.95-2.38,1.37-3.55c0-.09.06-.18.1-.28h0l-.28,0-.17,0-.17,0-.23-.09L800,432a1,1,0,0,1-.21-.16,1.2,1.2,0,0,1-.25-.25,1.54,1.54,0,0,1-.21-.33,1.8,1.8,0,0,1-.15-1.24,19.83,19.83,0,0,1,3.94-8.31,16.61,16.61,0,0,1,1.91-1.86,18.81,18.81,0,0,1,6.68-3.59h0a39.94,39.94,0,0,1,3.48-2.21C816.24,413.48,816.81,413.14,816.71,412.89Z" transform="translate(-694 -315.83)" style="fill:#f66467"/><path d="M772.74,422.7a7.9,7.9,0,0,0,2.11-5.36l0-15.59a2,2,0,0,0,1-.68c.33-.42.66-.85,1-1.21a108.83,108.83,0,0,0,9.37-11.73c2.9-4.18,4.35-6.28,5.24-8.81a23,23,0,0,0,1.08-4.56l27.52-27.52a3.48,3.48,0,0,0,1-3,6.39,6.39,0,0,0-5.59-11.38,6.26,6.26,0,0,0-3.23,2.46,3.41,3.41,0,0,0-3.09.93L798.34,347a37.34,37.34,0,0,0-1.58-3.74,7.59,7.59,0,0,0,1.16-3.11,8.23,8.23,0,0,0-1.57-5.95,2,2,0,0,0-2.67-.49,10.23,10.23,0,0,1-3.88,1.5,8.34,8.34,0,0,1-3.21-.15,10.48,10.48,0,0,0-4.68,0,11,11,0,0,0-6.72,4.13,10.47,10.47,0,0,0-1.93,5.15,12.06,12.06,0,0,0,2.42,8.44,2,2,0,0,0,.66.56,6.41,6.41,0,0,0,2.29,2.91,5.56,5.56,0,0,1-.94,3.15c-.06.09-.13.17-.2.25-2-.14-5.56.09-12.47.84a68.56,68.56,0,0,0-40.95,19.66l-29.48,29.48a2,2,0,0,0,1.22,3.4c6.73.63,12.14,2.81,16.08,6.47a21.38,21.38,0,0,1,5.46,8.55l-4.62,4.62a8.57,8.57,0,0,0,0,12.09,8.56,8.56,0,0,0,6,2.49,8.46,8.46,0,0,0,6-2.5l34.12-34.11h0v3.49l-17.34,17.32a8,8,0,0,0,11.27,11.27l19.6-19.58A2,2,0,0,0,772.74,422.7Zm10.21-36.85a104.64,104.64,0,0,1-9,11.3l-.18.21,0,0c-1-.49-2.15-1.09-3.32-1.78a40.19,40.19,0,0,1-4.58-3.15,37.38,37.38,0,0,1-3.67-3.3,17.09,17.09,0,0,1,3.59-6.52,18.08,18.08,0,0,1,12.36-5.88,2,2,0,0,0,1.91-2.08,2,2,0,0,0-2.09-1.91A22.12,22.12,0,0,0,762.74,380a21.13,21.13,0,0,0-4.12,7.1c-.25.71-.44,1.41-.6,2.07a2,2,0,0,0-.05.23,22.07,22.07,0,0,0-.54,3.9c0,.35,0,.68,0,1a2.64,2.64,0,0,1-.39.17l-.05,0-.43.12-.28.05-.27,0-.58.07a19.85,19.85,0,0,1-2.91,0c-.46,0-.91-.07-1.33-.13l-.47-.09-.08,0-.38-.09-.09,0-.3-.09-.11,0-.32-.13c0-.18,0-.36,0-.56a29.87,29.87,0,0,1,7.33-18.86,28.86,28.86,0,0,1,10.54-7.53c.55-.23,1.1-.44,1.63-.63l.87-.28.74-.24.59-.16.95-.25.37-.08,1.08-.23h0l1.23-.21h.1l1-.13.21,0,.65-.06.3,0,.57,0a1.68,1.68,0,0,0,.56-.12l.06.06a13.58,13.58,0,0,0,6,3.57,13.45,13.45,0,0,0,3.62.49c.25,0,.5,0,.75,0a20.26,20.26,0,0,1-.88,9.29C787,380,785.64,382,782.95,385.86Zm-30.62,12.83h0c.72.05,1.31.06,1.66.06h.26c.63,0,1.2,0,1.72-.11a2.45,2.45,0,0,1-.23.8,2.4,2.4,0,0,1-3.21,1.08,2.37,2.37,0,0,1-1-1Zm64.39-62a2.27,2.27,0,0,1,.77-.13,2.33,2.33,0,0,1,1.06.25,2.38,2.38,0,0,1,1.08,3.21,2.28,2.28,0,0,1-.34.51,16.65,16.65,0,0,0-3.37-3.39A2.34,2.34,0,0,1,816.72,336.65Zm-20.83,16.41a17.25,17.25,0,0,1,.28,1.77c.09.77.1,1.43.12,2.23l0,.87a.54.54,0,0,1-.23.48,5.57,5.57,0,0,1-2,.8,6.2,6.2,0,0,1-4.66-1.14,2,2,0,1,0-2.37,3.23,10.39,10.39,0,0,0,6,2,9.94,9.94,0,0,0,1.76-.16,9.79,9.79,0,0,0,3.42-1.35,4.57,4.57,0,0,0,2.07-4l0-.84a23,23,0,0,0-.48-4.7c-.06-.29-.12-.58-.19-.87l11.54-11.53.57-.57a8.32,8.32,0,0,1,3.16,2.19,8.23,8.23,0,0,1,2.15,3.14l-.6.6L792.64,369a28.6,28.6,0,0,0-.42-2.92v0a2,2,0,0,0-.11-.35v0a2,2,0,0,0-.16-.3l0,0a1.94,1.94,0,0,0-.21-.25l0,0a2.08,2.08,0,0,0-.22-.18l-.08-.06-.19-.1-.15-.08-.14,0-.23-.07-.15,0-.24,0a2.06,2.06,0,0,0-.41,0,9.48,9.48,0,0,1-8.94-2.8l.08-.11a9.63,9.63,0,0,0,1.59-6.53s0,0,0-.07a2,2,0,0,0-1.1-1.77c-1.12-.56-1.52-1.43-1.43-1.84a.91.91,0,0,1,.19-.38c.17-.07,1.11.07,1.9,1.27a2,2,0,0,0,3.66-1.18l-.08-2.05s.11-.29,1.06-.66l.2-.08a3.1,3.1,0,0,1,1.38-.21h.43a8.87,8.87,0,0,0,4.94-1.9,35.51,35.51,0,0,1,1.44,4Q795.59,351.6,795.89,353.06Zm-18.66-8.31a6.53,6.53,0,0,1,1.18-3.22,7.28,7.28,0,0,1,4.38-2.6,6.6,6.6,0,0,1,3.06.07,12.3,12.3,0,0,0,4.57.17,13.75,13.75,0,0,0,3.45-1,3.82,3.82,0,0,1,.09,1.47,3.7,3.7,0,0,1-.67,1.64l-.06.05a14.84,14.84,0,0,1-1.18,1.17,5.06,5.06,0,0,1-.56.33,2,2,0,0,0-.78.65,4.37,4.37,0,0,1-2.06.68h-.3a7,7,0,0,0-3,.57,5.56,5.56,0,0,0-3.21,2.66,4.59,4.59,0,0,0-3.65.09,3.93,3.93,0,0,0-.82.55A7.32,7.32,0,0,1,777.23,344.75Zm-62.62,71.79a28.52,28.52,0,0,0-14.37-7l26.65-26.66a64.69,64.69,0,0,1,36.18-18.21,32.2,32.2,0,0,0-9.33,7.31,34,34,0,0,0-8.34,22.75,3.12,3.12,0,0,0,1.86,2.68,6.35,6.35,0,0,0-.06.71l-26.78,26.77A23.93,23.93,0,0,0,714.61,416.54ZM750,439.85a4,4,0,0,1-5.61-5.61l17.92-17.9a2,2,0,0,0,.25-.31s0-.09.08-.14a2,2,0,0,0,.11-.2,1.88,1.88,0,0,0,.06-.2c0-.06,0-.11,0-.17a2,2,0,0,0,0-.39l0-8.33h0l2.82-2.82a2,2,0,0,0-2.83-2.83l-2.26,2.26h0L759,404.91h0l-37,37a4.58,4.58,0,0,1-6.45,0,4.41,4.41,0,0,1-1.3-3.19,4.46,4.46,0,0,1,1.31-3.21l3.52-3.52,3-3,24.77-24.76,1.83-1.83a6.41,6.41,0,0,0,2.13,1.71,6.33,6.33,0,0,0,2.82.66,6.42,6.42,0,0,0,6.33-7.43,3.38,3.38,0,0,0,1.49-2.84c0-.17,0-.36,0-.57.63.56,1.28,1.11,1.95,1.63a44.18,44.18,0,0,0,5,3.45c.86.51,1.69,1,2.5,1.37l0,16.95a3.88,3.88,0,0,1-1.22,2.84,2,2,0,0,0-.32.4Z" transform="translate(-694 -315.83)" style="fill:#1c3e58"/><circle cx="17.25" cy="150.58" r="2.25" style="fill:#1c3e58"/><circle cx="104.77" cy="80.28" r="2.25" style="fill:#1c3e58"/><circle cx="8.04" cy="40.05" r="2.25" style="fill:#1c3e58"/><path d="M707.51,353.52l18.9-18.9a4.26,4.26,0,0,0,0-6l-5.2-5.2,0-.1,28.55-3.44a.25.25,0,0,1,.27.27l-3.44,28.55,2,.24-2.09-.2-5.2-5.2a4.26,4.26,0,0,0-6,0l-34.24,34.24a2,2,0,1,0,2.83,2.83l34.24-34.24a.26.26,0,0,1,.37,0l5.2,5.2a4.06,4.06,0,0,0,6.9-2.39L754,320.59a4.25,4.25,0,0,0-4.72-4.72l-28.55,3.44a4.06,4.06,0,0,0-2.38,6.9l5.2,5.2a.27.27,0,0,1,0,.37l-18.9,18.9a2,2,0,0,0,2.83,2.83Z" transform="translate(-694 -315.83)" style="fill:#1c3e58"/><path d="M845.15,395.06a5.73,5.73,0,0,0-4.08-1.7h0a5.73,5.73,0,0,0-4.08,1.69l-6.8,6.8c-.08-.28-.17-.56-.26-.84a6.47,6.47,0,0,0,.57-2.84,6.59,6.59,0,0,0-1.25-3.58,2,2,0,0,0-2.42-.89,11.53,11.53,0,0,1-2.62.63,10.23,10.23,0,0,1-2.32,0,7.94,7.94,0,0,0-3.27.25,9.32,9.32,0,0,0-4.39,3,9.57,9.57,0,0,0-2.08,5,11.43,11.43,0,0,0,2.4,8.13c-1.49.05-3.58.24-6.56.56a45.51,45.51,0,0,0-27.19,13.06L761.5,443.61a2,2,0,0,0,1.14,3.39c4.11.58,6.9,1.91,8.29,4a13.42,13.42,0,0,1,1.1,2.18,14.85,14.85,0,0,0,2.55,4.33l-1.21,1.21a6.28,6.28,0,0,0,0,8.88,6.3,6.3,0,0,0,8.88,0l9-9a5.91,5.91,0,0,0,9.38,1.4l12.82-12.81a2,2,0,0,0,.27-.33,5.85,5.85,0,0,0,1.51-3.92v-3.52a2,2,0,0,0,.46-.42c.21-.26.41-.53.6-.74a71.51,71.51,0,0,0,6.19-7.75c1.87-2.7,2.9-4.18,3.52-5.94a15.81,15.81,0,0,0,.7-2.88l18.43-18.43A5.78,5.78,0,0,0,845.15,395.06Zm-18.44,9.28a19.92,19.92,0,0,1,.36,2.08c.25,2.08.37,3.43-.25,5a4.47,4.47,0,0,1-1.12,1.77,3.94,3.94,0,0,1-1.27.78l-.28,0h0a5.61,5.61,0,0,1-2.65-.08,5.74,5.74,0,0,1-2.9-1.94,1.07,1.07,0,0,0-.24-.24,1.82,1.82,0,0,0-.26-.34l.1-.13.1-.17.09-.17c0-.06,0-.12.07-.18s0-.12.06-.18,0-.12,0-.18a1.92,1.92,0,0,0,0-.21s0,0,0-.06c0-1.95.44-3.3,1.25-4s1.69-.77,3.2-.92A11.23,11.23,0,0,0,826.72,404.34Zm-10.6-1.3a5.61,5.61,0,0,1,1.19-3,5.35,5.35,0,0,1,2.46-1.66,4.07,4.07,0,0,1,1.78-.09,14.23,14.23,0,0,0,3.12,0,15.1,15.1,0,0,0,1.78-.32,2.26,2.26,0,0,1,0,.32,2.77,2.77,0,0,1-.67,1.81c-.62.77-1.56.89-3.15,1a8.85,8.85,0,0,0-5.5,1.92,6.63,6.63,0,0,0-1.05,1.22A5.89,5.89,0,0,1,816.12,403Zm-38.7,51.58a11.44,11.44,0,0,1-1.72-3.06,15.47,15.47,0,0,0-1.46-2.86,12.9,12.9,0,0,0-7.31-4.87l16.68-16.69a41.54,41.54,0,0,1,19.73-11,21.06,21.06,0,0,0-3.18,2.94,23,23,0,0,0-4.83,10,5.79,5.79,0,0,0,1.14,5,5.11,5.11,0,0,0,.72.75h0l-19.77,19.77Zm20.39,2.49a2,2,0,0,1-2.69,0,1.89,1.89,0,0,1-.55-1.35,1.92,1.92,0,0,1,.12-.66L807,442.84a2,2,0,0,0,0-2.83l-.07-.06,0-.06a2,2,0,0,0-2.83,0L792.29,451.6a5.91,5.91,0,0,0-.88,1.14l-8.2,8.2-3.79,3.79a2.3,2.3,0,0,1-3.24,0,2.28,2.28,0,0,1,0-3.2l1.41-1.41h0l3-2.95h0l12.83-12.83h0l8-8,.33,0a5.82,5.82,0,0,0,3.57-1.82c.4.35.79.7,1.21,1a28.88,28.88,0,0,0,3.36,2.31c.45.27.91.52,1.37.77v4.35a1.84,1.84,0,0,1-.58,1.35,2,2,0,0,0-.29.34Zm24.43-33.92a23.8,23.8,0,0,1-3,5,68.24,68.24,0,0,1-5.61,7.07c-.56-.28-1.11-.57-1.68-.91a25,25,0,0,1-2.92-2,21.83,21.83,0,0,1-1.91-1.7,10.38,10.38,0,0,1,2-3.71,11.09,11.09,0,0,1,7.6-3.61,2,2,0,0,0,1.9-2.09,2,2,0,0,0-2.09-1.91,15.53,15.53,0,0,0-8.1,2.86,14.48,14.48,0,0,0-2.31,2.1,13.55,13.55,0,0,0-2.55,4.5c-.09.25-.18.51-.26.78v0q-.16.51-.29,1.06s0,.1,0,.15v0a1.9,1.9,0,0,1-1.77,1.49h0a2,2,0,0,1-.55-.07h0A1.73,1.73,0,0,1,800,432l-.21-.16a1.2,1.2,0,0,1-.25-.25,1.54,1.54,0,0,1-.21-.33,1.8,1.8,0,0,1-.15-1.24,19.83,19.83,0,0,1,3.94-8.31,16.61,16.61,0,0,1,1.91-1.86,18.81,18.81,0,0,1,6.68-3.59h0a19.73,19.73,0,0,1,4.53-.81.2.2,0,0,0,.11,0l.18.16a9.43,9.43,0,0,0,6.27,2.47A12.36,12.36,0,0,1,822.24,423.21Zm20.08-22.82L830.9,411.81a13.4,13.4,0,0,0,.22-5.24l8.7-8.69a1.76,1.76,0,0,1,1.25-.52,1.87,1.87,0,0,1,1.25.52A1.77,1.77,0,0,1,842.32,400.39Z" transform="translate(-694 -315.83)" style="fill:#1c3e58"/><path d="M729.71,445.46l-15.12,15.13a2,2,0,1,0,2.83,2.83l15.13-15.12a2,2,0,0,0-2.83-2.83Z" transform="translate(-694 -315.83)" style="fill:#1c3e58"/><path d="M741.28,448.78l-7.56,7.56a2,2,0,1,0,2.83,2.83l7.56-7.56a2,2,0,1,0-2.83-2.83Z" transform="translate(-694 -315.83)" style="fill:#1c3e58"/><path d="M801.41,393.74a2,2,0,0,0,2.83,0l24.45-24.45a2,2,0,0,0-2.83-2.83l-24.45,24.45A2,2,0,0,0,801.41,393.74Z" transform="translate(-694 -315.83)" style="fill:#1c3e58"/><path d="M843.16,450.44a1.84,1.84,0,0,0-.06-.2,1.79,1.79,0,0,0-.1-.19,1.64,1.64,0,0,0-.08-.15,2,2,0,0,0-.55-.55l-.15-.08-.2-.1-.2-.06-.17-.05a2,2,0,0,0-.39,0h-12a2,2,0,0,0,0,4h7.17l-16.08,16.08a2,2,0,1,0,2.83,2.83l16.08-16.08V463a2,2,0,0,0,4,0V451a2,2,0,0,0,0-.39A1.5,1.5,0,0,0,843.16,450.44Z" transform="translate(-694 -315.83)" style="fill:#1c3e58"/></svg>