<svg id="177c363e-e797-46a7-8df3-93264892c36d" data-name="icons" xmlns="http://www.w3.org/2000/svg" viewBox="0 0 109.52 152.29"><path d="M242.3,956.69a19.49,19.49,0,0,1-6.81-.37,1.94,1.94,0,0,0-1.62.29A2,2,0,0,0,233,958a23.6,23.6,0,0,1-3,9v31.06a8,8,0,0,0,14.73,4.3,7.8,7.8,0,0,0,1.25-3.8,4,4,0,0,1-2-6,4.07,4.07,0,0,1,2-1.51v-4.22h-.41a4,4,0,1,1,0-8H246v-4a4,4,0,0,1-2-7.45,3.9,3.9,0,0,1,2-.55V955.63a10.6,10.6,0,0,1-2,.72A15,15,0,0,1,242.3,956.69Z" transform="translate(-179.48 -855.83)" style="fill:#aea8ef"/><path d="M230,933.28v13.13c.67.12,1.34.23,2,.32a56.12,56.12,0,0,0,10.85.52l1.15-.07c.71,0,1.37-.1,2-.16V933.28A36.61,36.61,0,0,1,230,933.28Z" transform="translate(-179.48 -855.83)" style="fill:#aea8ef"/><path d="M252.48,905.18a16,16,0,0,0-4.56-2,16.48,16.48,0,0,1-9.66,3.44h-.36a16.2,16.2,0,0,1-10-3.48h0a15.58,15.58,0,0,0-4.68,2c-5.61,3.57-7.06,9.56-7.44,13,0,0,0,0,0,0a30,30,0,0,0,44.14.24C259.6,915,258.22,908.86,252.48,905.18Z" transform="translate(-179.48 -855.83)" style="fill:#f66467"/><path d="M215.8,918.16v0Z" transform="translate(-179.48 -855.83)" style="fill:#fabf62"/><g id="3cca1fbc-da93-4619-a821-21d4bb377563" data-name="recruitment"><circle cx="22.52" cy="8.17" r="2.25" style="fill:#1c3e58"/><circle cx="92.85" cy="76.17" r="2.25" style="fill:#1c3e58"/><path d="M267.83,927.83A42.22,42.22,0,1,0,228,939v3c-.5-.11-1-.23-1.51-.36a2.18,2.18,0,0,0-.88,0,77.07,77.07,0,0,0-11.81,3.34c-4.32,1.61-8.15,3-11.81,5.75a2,2,0,0,0-2-1.79H181.48a2,2,0,0,0,0,4H198v48h-4.41a2,2,0,1,0,0,4H200a2,2,0,0,0,2-2v-1.12l.56.25c1.36.61,2.78,1.24,4.36,1.85a39.83,39.83,0,0,0,8.66,2.29c1.93.27,8.37.58,10.72.58h3c1.1,0,2.19-.05,3.29-.14a10,10,0,0,0,14.2-3.72h6.3a8,8,0,0,0,6.78-12.23A8,8,0,0,0,263.48,977a8,8,0,0,0,0-12.36A8,8,0,0,0,258,950.84h-2.83c.83-2.24,1-4.55-.31-6.27-1.47-2-3.85-2-6.86-1.77V939A41.89,41.89,0,0,0,267.83,927.83ZM244,943.17q-.66.06-1.35.09a52.59,52.59,0,0,1-10.65-.58v-2.94a42.1,42.1,0,0,0,12,0Zm-1.78,17.56a8,8,0,0,0,1.14,2.56,8,8,0,0,0-2.84,13.37,8,8,0,0,0,.76,12.91,8,8,0,0,0,1.65,12,6,6,0,0,1-4.93,2.58,6,6,0,0,1-6-6V971.33c.23-.32.45-.64.67-1a27.61,27.61,0,0,0,4-9.74A23.22,23.22,0,0,0,242.22,960.73Zm10.9,38.11h-5.83a4.05,4.05,0,0,1-1.31-.22,4,4,0,0,1-2-6,4.07,4.07,0,0,1,2-1.51,4,4,0,0,1,1.29-.22h5.83a4,4,0,0,1,0,8Zm4.88-12H245.59a4,4,0,1,1,0-8H258a4,4,0,0,1,0,8Zm.41-20a4,4,0,1,1,0,8H246a4,4,0,0,1-2-7.45,3.9,3.9,0,0,1,2-.55h12.41Zm-.41-12a4,4,0,0,1,0,8h-8a4,4,0,0,1-3.86-3,14.19,14.19,0,0,0,1.86-.78,13.16,13.16,0,0,0,3.4-2.43,15.54,15.54,0,0,0,1.58-1.84Zm-6.36-7.9c.4.54.08,2.16-.83,3.9a12.21,12.21,0,0,1-2.21,3,6.08,6.08,0,0,1-.6.53,9.5,9.5,0,0,1-2,1.27,10.6,10.6,0,0,1-2,.72,15,15,0,0,1-1.7.34,19.49,19.49,0,0,1-6.81-.37,1.94,1.94,0,0,0-1.62.29A2,2,0,0,0,233,958a23.6,23.6,0,0,1-3,9c-.21.37-.43.74-.67,1.1-.43.65-.87,1.25-1.33,1.82a23.44,23.44,0,0,1-7.43,6.09,2,2,0,0,0-.84,2.7,2,2,0,0,0,1.77,1.07,2.09,2.09,0,0,0,.93-.22,27.92,27.92,0,0,0,5.57-3.86v22.36a9.89,9.89,0,0,0,1.11,4.57H226.3c-2.35,0-8.54-.31-10.14-.54a36,36,0,0,1-7.81-2.07c-1.48-.57-2.84-1.18-4.16-1.77l-2.19-1V955.87c.16-.17.34-.33.51-.49,3.57-3.26,7.15-4.69,12.69-6.75A72.32,72.32,0,0,1,226,945.56c.68.17,1.37.32,2,.46s1.34.28,2,.39,1.34.23,2,.32a56.12,56.12,0,0,0,10.85.52l1.15-.07c.71,0,1.37-.1,2-.16l1.07-.1.93-.09C249.66,946.67,251.36,946.57,251.64,946.94ZM246,933.28c-.66.15-1.33.28-2,.39a36.6,36.6,0,0,1-12,0c-.67-.11-1.34-.24-2-.39s-1.34-.32-2-.52a35.83,35.83,0,0,1-15.59-9.17,36.19,36.19,0,1,1,51.18,0A35.83,35.83,0,0,1,248,932.76C247.34,933,246.67,933.13,246,933.28Z" transform="translate(-179.48 -855.83)" style="fill:#1c3e58"/><circle cx="191.17" cy="993.38" r="3.47" transform="matrix(0.27, -0.96, 0.96, 0.27, -996.61, 55.87)" style="fill:#1c3e58"/><path d="M199.44,930.22A2,2,0,0,0,201,927a47,47,0,0,1-1.46-56,2,2,0,0,0-3.27-2.31,51,51,0,0,0,1.58,60.82A2,2,0,0,0,199.44,930.22Z" transform="translate(-179.48 -855.83)" style="fill:#1c3e58"/><path d="M279.46,868.29a2,2,0,1,0-3.25,2.34,47,47,0,0,1-.73,55.72,2,2,0,1,0,3.18,2.42,51,51,0,0,0,.79-60.48Z" transform="translate(-179.48 -855.83)" style="fill:#1c3e58"/><path d="M261.41,919.78a2,2,0,0,0,.52-1.56c-.37-3.73-2-10.61-8.36-14.72a17.88,17.88,0,0,0-5.08-2.24,2,2,0,0,0-.57-.08h0a2,2,0,0,0-1.18.39,14.55,14.55,0,0,1-8.47,3h-.41a14.28,14.28,0,0,1-8.72-3.09,2,2,0,0,0-1-.38h-.24a2,2,0,0,0-.54.08,17.37,17.37,0,0,0-5.21,2.28c-6.3,4-7.94,10.75-8.35,14.43a2,2,0,0,0,0,.23h0s0,.07,0,.11h0a2,2,0,0,0,.11.56h0a2,2,0,0,0,.38.65h0l0,0a32,32,0,0,0,47.08.25ZM252,922.22v-7.14a2,2,0,1,0-4,0v9.05a27.75,27.75,0,0,1-20,0v-9.06a2,2,0,1,0-4,0v7.15a28,28,0,0,1-6.09-4.73,14.86,14.86,0,0,1,6.44-10.65,12.94,12.94,0,0,1,3.22-1.52,17.79,17.79,0,0,0,10.33,3.29h.36a18.16,18.16,0,0,0,10-3.25,13.56,13.56,0,0,1,3.13,1.49c4.37,2.8,5.93,7.29,6.44,10.86A27.76,27.76,0,0,1,252,922.22Z" transform="translate(-179.48 -855.83)" style="fill:#1c3e58"/><path d="M222.39,888.12a8.09,8.09,0,0,0,1.9,3.24,16.14,16.14,0,0,0,4.92,7.7c2.83,2.41,5.86,3.67,8.79,3.57h.26a13.27,13.27,0,0,0,8.46-3.58,16.11,16.11,0,0,0,4.9-7.69,8,8,0,0,0,1.89-3.2c.15-.45,1.29-4.22-.81-6.18a13.26,13.26,0,0,0-.17-6.68,12.78,12.78,0,0,0-4-6.2c-3.71-3-8.38-3.09-10.13-3.1h-.78c-1.76,0-6.43.05-10.14,3.1a12.78,12.78,0,0,0-4,6.2,13.5,13.5,0,0,0-.18,6.7C221.13,884,222.26,887.71,222.39,888.12ZM249.7,887a4,4,0,0,1-1.18,1.84,2,2,0,0,0-.62,1,12.12,12.12,0,0,1-3.79,6.2,9.51,9.51,0,0,1-6,2.61h-.3a9.47,9.47,0,0,1-6-2.62,12.12,12.12,0,0,1-3.78-6.19,2,2,0,0,0-.62-1,4.09,4.09,0,0,1-1.2-1.88,4.84,4.84,0,0,1-.21-2l.07,0a2,2,0,0,0,.29-.09,2,2,0,0,0,.34-.19l.2-.16a2.23,2.23,0,0,0,.36-.43,2,2,0,0,0,.18-.38s0-.06,0-.09c.65-2.17,1.55-3.57,2.53-3.94.69-.26,1.37-.05,2.73.39a17.09,17.09,0,0,0,4.56,1c.22,0,.44,0,.65,0l.65,0a17.09,17.09,0,0,0,4.56-1c1.36-.44,2-.64,2.73-.39,1,.36,1.86,1.76,2.51,3.94a2,2,0,0,0,1.45,1.35l.06,0A4.94,4.94,0,0,1,249.7,887Zm-22.48-10.53a8.73,8.73,0,0,1,2.75-4.24c2.62-2.15,6.14-2.18,7.65-2.19h.7c1.5,0,5,0,7.63,2.19a8.73,8.73,0,0,1,2.75,4.24l.07.25a5.93,5.93,0,0,0-1.46-.8c-2-.76-3.73-.21-5.37.33a13.3,13.3,0,0,1-3.54.78,8,8,0,0,1-.86,0,13.29,13.29,0,0,1-3.54-.78,10.77,10.77,0,0,0-3.34-.7,5.72,5.72,0,0,0-2,.37,5.94,5.94,0,0,0-1.46.8Z" transform="translate(-179.48 -855.83)" style="fill:#1c3e58"/></g></svg>