<svg id="cff0476a-5484-41c9-85bf-9cd9a9b0bf7f" data-name="icons" xmlns="http://www.w3.org/2000/svg" viewBox="0 0 128.04 166.25"><path d="M804.52,694.13a33.32,33.32,0,0,0-9.17-18,1.92,1.92,0,0,0-.5.3,15.12,15.12,0,0,1-2.57,1.55s-.69.36-1,0,.38-2.63-.93-2.76-5.32-.14-7.3,1.25-3.38,3.36-3.11,3.68.57.4.57,1c0,.47.32,1.3,0,1.92-.22.15-.56.42-.95.64l-.19.09h0a1.57,1.57,0,0,1-2-.25c-.12-.14-.06-.43-.09-.69h0c-.1-.84-.19-2-.27-2.29s-.57-1.61-1-1.39-2.06,2.23-2.67,2.42-1.41,0-1.45.58.74,2,1.58,1.88,1.93-.94,2.32-.77a2.48,2.48,0,0,1,.71,1.93c-.09.58.18,1-1,1.3s-2-.58-2.46,0-1.28,2-1.14,2.5,1.2.66,1.86.83a7.48,7.48,0,0,0,3.24-.78,9,9,0,0,1,3.24-1.39c.18,0,1.06.06,2.06.09a3.89,3.89,0,0,0,2.33,1.47,3.25,3.25,0,0,0,1.82-.07.75.75,0,0,1,1,.32,3.2,3.2,0,0,0,.39.61c.7.86,1,.17,1,.17s-.5-1,.16-1a2.4,2.4,0,0,1,1.54.58,2.9,2.9,0,0,0,1.41,1.13,1,1,0,0,1,.57,1.2s-4.53.58-6.33.22a5.18,5.18,0,0,1-3.38-2c-1-1.08-.67-2.14-2.72-1.56s-2.2,1-3.52,1.29a17.11,17.11,0,0,0-2.38.77l-.07,0c-.9.29-2.15.52-2.5,1.23a15.18,15.18,0,0,1-.87,2c-.57.94-1.94,1.71-2,2.16a36.15,36.15,0,0,0,0,6.27c.3,1.88,1.18,2,2.1,3.22s1.32,1.44,2.5,1.39,2.16-.53,3.83-.67,2.81-.45,3.42.5.17,2.14.92,3,1.88,0,1.93,1.8-.35,4.34-.4,5.73,1.63,3.77,2,4.93.62,1.34,2.06,1.34a4.34,4.34,0,0,0,3.86-1.7,32.85,32.85,0,0,0,3-4,7.68,7.68,0,0,0,1.71-3.94c.09-1.42-1.19-1.3.52-3a34,34,0,0,0,4.26-4.83c1.09-1.62,1.63-3.49,1.09-3.63s-4.3-.27-4.3-.27a2.42,2.42,0,0,1-2.42-2.11c-1.06-7.08-.09-3.85-.09-5.6,1.76,1.3,1.66,2.19,2.24,3.68.38,1,.31,1.84.82,2.35a2,2,0,0,0,1.34.46c.77.06,4.82.35,6.05-2.49C806.06,696.63,804.66,694.36,804.52,694.13Z" transform="translate(-708.15 -578.19)" style="fill:#f66467"/><path d="M767.84,730.3a22.11,22.11,0,0,1-4.32-2.11c-2-1.24-2.31-1.91-2.43-2.17-.57-1.22.13-1.67-.19-3.67-.36-2.22-1.4-2.69-1-3.81a15.66,15.66,0,0,0,1-2.18,1.2,1.2,0,0,0,0-.9c-.1-.19-.32-.29-.69-.55-.69-.51-.1-1.22-.21-2.45s.48-.9.37-2.26-.07-.8-.78-1.5a2.52,2.52,0,0,0-.87-.66c-.43-.15-.59.11-.86,0s-.26-.73-.43-1.55a3.34,3.34,0,0,0-.9-2c-.56-.43-1-.09-2.2-.19-1.49-.14-1.57-.79-2.77-1-2-.32-3,1.35-4.27.87-.56-.21-1.25-.83-1.68-2.77-.85-1.06-2-3.13-1.36-4.1.37-.54.93-.18,1.84-.79s.67-1.39,2-3,2.25-1.74,2.56-1.61h0c.22,0,.29-1.08.3-2.25.08-.19.22-.42.4-.43s.33.37.65.52a1.25,1.25,0,0,0,1-.2c1.61-.89,2.44-.39,4-1.56a5.07,5.07,0,0,0,2.24-3c.16-1-.23-1.29,0-2.5s.65-1.27,1-2.39a4.89,4.89,0,0,0-.11-3.26c-1-2-3.65-2.17-3.84-2.18l-2.51-3.7L751.36,672c-2.06,1.85-3.67,3.5-4.8,4.73a24.48,24.48,0,0,0-2.56,3.1,26.65,26.65,0,0,0-2.24,4.41c-.5,1.13-.93,2.24-1.76,4.41-.92,2.4-1.39,3.61-1.44,3.92a12.3,12.3,0,0,0,1.64,7h0a10.77,10.77,0,0,1,3,1.3,4,4,0,0,1,1.6,2.61c0,1.15-.49,1.56-.32,3.1.09.79.26.74.32,1.46.11,1.3-.41,2-.64,3a7.14,7.14,0,0,0,.32,3.37c.89,3.81,4,7.18,4.59,7.84a22.25,22.25,0,0,0,4.29,4,28.22,28.22,0,0,0,5.16,2.79c1.55.68,1.7.62,3.8,1.55a14.48,14.48,0,0,0,3,1.24c2,.4,4.16-.11,4.2-.63C769.56,731.07,769.25,730.76,767.84,730.3Z" transform="translate(-708.15 -578.19)" style="fill:#f66467"/><path d="M765.2,635.71a11,11,0,0,0,13.91,0,2,2,0,0,0-2.39-3.21,7,7,0,0,1-9.14,0,2,2,0,1,0-2.39,3.21Z" transform="translate(-708.15 -578.19)" style="fill:#1c3e58"/><path d="M779.23,618.38a2,2,0,0,1,1.22-.46,2.18,2.18,0,0,1,1.27.46,2,2,0,1,0,2.61-3,6,6,0,0,0-3.86-1.43h-.08a5.94,5.94,0,0,0-3.77,1.43,2,2,0,1,0,2.61,3Z" transform="translate(-708.15 -578.19)" style="fill:#1c3e58"/><circle cx="102.21" cy="24.46" r="2.25" style="fill:#1c3e58"/><path d="M795.9,582a35,35,0,0,1,11,15.73A2,2,0,0,0,808.8,599a2,2,0,0,0,.7-.13,2,2,0,0,0,1.17-2.58,38.75,38.75,0,0,0-12.3-17.46A2,2,0,1,0,795.9,582Z" transform="translate(-708.15 -578.19)" style="fill:#1c3e58"/><path d="M739.69,684.51l0,.1A34.77,34.77,0,0,0,736.83,696c-.08.91-.12,1.84-.12,2.78a35.46,35.46,0,0,0,70.92,0c0-.74,0-1.46-.08-2.17a34.83,34.83,0,0,0-8.69-21.14,35.4,35.4,0,0,0-46.64-6l-.84.61-.85.62a35.24,35.24,0,0,0-9.34,10.83h0l0,.07A32.76,32.76,0,0,0,739.69,684.51Zm3.61,1.74,0-.09a28.08,28.08,0,0,1,1.33-2.68l0-.07a31.16,31.16,0,0,1,8.19-9.52l.84-.61.75-.55a31.41,31.41,0,0,1,41.35,5.35,30.88,30.88,0,0,1,7.71,18.76c0,.64.07,1.27.07,1.91a31.46,31.46,0,0,1-62.92,0q0-1.23.11-2.45A30.87,30.87,0,0,1,743.3,686.25Z" transform="translate(-708.15 -578.19)" style="fill:#1c3e58"/><path d="M728.52,629.81a2,2,0,0,0-.75,2.09,25.87,25.87,0,0,0,7.68,13,24.54,24.54,0,0,0,5.14,3.54,2,2,0,1,0,1.83-3.56,20.41,20.41,0,0,1-4.3-3,21.58,21.58,0,0,1-6.12-9.79,30.17,30.17,0,0,0,9.53-12.42,26,26,0,0,0,1.73-9.69,26.38,26.38,0,0,1,1.67-9.55,27.35,27.35,0,0,1,8.49-12.26c3.26-2.56,9-5.69,18.17-6.05l.54,0,.65,0c9.11.36,14.91,3.49,18.16,6.05a27.32,27.32,0,0,1,8.49,12.26,26.32,26.32,0,0,1,1.67,9.55,26,26,0,0,0,1.73,9.69,30.17,30.17,0,0,0,9.54,12.42,21.57,21.57,0,0,1-6.12,9.79,20.34,20.34,0,0,1-4.3,3,2,2,0,0,0,1.83,3.56,24.54,24.54,0,0,0,5.14-3.54,25.85,25.85,0,0,0,7.68-13,2,2,0,0,0-.75-2.09,26.85,26.85,0,0,1-9.3-11.52,22.08,22.08,0,0,1-1.45-8.35,30.43,30.43,0,0,0-1.92-10.83,31.11,31.11,0,0,0-9.76-14c-3.72-2.93-10.29-6.5-20.47-6.91l-.81,0-.71,0c-10.19.4-16.76,4-20.48,6.91a31.15,31.15,0,0,0-9.76,14,30.47,30.47,0,0,0-1.92,10.83,22.1,22.1,0,0,1-1.45,8.35A26.85,26.85,0,0,1,728.52,629.81Z" transform="translate(-708.15 -578.19)" style="fill:#1c3e58"/><path d="M749.68,610.82a2,2,0,0,0-2.11,1.88c0,.61-.06,1.25-.06,1.9,0,1.38,0,2.77.15,4.13,0,0,0,.09,0,.13.08,1.74.27,3.09.38,3.83,1.51,9.95,9.29,25.85,23.84,26.18h.56c14.58-.33,22.33-16.24,23.79-26.18l0-.25c.07-.44.17-1.05.23-1.8,0,0,0-.06,0-.09a2.08,2.08,0,0,0,0-.22c0-.06,0-.12,0-.19a1.87,1.87,0,0,0,0-.19,1.77,1.77,0,0,0-.07-.2s0-.06,0-.09a56.5,56.5,0,0,0-4.33-8,62,62,0,0,0-11.68-13.48,29.61,29.61,0,0,0,.82-3,2,2,0,0,0-3.92-.82A27.89,27.89,0,0,1,767,610.53a28.36,28.36,0,0,1-15.45,5.65c0-.51,0-1,0-1.52s0-1.17.06-1.73A2,2,0,0,0,749.68,610.82Zm10.26,7.81a2,2,0,0,0,2.53-.06,2.21,2.21,0,0,1,1.27-.46,2,2,0,0,1,1.21.46,2,2,0,1,0,2.62-3l-.39-.3c.74-.47,1.48-1,2.21-1.52a31.34,31.34,0,0,0,9.4-11.63,57.94,57.94,0,0,1,9.88,11.69,52.94,52.94,0,0,1,3.81,7c0,.41-.1.76-.15,1l0,.29c-1.27,8.66-7.81,22.5-19.88,22.77h-.47c-12-.27-18.62-14.12-19.93-22.8-.06-.4-.15-1.06-.23-1.9A33.33,33.33,0,0,0,759.94,618.63Z" transform="translate(-708.15 -578.19)" style="fill:#1c3e58"/><circle cx="12.44" cy="85.1" r="2.25" style="fill:#1c3e58"/><path d="M712.15,698.27a47.28,47.28,0,0,1,.22-4.75,59,59,0,0,1,4.74-19.12l.14-.31c.69-1.59,1.49-3.19,2.47-4.94a2,2,0,0,0-3.41-2.09l-.1.16a57.54,57.54,0,0,0-2.6,5.21c-.08.16-.15.32-.19.43a62.79,62.79,0,0,0-5,20.32c-.16,1.62-.24,3.28-.24,5.1a64.27,64.27,0,0,0,2.18,16.67,2,2,0,0,0,1.93,1.48,2.12,2.12,0,0,0,.52-.07,2,2,0,0,0,1.41-2.45A60.23,60.23,0,0,1,712.15,698.27Z" transform="translate(-708.15 -578.19)" style="fill:#1c3e58"/><circle cx="122.12" cy="141.58" r="2.25" style="fill:#1c3e58"/><path d="M828,693.92a54.93,54.93,0,0,0-4.46-18l0-.1a46.83,46.83,0,0,0-2.27-4.55,2,2,0,0,0-.11-.24,55.77,55.77,0,0,0-14.77-17.13l-.09-.07c-.49-.34-1-.69-1.46-1l-1.14-.82a54.74,54.74,0,0,0-14-6.89l-.08,0-.21,0-.18,0h-.38l-.21,0-.16,0-.2.08-.16.08-.17.1-.17.13-.07.05a22.6,22.6,0,0,1-15.23,6.35l-.54,0a23,23,0,0,1-15.4-6.33l-.06,0-.17-.13-.16-.1-.17-.08-.19-.08-.18,0-.2,0H755l-.18,0-.22,0-.07,0A54.75,54.75,0,0,0,740.68,652l-1.13.81c-.49.36-1,.71-1.46,1l-.1.07A55.66,55.66,0,0,0,723.24,671h0l0,.08a51.22,51.22,0,0,0-2.33,4.69l0,.1a54.81,54.81,0,0,0-4.46,18,43.42,43.42,0,0,0-.21,4.4,55.35,55.35,0,0,0,11,33.34c.86,1.18,1.75,2.29,2.7,3.39l.08.07h0a34.15,34.15,0,0,0,9.13,6.73c2.43,1.22,5.26,2.64,7.9,2.64a5.72,5.72,0,0,0,4.89-2.54,3.87,3.87,0,0,0,.58-3,4,4,0,0,0-1.82-2.53,34.25,34.25,0,0,1-6.34-4.9,3.21,3.21,0,0,0,1.29-5.37,2.19,2.19,0,0,0-.26-.21,21.71,21.71,0,0,1-2.47-2,23.63,23.63,0,0,1-1.95-2,3.77,3.77,0,0,0-.42-.42,2,2,0,0,0-.2-.34A38.68,38.68,0,0,1,733,698.28c0-.95.05-2,.16-3.06a38.06,38.06,0,0,1,3.08-12.53l.05-.12a31.24,31.24,0,0,1,1.64-3.3l.05-.1a37.92,37.92,0,0,1,4.24-6.12,2,2,0,1,0-3.05-2.59,41.9,41.9,0,0,0-4.71,6.81l0,.06a35.1,35.1,0,0,0-1.79,3.6l0,.1a42,42,0,0,0-3.42,13.84c-.11,1.18-.17,2.32-.17,3.4a42.68,42.68,0,0,0,6.53,22.82,15,15,0,0,0-4.46,2.69,14.58,14.58,0,0,0-2.48,2.83,51.39,51.39,0,0,1-8.42-28.34,39.43,39.43,0,0,1,.2-4.05,50.91,50.91,0,0,1,4.11-16.65l.05-.11a47.27,47.27,0,0,1,2.21-4.43l0-.09a51.67,51.67,0,0,1,13.62-15.83c.51-.35,1-.72,1.53-1.09l1-.76a50.63,50.63,0,0,1,11.81-6,26.82,26.82,0,0,0,17.12,6.6l.72,0a26.24,26.24,0,0,0,16.86-6.6,50.34,50.34,0,0,1,11.88,6l1.07.77c.51.37,1,.74,1.53,1.09a51.8,51.8,0,0,1,13.55,15.67,2.08,2.08,0,0,0,.13.27,43,43,0,0,1,2.22,4.42l0,.1A51.05,51.05,0,0,1,824,694.24c.11,1.31.17,2.67.17,4a51.39,51.39,0,0,1-8.42,28.33,14.54,14.54,0,0,0-2.47-2.82,15,15,0,0,0-4.45-2.69,42.68,42.68,0,0,0,6.53-22.82c0-1.07-.06-2.21-.17-3.35A42,42,0,0,0,811.79,681l0-.1a35.11,35.11,0,0,0-1.79-3.59l0-.08a41.87,41.87,0,0,0-4.71-6.81,2,2,0,0,0-3,2.59,37.69,37.69,0,0,1,4.23,6.11l.06.12a31.51,31.51,0,0,1,1.64,3.29l.05.12a38.14,38.14,0,0,1,3.08,12.57c.1,1.05.15,2.07.15,3A38.68,38.68,0,0,1,804,721.09a2,2,0,0,0-.2.34,3.78,3.78,0,0,0-.42.42,24,24,0,0,1-1.95,2,21.81,21.81,0,0,1-2.47,2,2.11,2.11,0,0,0-.26.21,3.22,3.22,0,0,0-.77,3.43,3.18,3.18,0,0,0,2.07,1.94,34.2,34.2,0,0,1-6.34,4.91,4,4,0,0,0-1.82,2.53,3.88,3.88,0,0,0,.57,3,5.73,5.73,0,0,0,4.89,2.54c2.64,0,5.48-1.42,7.93-2.65a34.1,34.1,0,0,0,9.11-6.72l0,0,0,0c1-1.1,1.84-2.21,2.69-3.37h0l.06-.09a55.38,55.38,0,0,0,11-33.25C828.19,696.79,828.13,695.32,828,693.92Zm-94.32,32.87a11,11,0,0,1,4.23-2.3,27.84,27.84,0,0,0,2.22,2.32q.67.62,1.35,1.19a3.42,3.42,0,0,0-.86,5.45,38.39,38.39,0,0,0,4.6,4.1,33,33,0,0,0,3.29,2.2,1.71,1.71,0,0,1-.42.41c-1.45,1-4.78-.7-7.24-1.93a30.2,30.2,0,0,1-8-5.94h0c-.59-.69-1.16-1.39-1.71-2.11A11,11,0,0,1,733.68,726.79Zm77.81,5.52a30.21,30.21,0,0,1-8,5.92c-2.43,1.22-5.76,2.89-7.21,1.92a1.74,1.74,0,0,1-.41-.39,38.15,38.15,0,0,0,7.82-6.25,3.41,3.41,0,0,0,.85-3.64,3.36,3.36,0,0,0-1.65-1.87q.68-.56,1.35-1.19a28,28,0,0,0,2.23-2.32,10.85,10.85,0,0,1,6.81,5.67C812.67,730.89,812.1,731.61,811.49,732.31Z" transform="translate(-708.15 -578.19)" style="fill:#1c3e58"/><path d="M836,693.32a63.06,63.06,0,0,0-5-20.47l-.07-.15-.11-.25c-.66-1.52-1.48-3.15-2.38-4.78l-.24-.46a2,2,0,1,0-3.58,1.79l.28.54c.89,1.6,1.66,3.13,2.27,4.55l.07.15.1.24A59.11,59.11,0,0,1,832,693.63c.13,1.63.2,3.19.2,4.64a60.39,60.39,0,0,1-2.05,15.64,2,2,0,0,0,1.41,2.45,1.94,1.94,0,0,0,.52.07,2,2,0,0,0,1.93-1.48,64.41,64.41,0,0,0,2.19-16.68C836.19,696.71,836.12,695,836,693.32Z" transform="translate(-708.15 -578.19)" style="fill:#1c3e58"/><circle cx="25.24" cy="25.41" r="2.25" style="fill:#1c3e58"/><path d="M724.75,626.8a2,2,0,0,0,1.19-.4,22.61,22.61,0,0,0,8-9.78,18.4,18.4,0,0,0,1.17-7,2,2,0,0,0-1.93-2.06,2,2,0,0,0-2.06,1.93,14.69,14.69,0,0,1-.89,5.67,18.76,18.76,0,0,1-6.63,8,2,2,0,0,0,1.2,3.6Z" transform="translate(-708.15 -578.19)" style="fill:#1c3e58"/></svg>