<svg id="339b195c-7c65-45c5-87d3-ec5bc349fc2b" data-name="icons" xmlns="http://www.w3.org/2000/svg" viewBox="0 0 148 164"><path d="M538.77,696.51a30.3,30.3,0,0,0-15.22-12.8c-1.31-.48-2.67-.84-2.67-.84-1-.26-2-.48-3-.65-.17,0-.34-.07-.49-.09a23.82,23.82,0,0,1-15.95,6.1h-2.43a23.83,23.83,0,0,1-16-6.1c-.15,0-.32.07-.49.09-1,.17-2,.39-3,.65,0,0-1.36.36-2.67.84a30.35,30.35,0,0,0-15.23,12.8,39.79,39.79,0,0,0-3.5,16v19c0,8.14,6.89,14.12,14.79,12.16l27.21-6.72,27.22,6.72c7.9,2,14.78-4,14.78-12.16v-19A39.42,39.42,0,0,0,538.77,696.51Zm-78.51,22.72,2.31-4.53a4.64,4.64,0,0,1,2.71-2.34l2.58-.86a17.45,17.45,0,0,1,8.78-.58l2.95.57a27.09,27.09,0,0,0-3.78,8.51h-4.74a10.08,10.08,0,0,0-6.91,2.73l-2.15,2-1.74-3.33A2.37,2.37,0,0,1,460.26,719.23Zm79.44,2.13L538,724.7l-2.16-2c-1.48-1.39-8.08-3.19-12.71-4.33a23.74,23.74,0,0,1,.81-7.38,19,19,0,0,1,8.21.48l2.57.86a4.73,4.73,0,0,1,2.72,2.34l2.31,4.53A2.43,2.43,0,0,1,539.7,721.36Z" transform="translate(-426 -582)" style="fill:#f66467"/><path d="M540.54,695.56a32.18,32.18,0,0,0-16.31-13.74c-1.37-.49-2.77-.87-2.82-.88-1-.28-2.07-.51-3.22-.71l-.14,0-.33-.06a2,2,0,0,0-1.6.49,21.9,21.9,0,0,1-14.62,5.59h-2.43a21.9,21.9,0,0,1-14.62-5.59,2.56,2.56,0,0,0-2.27-.39l-.29.08c-.92.17-1.83.37-2.73.61-.06,0-1.45.39-2.83.88A32.18,32.18,0,0,0,460,695.56l-.06.13a41.22,41.22,0,0,0-3.68,16.82v6a6.39,6.39,0,0,0,0,3.63v9.34a14.66,14.66,0,0,0,5.5,11.68A13.45,13.45,0,0,0,470.1,746a14.35,14.35,0,0,0,3.45-.42l26.73-6.6,26.73,6.6a13.65,13.65,0,0,0,11.77-2.43,14.66,14.66,0,0,0,5.5-11.68v-19a41.78,41.78,0,0,0-3.68-16.81Zm-17.67-10A28.6,28.6,0,0,1,537,697.4a37.76,37.76,0,0,1,3.26,14.28,8.69,8.69,0,0,0-4.3-3.16l-2.58-.86a23.31,23.31,0,0,0-11.32-.44H522l-20,3.47V691l13.28,6.8a2,2,0,0,0,2.9-1.6l1.05-11.68c.37.09.75.16,1.12.26C520.38,684.81,521.66,685.15,522.87,685.59ZM475.81,720h-4.74a10.08,10.08,0,0,0-6.91,2.73l-2.15,2-1.74-3.32V719.2l2.3-4.5a4.64,4.64,0,0,1,2.71-2.34l2.58-.86a17.45,17.45,0,0,1,8.78-.58l2.95.57A27.09,27.09,0,0,0,475.81,720Zm43.25-2.65L506.12,714l13.5-2.35A27.43,27.43,0,0,0,519.06,717.35Zm4,1a23.74,23.74,0,0,1,.81-7.38,19,19,0,0,1,8.21.48l2.57.86a4.73,4.73,0,0,1,2.72,2.34l2.31,4.53a2.43,2.43,0,0,1,0,2.18L538,724.7l-2.16-2C534.32,721.29,527.72,719.49,523.09,718.35Zm-30.7-28.95-6.85,3.51-.61-6.73A25.86,25.86,0,0,0,492.38,689.4Zm15.34.05a25.86,25.86,0,0,0,7.34-3.09l-.59,6.55Zm-30-3.87c1.21-.43,2.5-.78,2.51-.78l.58-.14,1,11.56a2,2,0,0,0,2.9,1.6L498,691V711.4l-1.36.24-13.11-3.34a2,2,0,0,0-.63-.25L477.39,707a21.41,21.41,0,0,0-10.8.72l-2.57.85a8.69,8.69,0,0,0-3.7,2.42,37.83,37.83,0,0,1,3.24-13.57A28.39,28.39,0,0,1,477.68,685.59Zm-5.09,56.11a9.55,9.55,0,0,1-8.35-1.69,10.69,10.69,0,0,1-4-8.53v-1.85a2,2,0,0,0,.85.35,1.79,1.79,0,0,0,.33,0,2,2,0,0,0,1.37-.54l4.07-3.81a6.13,6.13,0,0,1,4.18-1.65h4a25.78,25.78,0,0,0,0,5.89l.14,1.14h0a2.15,2.15,0,0,0,.06.27l0,.11a2,2,0,0,0,.08.2l.07.15.1.16.11.15.13.14.12.12.17.12.13.08.2.1.14.05.13,0,15.62,4.07ZM536.31,740a9.55,9.55,0,0,1-8.35,1.69l-16.8-4.15h0l-32-8.34a23.31,23.31,0,0,1,4.68-16.71l36.92,9.4h0c5.16,1.23,11.36,3,12.32,3.71l4.08,3.8a2,2,0,0,0,1.36.54,1.9,1.9,0,0,0,.34,0,2,2,0,0,0,1.42-1v2.56A10.69,10.69,0,0,1,536.31,740Z" transform="translate(-426 -582)" style="fill:#1c3e58"/><path d="M497.05,652.9a2.08,2.08,0,0,0-2.08-2.08h-5.45a2.08,2.08,0,1,0,0,4.15H495A2.08,2.08,0,0,0,497.05,652.9Z" transform="translate(-426 -582)" style="fill:#1c3e58"/><path d="M512.11,650.82h-5.45a2.08,2.08,0,1,0,0,4.15h5.45a2.08,2.08,0,1,0,0-4.15Z" transform="translate(-426 -582)" style="fill:#1c3e58"/><path d="M504.9,667.66a7.45,7.45,0,0,1-9.8,0,2.08,2.08,0,1,0-2.51,3.31,11.54,11.54,0,0,0,14.81,0,2.08,2.08,0,0,0-2.51-3.31Z" transform="translate(-426 -582)" style="fill:#1c3e58"/><path d="M472.93,640.55a4.17,4.17,0,0,0-.78.41c-1.51,1-3,3.42-1.72,8.92a8.35,8.35,0,0,0,3.65,5.55c.18.13.42.32.44.29h0v0C477,671.55,487.65,683,500,683s23-11.45,25.46-27.24c.09-.08.29-.23.45-.34a8.35,8.35,0,0,0,3.65-5.55c1.33-5.51-.2-7.89-1.71-8.92a4.2,4.2,0,0,0-.76-.4,23.62,23.62,0,0,0,.61-11.47c-2.63-12.88-16.65-22.48-33.32-22.83a2.09,2.09,0,0,0-2.12,2,7.89,7.89,0,0,1-1.3,4.24c-1.08,1.56-2.45,2-4.51,2.75a23.94,23.94,0,0,0-4.87,2.16,20.9,20.9,0,0,0-9.29,13.55A19.41,19.41,0,0,0,472.93,640.55Zm52.61,8.36a4.31,4.31,0,0,1-2,3.13,4.48,4.48,0,0,0-2.13,2.89s0,0,0,0v0c-2.08,13.81-11.07,23.84-21.38,23.84s-19.3-10-21.38-23.84l0-.07v0c0-.08,0-.16-.06-.24l0-.08a4.62,4.62,0,0,0-2-2.57,4.31,4.31,0,0,1-2-3.12c-.77-3.22-.18-4.38,0-4.52h.06a23.84,23.84,0,0,0,1.84,3,2.08,2.08,0,0,0,3.74-1A25.49,25.49,0,0,1,483.32,636a40.46,40.46,0,0,0,14,8.26,40,40,0,0,0,14,2.11,2.08,2.08,0,0,0,1.78-3q-.52-1-1-2l.17.13c2.93,2.23,6,4.4,9.09,6.44a2.08,2.08,0,0,0,2.95-.71c.45-.79.91-1.67,1.34-2.62C525.85,644.88,526.21,646.12,525.54,648.91Zm-49.16-17.18a16.86,16.86,0,0,1,7.37-10.79,20.23,20.23,0,0,1,4.07-1.78c2.31-.81,4.7-1.64,6.55-4.3a11.29,11.29,0,0,0,1.8-4.36c13.91.93,25.31,8.9,27.46,19.42a20.31,20.31,0,0,1-1.21,11.46,2.07,2.07,0,0,0-.59,1.4l-.14.32c-2.36-1.61-4.69-3.28-6.94-5-2.09-1.59-4.17-3.25-6.17-4.94a2.08,2.08,0,0,0-3.31,2.22c.53,1.66,1.14,3.31,1.81,4.92q.38.91.79,1.81a35.73,35.73,0,0,1-9.21-1.83,36.37,36.37,0,0,1-14.26-9,2.08,2.08,0,0,0-3.19.26,29.76,29.76,0,0,0-3.21,5.93q-.51,1.26-.89,2.56A15.55,15.55,0,0,1,476.37,631.73Z" transform="translate(-426 -582)" style="fill:#1c3e58"/><path d="M500,600a2,2,0,0,0,2-2V584a2,2,0,0,0-4,0v14A2,2,0,0,0,500,600Z" transform="translate(-426 -582)" style="fill:#1c3e58"/><path d="M469.27,606.77a2,2,0,1,0,3.46-2l-7-12.12a2,2,0,1,0-3.46,2Z" transform="translate(-426 -582)" style="fill:#1c3e58"/><path d="M450.77,625.27l-12.12-7a2,2,0,0,0-2,3.46l12.12,7a2,2,0,0,0,2-3.46Z" transform="translate(-426 -582)" style="fill:#1c3e58"/><path d="M444,656a2,2,0,0,0-2-2H428a2,2,0,0,0,0,4h14A2,2,0,0,0,444,656Z" transform="translate(-426 -582)" style="fill:#1c3e58"/><path d="M448.77,683.27l-12.12,7a2,2,0,0,0,2,3.46l12.12-7a2,2,0,0,0-2-3.46Z" transform="translate(-426 -582)" style="fill:#1c3e58"/><path d="M563.35,690.27l-12.12-7a2,2,0,1,0-2,3.46l12.12,7a2,2,0,0,0,2-3.46Z" transform="translate(-426 -582)" style="fill:#1c3e58"/><path d="M572,654H558a2,2,0,0,0,0,4h14a2,2,0,0,0,0-4Z" transform="translate(-426 -582)" style="fill:#1c3e58"/><path d="M550.23,629a2,2,0,0,0,1-.27l12.12-7a2,2,0,0,0-2-3.46l-12.12,7a2,2,0,0,0,1,3.73Z" transform="translate(-426 -582)" style="fill:#1c3e58"/><path d="M528,607.5a2,2,0,0,0,2.73-.73l7-12.12a2,2,0,1,0-3.46-2l-7,12.12A2,2,0,0,0,528,607.5Z" transform="translate(-426 -582)" style="fill:#1c3e58"/></svg>