<svg id="735b5c41-23b2-4acf-acda-3b0030ae28c5" data-name="icons" xmlns="http://www.w3.org/2000/svg" viewBox="0 0 168.04 156"><circle cx="489" cy="374" r="7" transform="translate(-458.04 375.75) rotate(-68.16)" style="fill:#f66467"/><path d="M559,315H507a5,5,0,0,0-5,5v27l-12,12h69a5,5,0,0,0,5-5V320A5,5,0,0,0,559,315Z" transform="translate(-417.96 -313)" style="fill:#edeef6"/><circle cx="138.04" cy="54" r="2.09" style="fill:#1c3e58"/><circle cx="165.19" cy="90.33" r="2.09" style="fill:#1c3e58"/><path d="M556.48,400.23a2,2,0,0,0,.15-2.82c-2-2.26-4.94-3.4-8.63-3.4-5.86,0-9.75,2.93-11.25,8.48a2,2,0,1,0,3.86,1c1-3.82,3.31-5.52,7.39-5.52,2.54,0,4.39.68,5.66,2.08A2,2,0,0,0,556.48,400.23Z" transform="translate(-417.96 -313)" style="fill:#1c3e58"/><path d="M566,431c5.63,0,10.36-4.86,11.65-11.4a2,2,0,0,0,.45-.67,14.24,14.24,0,0,0-2.88-15.62,14,14,0,0,0-10.1-3.82,12.45,12.45,0,0,0-8.92,3.9c-3.36,3.64-4.18,9.31-2.12,14.31C554.75,425.17,559.84,431,566,431Zm-.76-27.51a10.08,10.08,0,0,1,7.2,2.7,9.93,9.93,0,0,1,2.61,9.05c-.37-.23-.73-.46-1.09-.71a24.37,24.37,0,0,1-3.08-2.48,24.9,24.9,0,0,1-3.09-3.55,2,2,0,0,0-1.62-.83h0a2,2,0,0,0-1.63.87,18.91,18.91,0,0,1-3.46,3.85,19.29,19.29,0,0,1-3,2.06c-.24.13-.48.26-.73.38a9.31,9.31,0,0,1,1.83-8.72A8.48,8.48,0,0,1,565.24,403.49ZM566,427c-3.71,0-6.83-3.48-7.74-8.19a22.6,22.6,0,0,0,5.36-3.36,23.55,23.55,0,0,0,2.57-2.53c.61.71,1.26,1.39,1.93,2a28.4,28.4,0,0,0,5.56,4.12C572.71,423.65,569.64,427,566,427Z" transform="translate(-417.96 -313)" style="fill:#1c3e58"/><path d="M578.78,427.65a2,2,0,0,0-1.47-.46,2,2,0,0,0-1.36.73,12.28,12.28,0,0,1-19.89,0,2,2,0,0,0-3.1,2.52A16.74,16.74,0,0,0,566,437a16.36,16.36,0,0,0,11.61-5A15.93,15.93,0,0,1,582,443v18a2,2,0,0,0,4,0V443A20,20,0,0,0,578.78,427.65Z" transform="translate(-417.96 -313)" style="fill:#1c3e58"/><path d="M578,441a2,2,0,0,0-2,2v18a2,2,0,0,0,4,0V443A2,2,0,0,0,578,441Z" transform="translate(-417.96 -313)" style="fill:#1c3e58"/><path d="M425,341.38a8.8,8.8,0,0,0,2.19,5.17v11.13a2,2,0,0,0,4,0v-8.56a9.53,9.53,0,0,0,2.68.4h0a2,2,0,0,0,0-4,5,5,0,0,1-3.18-1.09c-1.25-1.06-2.16-3-1.53-4.27a1.94,1.94,0,0,1,1.07-1c.85-.17,2.52.85,3.3,3.15a2,2,0,0,0,3.85-.2l.66-2.92a1.76,1.76,0,0,1,2.11-1.34,20.78,20.78,0,0,0,4.2.46,20,20,0,0,0,5.84-.8l.21,0a11.05,11.05,0,0,0,1.79-.49,52,52,0,0,1,.68,11.92,28.92,28.92,0,0,1-1,6c-.1.39-.19.8-.3,1.24a1.73,1.73,0,0,1-1.13,1.28,9.27,9.27,0,0,1-3.51.42,10.13,10.13,0,0,1-6.86-3.73,2,2,0,0,0-3.12,2.51,14.76,14.76,0,0,0,6.67,4.61v2.24a2,2,0,0,0,4,0v-1.6a13.34,13.34,0,0,0,4-.63,5.75,5.75,0,0,0,3.82-4.19c.1-.43.2-.82.29-1.21a33,33,0,0,0,1.07-6.71,56,56,0,0,0-1-14.24,10.31,10.31,0,0,0,3-4,11.15,11.15,0,0,0,0-8.33,2,2,0,0,0-2.45-1.16,16,16,0,0,1-6.46.7,13.25,13.25,0,0,1-4.81-1.51,14.57,14.57,0,0,0-6.27-1.74A15.29,15.29,0,0,0,428.39,322a14.52,14.52,0,0,0-4.41,6.2,16.79,16.79,0,0,0,.24,12.21A2,2,0,0,0,425,341.38Zm2.71-11.69a10.5,10.5,0,0,1,3.19-4.53,11.61,11.61,0,0,1,7.83-2.24,10.61,10.61,0,0,1,4.7,1.35,17,17,0,0,0,6.12,1.88,19.45,19.45,0,0,0,6.06-.34,6.75,6.75,0,0,1-.44,3.61,6.43,6.43,0,0,1-1.83,2.45l-.14.06a17.36,17.36,0,0,1-8.8,2.4A16.79,16.79,0,0,1,441,334a5.81,5.81,0,0,0-6.33,3,6.08,6.08,0,0,0-5.21-1.66,5.1,5.1,0,0,0-2.3,1.14A12.09,12.09,0,0,1,427.7,329.7Z" transform="translate(-417.96 -313)" style="fill:#1c3e58"/><path d="M519.83,408v-8a2,2,0,0,0-2.59-1.91L506,401.58V386.2l5.28,2.12a4.91,4.91,0,0,0,1.85.36A5,5,0,0,0,515,379l-17.2-6.89a9,9,0,1,0-12.15,10.22A9.16,9.16,0,0,0,489,383a9,9,0,0,0,5-1.51l.1-.07L502,384.6h0v18.23l-5.9,1.83-.12,0a5.08,5.08,0,0,0-4.3-3.7l-21,.13A2,2,0,0,0,470,401H456.61v-.09c-.21-5.59-.73-10.61-1.76-14.06a113.34,113.34,0,0,0-7.71-19.13,2,2,0,0,0-1.72-1.08,33,33,0,0,1-16-4.76,2,2,0,0,0-1.65-.2,2,2,0,0,0-1.22,1.12,106,106,0,0,0-7.65,27.65c-1.43,10.59-1,39.8-.21,46.79a2,2,0,0,0,2,1.76h1.64L426,457.2V467a2,2,0,0,0,4,0V457a2,2,0,0,0,0-.39L426.4,439H452v26a2,2,0,0,0,4,0V439a2,2,0,0,0-.25-1A2,2,0,0,0,456,437c0-1.64.06-4.41.18-7.71l5.82-1.81V467a2,2,0,0,0,4,0V427a2,2,0,0,0-.15-.75L510,412.53V467a2,2,0,0,0,4,0V411.29l4.43-1.38A2,2,0,0,0,519.83,408Zm-25.91-33.11a4.87,4.87,0,0,1-.28,1,4.72,4.72,0,0,1-.47.89,5,5,0,1,1-2.31-7.39,5.08,5.08,0,0,1,1.71,1.14A5,5,0,0,1,493.92,374.89Zm3.44,2.46a8.07,8.07,0,0,0,.32-1l15.83,6.35a1,1,0,0,1,0,1.84,1,1,0,0,1-.4.08,1,1,0,0,1-.37-.07l-7.24-2.9h0L503.8,381h0l-6.87-2.75A8.4,8.4,0,0,0,497.36,377.35ZM472,405h19.54c.3,0,.55.5.63.88l-4.07,1.27-16.1,5Zm-6,0h2v8.4l-1.56.48-.4.13Zm-13.34,10h-6A14.73,14.73,0,0,1,432,400.29V384.84a2,2,0,0,0-4,0v15.45A18.73,18.73,0,0,0,446.67,419h5.88c-.09,2.83-.19,5.55-.29,8q0,.88-.06,1.71h0c-.1,2.48-.18,4.61-.2,6.29H422.5c-.67-9-.89-34.63.37-44a102.29,102.29,0,0,1,6.5-24.54,36.7,36.7,0,0,0,14.73,4.14A108.75,108.75,0,0,1,451,388a56.83,56.83,0,0,1,1.6,12.91V401h-.82c-3.24,0-5.84-3.87-5.84-7.08V381.46a2,2,0,0,0-4,0v12.46c0,5.23,4.21,11.08,9.84,11.08H462v10h-9.34Zm63.17-8.47-2.68.83-3,.94L456.35,425c0-1.24.09-2.53.14-3.85l6.94-2.16h.37l6.52-2h.08l.23-.06,1.33-.44,5.91-2,6.24-1.94,5-1.55,5.28-1.64.75-.23h0l20.68-6.42Z" transform="translate(-417.96 -313)" style="fill:#1c3e58"/><path d="M490,361h69a7,7,0,0,0,7-7V320a7,7,0,0,0-7-7H507a7,7,0,0,0-7,7v26.17l-11.41,11.41A2,2,0,0,0,490,361Zm13.41-12.59A2,2,0,0,0,504,347V320a3,3,0,0,1,3-3h52a3,3,0,0,1,3,3v34a3,3,0,0,1-3,3H494.83Z" transform="translate(-417.96 -313)" style="fill:#1c3e58"/><path d="M552,325H514a2,2,0,0,0,0,4h38a2,2,0,0,0,0-4Z" transform="translate(-417.96 -313)" style="fill:#1c3e58"/><path d="M514,339h18a2,2,0,0,0,0-4H514a2,2,0,0,0,0,4Z" transform="translate(-417.96 -313)" style="fill:#1c3e58"/><path d="M548,335h-4a2,2,0,0,0,0,4h4a2,2,0,0,0,0-4Z" transform="translate(-417.96 -313)" style="fill:#1c3e58"/><path d="M546.15,345H513.85a2,2,0,0,0,0,4h32.31a2,2,0,0,0,0-4Z" transform="translate(-417.96 -313)" style="fill:#1c3e58"/><path d="M538,437c6.62,0,12-6.73,12-15a27.18,27.18,0,0,0-.39-4.79,1.94,1.94,0,0,0-.1-.52C547.9,408.83,542.58,407,538,407c-5.47,0-12,2.6-12,15C526,430.27,531.38,437,538,437Zm0-4c-4.23,0-7.7-4.55-8-10.27l0-.07a12.39,12.39,0,0,1,3.37-4.46,14.17,14.17,0,0,0,6.18,2.53,14,14,0,0,0,6.33-.52c0,.56.05,1.16.05,1.79C546,428.07,542.41,433,538,433Zm0-22c3,0,6,.74,7.31,5.2a10.06,10.06,0,0,1-5.1.58,10.23,10.23,0,0,1-5.36-2.58,2,2,0,0,0-2.45-.2c-.43.28-.83.59-1.22.91C532.66,411.6,535.35,411,538,411Z" transform="translate(-417.96 -313)" style="fill:#1c3e58"/><path d="M550.78,433.65a2,2,0,0,0-1.47-.46,2,2,0,0,0-1.36.73,12.28,12.28,0,0,1-19.89,0,2,2,0,0,0-2.83-.27A20,20,0,0,0,518,449v18a2,2,0,0,0,4,0V449a15.93,15.93,0,0,1,4.39-11,16.06,16.06,0,0,0,23.23,0A15.93,15.93,0,0,1,554,449v18a2,2,0,0,0,4,0V449A20,20,0,0,0,550.78,433.65Z" transform="translate(-417.96 -313)" style="fill:#1c3e58"/><path d="M528,447a2,2,0,0,0-2,2v18a2,2,0,0,0,4,0V449A2,2,0,0,0,528,447Z" transform="translate(-417.96 -313)" style="fill:#1c3e58"/><path d="M548,447a2,2,0,0,0-2,2v18a2,2,0,0,0,4,0V449A2,2,0,0,0,548,447Z" transform="translate(-417.96 -313)" style="fill:#1c3e58"/><path d="M552,367a2,2,0,0,0-2-2H516a2,2,0,0,0,0,4h34A2,2,0,0,0,552,367Z" transform="translate(-417.96 -313)" style="fill:#1c3e58"/><path d="M563,393.56A2,2,0,0,0,565,395.5a17.93,17.93,0,0,1,13,4.94,2,2,0,0,0,2.78-2.87,21.91,21.91,0,0,0-15.9-6.07A2,2,0,0,0,563,393.56Z" transform="translate(-417.96 -313)" style="fill:#1c3e58"/></svg>